<svg xmlns="http://www.w3.org/2000/svg" style="display:block" viewBox="0 0 2048 2048"><path fill="#292724" d="M0 0h2048v2048H0z"/><path fill="#F5D894" d="M993.056 88.433a170 170 0 0 1 3.129-.175 937.18 937.18 0 0 1 659.695 242.695 925.94 925.94 0 0 1 300.98 648.401c7.56 191.626-35.72 367.856-134.19 532.666-31.92 53.41-67.3 103.09-109.59 148.82a935.9 935.9 0 0 1-657.44 297.98c-249.868 3.76-476.83-72.73-662.663-241.53a937.97 937.97 0 0 1-303.654-645.33c-11.91-251.26 70.12-487.928 239.889-674.054C480.975 231.52 674.438 126.214 898.758 96.016c31.192-4.2 62.869-6.153 94.298-7.583"/><path fill="#292724" d="M840.753 115.072c12.214-3.299 25.233-5.21 37.711-7.283 59.075-9.814 119.661-12.406 179.446-10.651 7.73.018 15.35.462 23.06 1.055a265 265 0 0 1 27.54 2.108c34.47.246 78.83 9.726 112.66 17.117a921.6 921.6 0 0 1 463.26 252.279c22.37 22.666 42.75 46.661 62.68 71.469 137.5 171.209 203.83 373.638 202.1 592.414-.51 64.83-6.7 131.35-20.61 194.73-35.78 163-125.45 332.72-244.68 450.01a924.37 924.37 0 0 1-664.03 271.7c-246.865-2.37-483.306-95.55-657.127-272.83A933.3 933.3 0 0 1 95.994 1012.2a913.4 913.4 0 0 1 282.134-653.796 917.9 917.9 0 0 1 391.945-226.791c15.445-4.262 55.687-16.31 70.68-16.541"/><path fill="#1D1B17" d="M1057.91 97.138c7.73.018 15.35.462 23.06 1.055a265 265 0 0 1 27.54 2.108c-11.84 3.462-32.22 2.825-44.58.877-6.49-.009-12.73-.201-19.17-1.066 4.29-.083 9.35.378 13.31-1.393z"/><path d="M840.753 115.072c12.214-3.299 25.233-5.21 37.711-7.283 59.075-9.814 119.661-12.406 179.446-10.651l.16 1.58c-3.96 1.772-9.02 1.311-13.31 1.394-31.79-1.413-63.819.837-95.544 2.736-12.436.745-25.321.454-37.618 2.291-11.035 1.648-64.459 13.469-70.845 9.933"/><path fill="#F5D894" d="M1023.95 129.471c27.66.165 53.64 4.415 79.86 13.37 65.14 22.245 133.08 80.176 163.81 142.254a348.8 348.8 0 0 1 220.25-2.918c109.75 33.935 201.67 116.748 254.67 217.933 46.46 88.704 50.48 181.845 21.26 276.401 50.03 29.483 79.46 54.253 111.29 102.854a264.3 264.3 0 0 1 36.5 196.925c-18.65 88.12-74.06 148.92-147.29 196.36 20.73 66.07 23.78 134.43 5.39 201.51-30.74 112.14-104.73 202.56-205.64 259.67-33.74 19.1-68.53 32.4-106.52 40.29-66.24 13.77-121.55 8.29-185.83-9.54-12.93 23.05-31.37 45.65-50.08 64.31-42.37 42.26-100.32 76.82-159.88 86.68-13.67 2.26-27.18 2.57-40.99 2.58-15.81-.12-32.025-1.9-47.524-4.97-60.088-11.92-118.879-52.51-159.088-98.12-14.018-15.91-26.004-33.36-37.791-50.94-76.746 22.57-146.786 27.88-223.836 1.67-53.115-18.06-99.193-46.95-142.305-82.42-11.727-9.65-24.391-18.08-31.078-32.08-5.932-12.41-18.557-23.54-27.22-34.44-15.392-19.36-29.812-40.25-41.194-62.22-36.638-70.75-53.061-151.51-39.108-230.63 3.281-18.6 8.577-36.41 14.289-54.37-10.122-4.47-19.471-11.68-28.479-18.07-40.484-28.71-73.546-62.84-97.018-107.02-32.564-61.3-38.742-129.07-18.165-195.202 21.146-67.968 78.186-138.14 141.727-171.544-24.735-60.75-22.952-146.579-5.159-208.957 7.234-25.36 16.576-50.531 28.796-73.93 39.269-75.193 106.306-143.196 180.329-184.333 96.864-53.83 184.992-58.373 289.791-28.547 13.276-22.624 28.792-42.712 46.788-61.713 54.397-57.435 120.18-88.633 199.445-90.843"/><path d="M1319.36 1002.74c1.62 1.53 2.35 7.41 2.33 9.64-.02 2.07-.13 2.69-1.6 3.99l-3.88-2.33c-1.02-.81-.35-.36-2.34-1.16l-1.76-.7-.03-2.11c2.56-2.32 4.9-4.83 7.28-7.33"/><path fill="#1D1B17" d="m718.587 541.928 3.615-.743c.36-.402 1.682-1.908 2.067-2.191.473-.347 1.037-.551 1.556-.826 1.195 9.839 2.221 19.734 3.752 29.526-3.531-8.59-6.774-17.491-10.99-25.766"/><path d="M1583.66 1672.98c8.24.01 16.6.24 24.83-.28 3.18-.2 13.43-2.41 15.56-1.24-1.39 1.28-2.42 2.32-4.12 3.17l-1.75-.5.25-.51c-10.8 1.48-24.95 5.6-34.77-.64"/><path fill="#1D1B17" d="M1199.22 1199.04c7.53 6.13 15.1 11.87 23.07 17.41-4.02 2.03-4.28 2.54-6.46 6.53a890 890 0 0 0-16.61-23.94"/><path fill="#FDEDA5" d="M742.725 1445.13c.782 1.19 1.969 2.12 1.558 3.62-1.431 5.22-9.293 10.4-13.888 12.61-1.853.89-3.374 1.17-5.394 1.39-1.47-.64-1.942-.78-2.96-2.07 7.256-4.74 13.928-10.15 20.684-15.55"/><path fill="#1D1B17" d="M297.163 1475.89c.27-.23.509-.5.811-.69 1.497-.93 2.973-1.38 4.372-2.53 1.177-.98.267-.62 1.933-.86l1.033 5.94c-4.153 12.56 9.754 25.31 5.007 35.62-5.43-12.17-9.491-24.7-13.156-37.48"/><path d="M1039.3 1391.47c2.32 19.23 1.67 52.12-.07 71.72-4.59-22.36-3.13-49.23.07-71.72m424.9-368.28c28.17-4.48 53.7-14.27 80.44-23.64-8.08 11.17-54.28 16.08-61.09 25.01l3.03 2.67c-7.44-.61-15.13-2.27-22.38-4.04m-139.96-500.231c4.15 7.147-.02 21.168.58 29.719 2.47-4.331 9.18-18.892 13.65-20.292l-22.87 50.569c4.45-19.85 6.48-39.814 8.64-59.996m-66.35 541.751c2.42 1.17 3.41 1.69 4.63 4.29.32.69.35 1.36.44 2.09-7.39 5.02-37.66 30.59-40.86 31.84 3.24-8.59 28.19-30.21 35.79-38.22"/><path fill="#1D1B17" d="m982.988 863.198.418.998c-11.451 11.566-21.293 21.208-35.472 29.432-.902-2.724 5.381-13.305 6.932-16.487a623 623 0 0 0 28.122-13.943M711.921 1011.04c3.466 2.28 7.977 15.64 9.904 19.86-10.754-2.82-21.509-5.18-32.549-6.53-5.026-1.1-10.944-1.19-16.103-1.73 13.113-3.36 25.905-7.34 38.748-11.6"/><path fill="#292724" d="M728.514 1044.91c6.609 2.05 12.544 4.82 18.403 8.46-7.445 8.11-15.467 15.69-23.335 23.38l-10.018 9.31c3.676-14.16 11.533-26.95 14.95-41.15m289.626 278.72c6.38.48 12.05 4.26 17.6 7.18a552 552 0 0 0-8.93 38.99c-.03 1.33-.29 2.8-.45 4.13l-.99-.02c-1.05-8.74-9.88-43.07-8.92-47.32.25-1.11 1.12-1.97 1.69-2.96M1092 709.027l3.37-.236-.22 1.285c-7.39 7.037-37.09 36.373-44.44 38.537l-.61-2.117c-3.15-6.472-6.86-12.781-10.27-19.122.72-.119 1.45-.255 2.18-.344 16.97-2.083 33.65-12.58 49.99-18.003m258.73-152.649c2.95 1.743 6.24 3.608 8.66 6.056 2.31 2.336 3.69 5.55 3.57 8.849-.38 11.031-18.6 25.75-26.46 32.97-1.71 1.659-2.98 3.204-5.45 3.612l-1.47-1.727c-1.1-11.77 13.36-40.308 21.15-49.76m-48.57 465.962c8.7 3.88 15.31 7.88 22.31 14.36-20.95 10.88-41.42 21.99-61.51 34.39-.09-.73-.12-1.4-.44-2.09-1.22-2.6-2.21-3.12-4.63-4.29a730 730 0 0 1 44.27-42.37M930.572 878.829c.839-.009 1.736.255 2.56.413.047 1.166.111 1.331-.167 2.653-2.163 10.322-10.85 24.861-18.188 32.417-8.022 8.261-31.921 23.953-42.316 30.272l-1.354.503-.438-.732 5.99-4.799a252 252 0 0 1 1.934-6.725c2.318-7.601 5.752-14.848 10.737-21.082 8.223-10.283 29.452-26.595 41.242-32.92m186.458 192.681c7.15 3 21.48 25.25 25.74 32.4-12.31 2.9-24.51 6.74-36.68 10.17-8.05 1.9-15.94 3.56-24.15 4.61a689 689 0 0 0 35.09-47.18m-108.35-335.625c4.64 1.598 9.13 3.616 13.65 5.541 4.11 6.615 8.66 12.541 13.63 18.533-22.09 16.585-43.105 35.474-66.177 50.595-5.217 3.59-10.428 7.13-15.829 10.439l-.956-.504c2.493-2.636 5.406-4.777 7.818-7.507 19.665-22.253 36.079-49.852 47.864-77.097M717.964 1215.56c.962.89 1.379 1.15 2.058 2.47 2.95 5.72 4.173 14.47 6.309 20.74 3.527 10.36 7.989 20.46 11.952 30.66-15.136 9.26-32.133 16.94-48.555 23.61l-16.444 6.57c14.196-15.52 25.859-39.16 33.784-58.69 3.3-8.13 5.776-18.25 10.896-25.36m68.098-465.72c4.408 4.062 18.48 34.911 22.59 42.342 8.873 16.042 18.942 32.875 31.091 46.62-7.593-5.157-15.192-9.983-23.202-14.474-22.133-12.929-44.99-24.457-67.527-36.641 11.712-13.331 24.218-25.608 37.048-37.847m436.228 466.61c25.14 16.27 50.73 31.45 76.6 46.53-11.73 13.66-24.01 28.54-39.93 37.47-12.07-27.44-26.53-52.51-43.13-77.47 2.18-3.99 2.44-4.5 6.46-6.53M807.892 957.124c2.213 2.555 3.521 3.676 6.752 4.743l.253.932c2.161.017 3.615-.397 5.633-1.025 7.882-2.454 16.557 1.276 24.085 3.789-10.033 10.12-21.742 19.028-32.421 28.519a2840 2840 0 0 0-50.63 46.768c-17.295-9.6-22.288-17.95-30.834-35.32 27.428-10.865 53.888-30.525 77.162-48.406m35.457 196.916.342.06.495.81c-27.585 37.78-50.218 80.08-90.253 106.1-2.457-4.09-4.423-8.45-6.484-12.76-5.454-12.14-9.972-24.76-14.31-37.33 21.847-9.76 43.755-19.4 64.845-30.73 15.379-8.26 30.014-17.82 45.365-26.15m444.431-272.123 1 1.164c-6.1 18.01-18.16 35.665-27.05 52.584-10.94 20.803-20.66 42.262-31.07 63.335-11.17-6.795-21.93-11.662-34.27-15.961-5.6-2.112-11.64-3.541-17.4-5.178 14.42-16.818 29.02-33.778 45.76-48.367 19.64-17.128 42.23-31.79 63.03-47.577m-118.69 109.642c18.89 4.975 35.71 12.351 52.94 21.401a289.2 289.2 0 0 1-50.36 74.08c-2.99 3.6-6.3 6.98-9.47 10.42-9.41-15.36-20.09-29.24-32.37-42.4a2967 2967 0 0 1 39.26-63.501M305.312 1477.75c18.116 18.68 55.288 22.23 80.041 25.11-10.661 42.74-14.793 82.55-.837 125.25-26.817-30.24-63.178-75.24-74.197-114.74 4.747-10.31-9.16-23.06-5.007-35.62m647.722-238.83c12.018 9.24 35.244 63.8 40.917 80.09-32.699 15.32-72.614 20.75-108.369 17.17-14.432-.38-29.234-3.24-43.232-6.64 3.554-6.1 6.091-12.45 8.697-18.99 10.646-8.83 24.665-14.94 36.273-22.66 22.626-15.05 44.505-32 65.714-48.97M710.91 1475.64l9.956-6.02c-44.457 83-99.138 150.04-193.046 178.64-11.074 3.37-51.994 12.21-61.671 10.18 29.668-12.69 48.944-39.1 79.219-49.82 7.039 1.37 14.544 3 21.748 2.31 6.205-.59 11.871-3.01 15.654-8.11 8.348-11.26 4.288-28.83 2.743-41.72 13.81-32.12 94.723-61.93 125.397-85.46m354.83-338.54c9.46-.07 18.88-.12 28.33.3-2.44.36-4.64.86-7 1.55 4.6 1.26 9.15 1.1 13.44 3.38-.29.35-.58.7-.87 1.04-5.51 6.43-22.71 17.15-22.06 26.21.19 2.64 1.72 3.82 3.57 5.47 3.73.68 5.73-.86 8.91-2.72l-3.56 5.03 3.55 2.98c-5.75 6.37-18.58 15.84-20.02 24.27l3.87 1.08 1.15 2.22.06.94c-2.59 2.46-4.61 4.52-4.47 8.42.11 2.69 1.44 4.97 3.52 6.6 1.03.8 1.79 1.16 2.92 1.78l-.52.98c.36.16.72.32 1.08.49 1.21.57 2.3 1.2 3.43 1.9.1 2.4-.14 4.42-.52 6.77l.7 1.87c-15.75 25.52-29.47 50.75-41.06 78.41-6.22-3.92-12.62-7.51-19.03-11.11l-12.5 5.45c-11.186-30.03-24.99-55.75-42.52-82.46a850 850 0 0 0 61.81-53.31c12.8-12.27 24.54-25.77 37.79-37.54"/><path fill="#FDEDA5" d="m1086.5 1177.36 3.55 2.98c-5.75 6.37-18.58 15.84-20.02 24.27l3.87 1.08 1.15 2.22c-2.84.9-3.23.91-6.12.18-1.87-2.07-2.46-2.72-2.76-5.63-1.14-11.11 13.16-17.4 19.52-24.2z"/><path fill="#292724" d="M739.903 800.289c27.598 13.42 55.024 28.546 80.71 45.355 11.574 7.574 22.428 16.167 33.982 23.762-10.036 5.538-20.464 10.093-30.967 14.646-3.623 4.954-6.353 10.316-9.195 15.737-8.29 14.826-11.718 29.926-13.46 46.748 1.249 3.255 3.374 4.984 5.873 7.268-.578-.048-1.161-.056-1.735-.144-2.988-.456-4.799-3.394-6.584-5.559l-.958-1.18c-8.277 3.199-22.54 15.439-31.14 20.952-13.825 8.863-28.232 16.617-42.773 24.227-16.684-45.656-15.482-98.26-1.793-144.467 4.82-16.269 11.419-31.754 18.04-47.345M1326.2 1055.82c.69.04 1.55.45 2.2.68.12.31.24.63.35.94 3.94 11.39 5.46 25.6 6.78 37.56 4.52 41.19.72 84.63-13.75 123.65-3.9 10.52-9.1 20.66-13.92 30.79-25.61-12.16-49.63-28.76-73.42-44.14-19.15-12.43-38.19-25.59-56.07-39.78 16.51-10.74 29.17-26.3 43.49-39.7a383.2 383.2 0 0 1 104.34-70M896.665 711.428c22.564-2.652 49.528 1.346 71.321 7.23 8.745 2.361 17.21 5.705 26.041 7.733l1.057.233c-20.355 41.315-42.54 73.957-75.581 106.216-7.74 7.557-14.776 15.553-24.617 20.362-5.635 2.242-11.413 4.152-17.135 6.16-31.145-30.564-60.633-78.242-77.052-118.402 32.349-16.755 59.286-26.53 95.966-29.532m268.925 471.632c30.4 31.22 62.03 86.12 81.44 125.37-48.18 29.02-109.83 37.76-164.21 24.11-9.42-2.36-18.79-5.36-27.62-9.4 10.38-27.37 24.66-57.53 43.4-80.29 3.55-4.31 11.38-11.83 12.84-16.89 1.08.05 2.16.13 3.24.09 8.79-.26 16.89-8.35 22.68-14.26 10.34-8.58 19.19-18.82 28.23-28.73"/><path d="M1438.76 480.272c26.48-9.782 36.37-.898 60.37-4.327 7.07-1.011 12.56-8.425 19.72-8.383l1.5 1.578c-4.82 1.135-6.62 2.792-9.54 6.679l.26 1.906c-1.41 1.072-2.68 1.813-4.23 2.64l-.17 1.001 1.38.608c1.97-1.055 1.84-1.516 4.12-.909 2.33-1.961 4.65-3.908 6.86-6.016 26.61 19.275 48.01 54.923 53.29 87.287 3.28 20.131.96 42.492-11.21 59.492-10.53 14.699-28.89 22.691-46.34 25.263-22.83 3.365-45.72-.742-67.48-7.694-4.63-1.48-11.1-3.283-14.89-6.372-.3-.247-.56-.546-.84-.819.18-.911.29-1.831.67-2.68l1.89-3.721c-2.3.491-1.45.373-3.64.608l-1.46.144c16.33-13.694 31.95-4.809 51.14-12.851 1.1-.744 2.22-1.471 3.19-2.373 2.58-2.383 4.22-5.75 3.92-9.311-.34-4.162-2.71-6.261-5.78-8.593-1.12-1.33-2.34-2-2.28-3.797-8.75-3.155-19.73-3.382-28.88-2.177-6.72.886-13.53 2.227-20.33 2.085-21.15-.442-40.58-13.449-57.05-25.465-7.12-5.518-16.28-11.548-20.23-19.905-1.6-3.385-2.22-7.238-.71-10.778 3.19-7.499 10.8-9.671 17.73-12.602 2.27-3.231 4.37-6.624 6.55-9.926.62-6.59 8.99-13.208 13.47-17.578l1.89-2.783c5.82-6.329 9.82-13.744 17.34-18.193.21.425.37.883.64 1.275 2.65 3.832 23.73 5.788 29.13 6.687"/><path fill="#FDEDA5" d="M1391.65 490.503c3.57.405 6.75.809 10.13 2.044l4.85 2.087c-1.58 2.766-2.51 4.254-5.44 5.817-4.01.574-6.7-.658-10.13-2.668l-1.3-4.497zm-1.89 2.783 1.3 4.497c-5.73 5.316-6.87 11.429-8.83 18.678-1.96-1.894-3.9-3.792-5.94-5.597.62-6.59 8.99-13.208 13.47-17.578m89.45 96.346c4.59 1.192 7.99 2.636 10.63 6.775 2.05 3.212 2.5 7.04 1.52 10.695-1.41 5.256-4.67 7.702-9.04 10.586l-2.16-3.982c1.1-.744 2.22-1.471 3.19-2.373 2.58-2.383 4.22-5.75 3.92-9.311-.34-4.162-2.71-6.261-5.78-8.593-1.12-1.33-2.34-2-2.28-3.797"/><path fill="#FDEDA5" d="M1429.02 626.557c16.33-13.694 31.95-4.809 51.14-12.851l2.16 3.982c-13.91 5.747-24.76 4.419-39.32 4.882-3.59 2.253-7.1 4.88-10.77 6.956l1.89-3.721c-2.3.491-1.45.373-3.64.608zm58.48-71.941c-.98 2.249-2.03 4.405-3.27 6.519-2.25 3.792-5.94 8.743-10.55 9.687-2.37.486-2.74.345-4.67-.85.09-.306.16-.623.29-.918 2.21-5.08 15.3-18.945 19.92-22.325 3.25-2.385 6.91-3.908 10.64-5.376l2.12 4.096c-4.75 3.167-9.64 6.136-14.48 9.167"/><path fill="#F5D894" d="M1482.45 484.278c1.73-.286 3.57-.309 5.32-.438 10.68 12.328 20.35 36.867 19.21 53.383-.16 2.336-.53 4.736-2.36 6.4-.86.783-1.67 1.231-2.64 1.826l-2.12-4.096c.76-.837 1.23-1.668 1.48-2.807 3.6-16.376-9.99-41.368-18.89-54.268"/><path fill="#FDEDA5" d="M1438.76 480.272c26.48-9.782 36.37-.898 60.37-4.327 7.07-1.011 12.56-8.425 19.72-8.383l1.5 1.578c-4.82 1.135-6.62 2.792-9.54 6.679l.26 1.906c-1.41 1.072-2.68 1.813-4.23 2.64l-.17 1.001 1.38.608c1.97-1.055 1.84-1.516 4.12-.909-5.87 4.728-13.01 4.166-20.11 3.39a63 63 0 0 1-4.29-.615c-1.75.129-3.59.152-5.32.438-8.12.294-16.48-1.033-24.48-2.326-6.09 3.089-11.78 5.462-18.38 7.312 4.99 4.821 9.75 11.412 11.95 18.027l-.28 2.242c-3.26-.586-5.28-3.146-7.16-5.813-3.19-4.493-5.55-9.867-8.05-14.775-8.83-2.971-17.25-4.479-26.55-5.039l-2.87 10.728-4.85-2.087c-3.38-1.235-6.56-1.639-10.13-2.044 5.82-6.329 9.82-13.744 17.34-18.193.21.425.37.883.64 1.275 2.65 3.832 23.73 5.788 29.13 6.687"/><path d="M1438.76 480.272c26.48-9.782 36.37-.898 60.37-4.327 7.07-1.011 12.56-8.425 19.72-8.383l1.5 1.578c-4.82 1.135-6.62 2.792-9.54 6.679-14.68 8.141-37.17 3.12-53.31.758-4.93 2.545-9.77 5.266-15.07 6.977-13.64-2.579-26.43-4.99-40.39-4.882.03 4.616.21 9.278-.26 13.875-3.38-1.235-6.56-1.639-10.13-2.044 5.82-6.329 9.82-13.744 17.34-18.193.21.425.37.883.64 1.275 2.65 3.832 23.73 5.788 29.13 6.687"/><path fill="#292724" d="M299.817 1280.93c83.969 38.44 146.068 47.5 237.921 44.66-3.812 5-7.677 10.5-12.206 14.88-6.737 6.51-15.043 11.72-22.511 17.36a272.5 272.5 0 0 0-36.022 32.28c-12.475 13.47-32.468 43.1-46.279 50-14.659 7.32-33.6 12.84-49.7 15.83-21.642 4.01-49.406.88-66.741 15.87-1.666.24-.756-.12-1.933.86-1.399 1.15-2.875 1.6-4.372 2.53-.302.19-.541.46-.811.69-19.01-66.24-17.147-129.34 2.654-194.96m445.898 3.16c2.016 2.2 2.713 4.44 2.976 7.35-3.267 11.63-40.706 54.39-50.451 66.83-38.502 49.15-75.534 102.52-123.79 142.66-21.463 17.85-45.38 33.21-69.034 47.95-35.386 22.07-73.987 39.29-107.163 64.77-1.244-4.8-2.06-9.77-3.03-14.64-5.263-33.12-.486-64.75 8.338-96.77 13.514-.36 26.72-3.45 40.219-3.97 10.277 6.06 17.523 13.92 29.688 16.82 8.626 2.06 17.036 1.13 24.509-3.8 18.386-12.11 11.302-29.07 15.403-46.6 8.486-36.28 79.304-86.31 107.579-110.29 10.5-8.91 26.126-25.98 37.077-32.08 7.45-4.16 18.572-5.31 26.806-8.31a324 324 0 0 0 60.873-29.92m663.275-811.78c10.62-9.481 21.41-18.71 33.09-26.891 57.57-40.33 136.2-61.668 206.22-49.399 7.34 34.436 8.65 69.65 2.23 104.36-5.05 27.271-15.7 53.319-29.67 77.214-42.35 72.47-101.75 101.774-167.49 147.312-6.66.06-13.06.66-19.67 1.523-9.22-18.3-26.87-43.645-24.6-64.68 1.17-10.855 7.34-18.613 15.51-25.296 30.68 12.467 61.71 21.693 95.06 15.469 18.55-3.462 35.28-11.597 46.11-27.529 13.46-19.786 16.16-44.469 11.5-67.499-6.62-32.72-28.98-69.123-56.93-87.754l-1.5-1.578c-7.16-.042-12.65 7.372-19.72 8.383-24 3.429-33.89-5.455-60.37 4.327-5.4-.899-26.48-2.855-29.13-6.687-.27-.392-.43-.85-.64-1.275m339.11 808.58 1.58 1.11c5.67 17.98 9.83 37.36 12 56.08a366.75 366.75 0 0 1-43.75 219.89c-13.96 24.57-30.71 46.5-48.26 68.59 6.74-51.69 1.33-98.57-18.95-146.83a303.6 303.6 0 0 0-111.68-131.23c-16.22-10.63-33.56-19.44-50.35-29.11 16.35 4.41 33.6 5.22 50.46 5.93 73.62 3.11 142.61-13.22 208.95-44.43M375.422 425.857c1.087 8.501-.609 19.414-.744 28.132-.364 23.486 1.859 46.334 7.572 69.161 18.144 72.492 62.076 131.34 123.693 172.763 17.063 11.471 34.994 20.43 52.538 30.919-42.216-5.407-87.116-5.885-129.277.194-45.711 4.581-89.076 21.364-130.46 40.402-9.578-25.157-14.146-52.633-15.83-79.463-5.995-95.559 29.382-190.808 92.508-262.108M1279.92 1749.68c38.37-87.69 49.62-159.02 40.13-254.56 10.36 22.28 22.75 42.88 38.17 62.02 43.24 53.68 108.13 94.17 175.36 109.12 16.45 3.66 33.36 4.88 50.08 6.72 9.82 6.24 23.97 2.12 34.77.64l-.25.51 1.75.5c-19.96 19.55-47.25 35.86-71.66 49.2-27.22 14.89-55.61 24.96-85.77 31.93-63.75 14.74-119.98 12.2-182.58-6.08M420.302 377.839c13.487-8.658 25.468-19.593 38.424-29.031 17.994-13.108 38.136-24.411 58.162-34.142a328.4 328.4 0 0 1 252.456-16.564c-32.358 57.143-45.493 127.226-45.716 192.341-.054 15.886 1.522 31.852 2.197 47.725-.519.275-1.083.479-1.556.826-.385.283-1.707 1.789-2.067 2.191l-3.615.743c-24.895-46.743-57.328-84.155-100.54-114.945-56.315-40.126-128.835-60.645-197.745-49.144m316.21 1097.901c.897 5.16-8.214 45.95-9.015 55.74-7.136 87.29 7.977 139.21 40.47 218.61-95.215 26.88-175.302 23.34-264.035-23.19-30.149-16.06-54.659-34.48-80.879-56.17 38.167 8.42 80.707 3.54 117.395-8.96 91.707-31.22 154.48-100.88 196.064-186.03"/><path fill="#292724" d="M1277.55 299.272c84.04-29.646 177.22-21.123 257.1 17.144 19.88 9.525 39.28 20.54 57.06 33.601 11.12 8.171 21.95 21.056 34.35 26.593-98.71-.483-171.98 27.509-242.51 97.241-11.4 11.269-21.6 22.608-30.6 35.952-4.54 6.73-9.04 16.925-14.48 22.583-4.47 1.4-11.18 15.961-13.65 20.292-.6-8.551 3.57-22.572-.58-29.719.14-15.197 1.31-30.373.74-45.583-2.32-61.147-17.98-124.308-47.43-178.104m392.53 123.236c8.6 4.763 46.35 62.945 53.28 75.317 48.8 87.203 53.38 175.529 26.63 270.431-42.42-20.836-85.78-33.567-132.17-41.777-45.07-7.558-89.31-4.914-134.72-3.273 11.85-7.773 24.43-14.584 36.39-22.237 34.76-22.246 66.95-48.866 92.45-81.503 43.77-56.006 66.94-125.69 58.14-196.958"/><path fill="#292724" d="M1039.32 582.451c12.76-68.295 50.49-139.653 97.65-190.403 18.1-19.479 39.13-36.906 61.03-51.942 19.57-13.429 42.39-24.856 64.12-34.486 33.09 60.332 50.73 135.181 45.96 204.048-1.82 26.33-7.64 51.974-10.35 78.157-18.37-9.29-36.23-18.643-57.33-11.681a73.7 73.7 0 0 0-18.99 9.659c-11.04 7.879-20.83 18.447-30.72 27.728-16.2 15.208-32.57 30.217-48.33 45.895-7.53 7.492-14.91 16.668-23.4 23.021-8.95 6.703-25.02 9.109-35.92 12.792-15.74 5.318-32.26 11-46.82 19.033-3.26-19.248-8.52-80.94-2.44-97.364.58-11.531 2.92-23.232 5.54-34.457M637.688 1035.06c18.973-.14 37.686.56 56.36 4.33 5.483.52 11.132 1.79 16.579 2.7-4.435 12.21-8.825 24.44-12.392 36.94-2.716 9.51-3.887 21.02-8.342 29.85-6.834 13.54-27.108 30.44-36.896 44.47-24.293 34.81-46.496 71.05-70.027 106.38-10.587 15.89-20.945 32.28-32.915 47.16-18.566.98-36.919 3.35-55.57 3.54-68.748.73-128.104-17.31-189.582-46.52 16.108-39.71 37.704-75.65 66.63-107.34 66.576-72.96 168.226-116.76 266.155-121.51"/><path d="M637.688 1035.06c18.973-.14 37.686.56 56.36 4.33-11.169 1.68-47.316 1.33-57.197-2.82z"/><path fill="#292724" d="M1540.46 737.422c69.77-3.15 141.72 14.645 203.44 46.586a605 605 0 0 1-10.05 21.608 363.06 363.06 0 0 1-163.52 164.054c-21.91 11.058-44.92 19.626-68.09 27.606-53.09 15.144-109.23 17.104-161.79 33.954l-6.31-45.534c14.47-17.545 27.35-36.363 41.08-54.486 12.14-16.017 25.08-31.463 36.8-47.778 29.42-40.919 37.99-84.444 30.02-133.972 28.81-11.436 67.34-10.263 98.42-12.038M834.22 1343.19c7.557 2.03 15.127 4.16 22.794 5.72 37.568 7.65 77.37 5.44 114.322-4.4 9.672-2.58 19.95-5.33 28.357-10.93 4.137 14.74 8.037 29.02 9.937 44.26 3.7 25.25 4.69 55.3 0 80.49-1.17 27.31-13.442 62-23.983 87.41-36.999 89.21-113.079 160.38-201.752 196.96-11.368-18.31-18.892-42.58-25.067-63.19a375.3 375.3 0 0 1-1.973-210.6c3.46-12.31 6.586-26.68 12.898-37.82 5.839-10.31 17.728-19.14 25.389-28.38 15.237-18.39 27.777-38.54 39.078-59.52"/><path fill="#1D1B17" d="M1009.63 1458.33c-.55-.67-.99-1.12-1.32-1.98-.88-2.24-.59-74.97-.3-75.81.35-.99 1.08-1.8 1.62-2.7 3.7 25.25 4.69 55.3 0 80.49"/><path fill="#292724" d="M1253.77 1324.17c59.52 129.76 73.77 253.65 23.72 388.82a373 373 0 0 1-12.91 30.82 365.3 365.3 0 0 1-201.25-194.65c-8.33-19.26-24.92-65.74-24.1-85.97 1.74-19.6 2.39-52.49.07-71.72.2-16.69 6.26-35.26 10.27-51.49 76.74 25.47 132.01 18.86 204.2-15.81M784.97 303.717c31.928 13.446 64.051 33.016 90.862 55 74.942 61.446 124.258 146.939 133.808 244.017 2.33 16.177 4.81 37.391 1.45 53.408-.07 7.158-1.04 14.138-2.41 21.159-1.03 11.861-4.38 23.822-7.29 35.36-22.63-11.028-50.915-16.227-75.875-17.692-37.835-2.222-102.435 7.281-131.601 33.096-11.332-24.574-21.313-49.095-29.321-74.973-34.892-112.752-35.366-243.351 20.377-349.375"/><path fill="#1D1B17" d="M1008.06 648.298c1.61-9.982-2.79-39.887 1.58-45.564 2.33 16.177 4.81 37.391 1.45 53.408-.07 7.158-1.04 14.138-2.41 21.159-1.26-9.566-.74-19.373-.62-29.003"/><path fill="#292724" d="M304.731 783.997c107.726-55.791 234.474-55.454 348.293-19.317 24.403 7.747 49.763 16.849 72.334 29.067-31.412 57.269-39.041 134.443-20.625 196.919.779 2.645 1.572 5.248 2.643 7.794-16.125 6.01-37.667 13.67-55.029 13.2-20.008 3.21-43.234 1.77-62.901-2.83-13.417-1.5-27.051-5.5-40.044-9.086a375.55 375.55 0 0 1-193.749-125.766c-20.895-26.202-40.027-58.134-50.922-89.981M1392.43 1038.33c22.05-1.83 46.14-3.14 67.92.93 21.16-.89 71.66 17.94 92.56 26.85 65.43 27.89 127.69 82.23 164.33 143.2 10.57 17.58 18.55 36.36 26.21 55.33-11.97 5.97-23.95 11.85-36.4 16.8-71.22 28.31-158.16 34.94-233.49 22.38-52.58-8.77-104.88-26.46-153.78-47.38a156 156 0 0 0 4.22-5.75c7.08-10.2 11.6-23.16 15.57-34.83 19.09-56.16 15.72-110.97 5.34-168.16 15.57-5.25 31.2-7.82 47.52-9.37"/><path d="M1392.43 1038.33c22.05-1.83 46.14-3.14 67.92.93-19.35 2.5-47.66 1.49-67.42.34z"/><path fill="#292724" d="M1023.33 1476.6c.45.5 1.05.91 1.36 1.51 2.52 4.86 4.8 23.93 6.55 30.87 1.64 6.51 4 12.89 6.26 19.21 39.44 110.47 112.52 181.17 216.97 230.57-9.87 19.09-23.77 36.57-38.49 52.13-49.79 52.68-118.06 89.02-191.33 91.17-21.69.27-44.188-3.52-64.949-9.7-66.787-19.89-133.895-73.99-167.251-135.47 28.688-8.56 58.105-28.54 81.851-46.51 72.655-54.95 136.359-141.85 149.029-233.78M437.496 392.399a257.2 257.2 0 0 1 116.119 18.627 282.9 282.9 0 0 1 74.154 44.586c75.795 62.279 97.197 138.746 129.719 226.759 6.72 18.185 14.747 35.99 22.356 53.821a200.8 200.8 0 0 0-45.77 45.62c-24.663-15.589-54.76-24.347-82.042-34.309-83.674-30.553-163.749-66.5-215.433-143.08-43.616-64.626-53.523-130.296-38.798-205.838a366 366 0 0 1 39.695-6.186M1757.58 791.601c62.08 34.833 112.75 92.69 132.37 161.879a246.66 246.66 0 0 1-22.43 191.65c-26.59 46.85-63.31 83.73-109.38 111.37-5.87-14.51-11.84-28.95-19.35-42.7a378.32 378.32 0 0 0-185.6-165.26 377 377 0 0 0-43.07-15.04c-7.47-2.12-16.53-3.36-23.54-6.27l-3.03-2.67c6.81-8.93 53.01-13.84 61.09-25.01l1.5-.828c15.9-8.619 32.99-14.372 48.84-23.552 72.84-42.18 131.77-104.701 162.6-183.569M1313.1 1271c10.2 3.21 20.06 8 29.95 12.07a675 675 0 0 0 36.33 13.59c20.12 7.01 40.71 12.74 60.66 20.2 69.25 25.91 134.21 66.21 174.58 129.96 39.55 62.47 48.96 133.33 32.96 204.93-12.05 1.92-24.66 3.06-36.86 3.43a273.4 273.4 0 0 1-128.93-23.03 301.57 301.57 0 0 1-155.22-158.47c-10.92-25.33-18.32-52.13-27.53-78.12-9.72-27.41-20.81-54.03-31.38-81.08 17.3-11.21 32.03-27.97 45.44-43.48M289.024 794.029c4.237 4.258 11.554 23.683 14.822 30.125 6.009 11.844 12.462 24.193 20.096 35.069a402.46 402.46 0 0 0 262.093 166.007c-68.349 6.76-144.311 46.61-195.908 91.19-15.613 13.49-29.514 28.55-42.925 44.2-24.267 28.4-41.382 60.15-56.158 94.3-43.124-24.69-82.868-61.43-108.64-104.11-32.919-54.52-45.067-118.37-29.475-180.605 18.704-74.656 70.757-137.018 136.095-176.176m713.666-647.622c24.97-3.971 59.45 1.171 83.67 7.937 69.57 19.437 130.93 74.664 165.93 136.822-10.23 5.434-20.68 10.454-30.85 16.002-77.56 42.335-138.45 112.428-173.04 193.462-8.51 19.939-14.85 40.837-20.96 61.617-1.98 7.154-3.13 14.679-4.56 21.971-4.48-35.408-13.99-67.821-28.275-100.44-35.719-81.538-119.536-162.289-202.364-194.616 7.008-13.347 16.059-26.008 25.606-37.644 46.735-56.963 110.571-97.71 184.843-105.111"/><path d="M1372.95 564.075c16.47 12.016 35.9 25.023 57.05 25.465 6.8.142 13.61-1.199 20.33-2.085 9.15-1.205 20.13-.978 28.88 2.177-.06 1.797 1.16 2.467 2.28 3.797 3.07 2.332 5.44 4.431 5.78 8.593.3 3.561-1.34 6.928-3.92 9.311-.97.902-2.09 1.629-3.19 2.373-19.19 8.042-34.81-.843-51.14 12.851-10.44 5.143-20.62 16.774-24.25 27.682-5.29 15.887 1.48 31.646 8.82 45.566 5.9 11.179 12.7 21.927 17.21 33.776 11.15 29.235 10.6 68.133 1.67 97.828a139 139 0 0 1-15.06 33.238c-14.14 22.816-32.39 43.07-48.53 64.454-19.67 26.066-37.44 53.809-59.96 77.579-14.41 15.21-30.17 29.02-45.35 43.43-20.64 19.59-40.93 40.47-59.19 62.28-10.41 12.43-20.84 26.13-29.5 39.84-13 20.62-16.76 32.07-35.17 50.26-7.13 6.19-15.96 16.52-25.31 18.61l-2.6-.78-.77-1.68c1.8-3.4 4.79-5.87 7.49-8.56 10.14-10.11 19.74-18.74 24.67-32.55-7.59 6.02-35.75 32.66-36.92 41.59-.27 2.02.99 4.04 2.04 5.7-4.99-.89-9.5-3.13-14.12-5.14l-12.94 17.98-.7-1.87c.38-2.35.62-4.37.52-6.77-1.13-.7-2.22-1.33-3.43-1.9-.36-.17-.72-.33-1.08-.49l.52-.98c-1.13-.62-1.89-.98-2.92-1.78-2.08-1.63-3.41-3.91-3.52-6.6-.14-3.9 1.88-5.96 4.47-8.42l-.06-.94-1.15-2.22-3.87-1.08c1.44-8.43 14.27-17.9 20.02-24.27l-3.55-2.98 3.56-5.03c-3.18 1.86-5.18 3.4-8.91 2.72-1.85-1.65-3.38-2.83-3.57-5.47-.65-9.06 16.55-19.78 22.06-26.21.29-.34.58-.69.87-1.04-4.29-2.28-8.84-2.12-13.44-3.38 2.36-.69 4.56-1.19 7-1.55 8.6-1.69 16.33-5.58 24.56-8.42 9.58-3.31 20.13-5.65 29.09-10.39 18.82-9.96 45.35-45.83 57.59-64.03 21.95-32.63 38.01-67.954 55.51-102.979 15.8-31.618 32.16-62.423 46.8-94.637 2.32-5.086 4.4-10.561 7.27-15.344 2.23-3.723 10.04-9.844 10.61-13.404l-1.88-.837c-3.67 1.581-5.83 5.473-8.13 8.606-.09-4.859-1.04-13.006-5.47-16.112-.45-.317-1-.465-1.5-.698-2.39.937-2.75 1.56-4.38 3.595.86 3.094 4.95 2.966 5.2 5.509.71 7.141-10.91 34.938-14.27 42.714-14.13 6.981-27.27 18.329-40.13 27.543-35.63 25.528-65.65 52.312-90.7 88.659-18.77 27.245-34.67 56.365-53.85 83.395a694.5 694.5 0 0 1-81.99 95.37c-40.19 39.26-85.777 74.19-130.986 107.46-12.374 9.11-41.163 24.62-49.893 33.85-7.54 7.97-11.968 20.54-17.11 30.23-6.522 12.28-13.383 24.74-21.241 36.23-13.078 19.1-28.398 37.88-45.337 53.75-6.589 6.17-14.973 11.2-21.108 17.67-6.756 5.4-13.428 10.81-20.684 15.55-4.238 2.27-13.648 6.84-16.166 10.6-10.751 6.14-20.973 13.14-31.735 19.27-19.893 11.33-86.553 44-92.384 63.79-4.462 15.14 9.059 39.17-8.056 48.91-10.926 6.22-25.364-2.37-37.688 2.77-30.802 12.85-49.752 43.33-83.162 50.28a106.4 106.4 0 0 1-20.528-.16c-15.981-1.7-33.95-5.54-44.433-18.55 14.912-31.46 93.517-66.07 125.282-85.9 25.87-16.15 52.139-34.32 75.097-54.46 21.677-19.01 39.71-40.9 57.838-63.2a3251 3251 0 0 0 64.585-82.43c17.08-22.09 36.177-43.34 51.997-66.31 18.048-26.2 33.438-54.01 52.198-79.83l58.741-80.68c21.722-29.62 52.863-68.47 66.068-102.27 3.508-8.99 13.957-39.787 10.273-48.349l-2.258-.407c-2.059 1.817-9.226 35.056-11.723 41.736-9.357 25.03-25.244 47.64-40.799 69.19-11.866 16.43-23.917 36.71-38.002 50.93-8.992 9.08-21.038 15.28-31.95 21.72a723 723 0 0 1-69.679 36.88c-13.935 6.27-28.374 11.3-42.265 17.58-4.844 8.53-8.145 18.36-12.158 27.34-9.033 20.22-20.091 40.96-33.738 58.44-43.225 55.36-109.526 88.39-150.947 145.32-16.313 22.43-3.989 40.31-14.184 56.08-3.666 5.67-10.476 9.59-17.029 10.81-15.973 3-27.661-9.96-39.804-17.87-10.108.36-20.306 2.67-30.425 3.51-25.329 2.11-52.514-.87-77.085-7.18-8.219-2.11-21.925-5.76-26.449-13.4.075-.26.112-.53.226-.77 1.647-3.57 7.675-5.48 11.179-6.34 10.16-2.5 21.35-2.33 31.749-3.56 19.791-2.35 40.649-7.3 59.278-14.26 23.243-8.7 47.487-20.69 65.919-37.42 21.227-19.27 43.451-55.15 60.054-79.59 17.136-25.22 35.486-49.46 52.142-75.05 22.338-34.32 42.923-70.09 67.472-102.9 23.806-31.82 67.28-73.11 96.367-100.55 38.163-35.99 75.478-71.977 117.922-102.995 17.452-12.754 35.15-25.636 53.231-37.473 15.891-10.404 32.621-18.654 46.465-31.942 22.771-21.855 43.803-45.613 65.943-68.128 23.48-23.881 49.06-47.146 70.41-72.916 12.62-15.235 22.49-32.388 33.59-48.704a245.8 245.8 0 0 1 36.38-42.602c19.71-18.651 42-33.416 64.39-48.593 4.72-3.198 21.57-12.915 23.37-16.814l-2.34-.767c-10.63 1.377-22.99 11.596-31.88 17.357-34.41 22.283-67.48 48.401-91.28 82.198-12.61 17.903-22.89 36.925-36.99 53.842-20.27 24.305-43.96 46.89-66.26 69.385-23.13 23.347-50.86 39.227-80.395 53.193-10.214 4.829-22.097 8.93-31.653 14.787-7.505 4.6-13.814 11.745-20.784 17.169-5.284 4.112-11.432 7.102-17.028 10.77-9.126 5.984-17.545 14.886-24.483 23.251-7.505 9.048-12.721 19.76-20.514 28.586l-.909 1.015 2.31 4.232 3.476-1.683.851.785c-1.395 2.905-2.873 4.858-5.066 7.21-7.528-2.513-16.203-6.243-24.085-3.789-2.018.628-3.472 1.042-5.633 1.025l-.253-.932c-3.231-1.067-4.539-2.188-6.752-4.743.076-2.022.44-1.65-1.046-3.319-2.499-2.284-4.624-4.013-5.873-7.268 1.742-16.822 5.17-31.922 13.46-46.748.746 1.331.985 1.07.653 2.295-.394 1.455-.853 1.843-1.71 2.987-8.195 10.927-7.483 27.931-10.186 40.504.718 2.112 1.57 3.405 2.962 5.142 2.443-4.716.318-15.123 1.007-20.802.945-7.786 5.096-18.899 8.57-25.888l.989 2.043c2.947-4.551 4.665-10.232 8.236-14.336 9.393-10.795 72.985-33.448 91.37-42.934 21.674-11.183 43.376-24.057 63.359-38.064 15.663-10.98 30.257-23.48 45.467-35.069 19.98-15.225 40.34-29.312 58.5-46.808 19.51-18.79 37.36-39.054 56.3-58.377 18-18.363 37.06-35.724 55.95-53.169 11.21-10.356 22.21-22.616 35.42-30.413 6.23-3.676 12.92-6.421 20.2-6.921 26.61-1.828 52.39 20.031 71.1 36.456 2.37.178 3.31.503 5.21 1.939 13.05-7.826 28.35-22.486 36.72-35.23 3.72-5.671 5.3-8.983 3.93-15.697l.06-1.012c1.99-.468 2.88-1.011 4.41-2.36"/><path fill="#FDEDA5" d="M1349.58 878.36c2.08.47 3.25 1.215 4.97 2.457.83 3.102.26 4.05-.65 7.064-2.02-.163-2.81-.771-4.39-2-1.13-2.852-.59-4.67.07-7.521m-202.08-13.7c2.08.864 3.22 1.714 4.81 3.297.32 2.905-.43 3.749-1.7 6.323-2.87-1.089-4.15-1.649-5.87-4.211.41-2.702 1.02-3.24 2.76-5.409"/><path fill="#F5D894" d="M1262.39 823.386c3 .386 3.9.35 6.38 2.219.24 3.205-.42 4.175-1.72 7.042-2.18-.561-3.26-1.223-4.98-2.665-1.04-2.567-.37-4.035.32-6.596"/><path fill="#FDEDA5" d="M1091.76 969.27c2.54.477 3.63.865 5.54 2.626.59 2.929.06 3.941-.82 6.737-2.57-.378-3.82-.677-5.86-2.315-.54-3.157.05-4.105 1.14-7.048m194.83-248.973c2.98.452 3.81.506 6.18 2.304.86 2.923.05 4.65-.95 7.365-2.5-.684-3.86-1.335-5.86-2.985-.68-2.827-.14-3.926.63-6.684M1043.56 1082.3c3.24.58 4.79.92 7.18 3.23.63 2.97-.17 4.49-1.36 7.11-2.59-.49-3.87-.96-5.93-2.62-1.27-3-.68-4.74.11-7.72"/><path fill="#F5D894" d="M473.81 1468.62c2.822 1.4 3.837 1.55 5.431 4.35-.261 3.08-1.796 4.61-3.678 6.88-2.455-1.63-3.683-2.5-5.15-5.17.479-3.14 1.356-3.72 3.397-6.06"/><path fill="#FDEDA5" d="M927.596 1192.33c2.98.23 4.653.67 6.915 2.68.357 3.35-.291 4.21-1.659 7.2-2.771-.42-3.931-.83-6.064-2.66-.696-3.31-.245-4.1.808-7.22m-189.012 189c.344.01.688-.01 1.031.02 3.044.2 4.365.94 6.234 3.17.422 3.06-.42 4.25-1.822 6.86-2.817-.55-4.116-.71-6.205-2.84-.906-2.98-.285-4.45.762-7.21m-192.641 194.26c2.998.44 4.391.72 6.617 2.79.011 3.38-.769 4.27-2.416 7.14-2.845-.64-4.231-.91-6.428-2.98-.236-3.3.64-4.13 2.227-6.95m138.622-145.98c3.181.31 4.523.16 7.182 2.03 1.177 2.96.422 5.1-.298 8.05-2.974-.44-5.002-.59-7.308-2.74-1.083-2.92-.466-4.52.424-7.34m304.763-347.2c3.005.1 5.516.33 7.693 2.57.99 3 .31 4.8-.57 7.68-2.985-.42-4.984-.52-7.23-2.77-1.174-2.87-.609-4.62.107-7.48m181.142-276.076c3.18.86 5.6 1.357 7.71 4.101.23 3.246-.51 4.199-1.91 7.068-1.15-.059-3.14-.007-4.29-.404-2.71-.937-3.14-1.578-4.32-3.961.18-3.118 1.1-4.319 2.81-6.804M696.782 1164.32c.952.21 2.373.49 3.235.88 2.394 1.11 2.928 1.97 3.874 4.22-.337 3.26-1.745 4.79-3.73 7.22-.338-.11-.682-.2-1.014-.32-3.077-1.14-4.453-2.32-5.845-5.27.306-3.11 1.555-4.45 3.48-6.73m721.178-391.971c.32.107.65.198.96.32 3.03 1.17 4.41 2.31 5.72 5.272-.42 3.054-1.65 4.504-3.51 6.809-.86-.126-1.88-.226-2.68-.586-2.67-1.198-3.19-2.185-4.29-4.664.74-3.666 1.47-4.371 3.8-7.151M802.053 1276.47c.825.08 1.765.14 2.551.4 2.744.92 3.295 1.72 4.783 4.02.341 3.22-.52 5.08-1.778 7.93-.871-.13-1.749-.23-2.608-.43-3.04-.68-4.117-1.96-5.681-4.41.161-3.63.882-4.49 2.733-7.51M1382.7 829.494c1.84.205 4.2.569 5.76 1.598 1.81 1.187 2.79 3.158 2.77 5.3-.03 3.084-2.12 5.282-4.04 7.41-1.16-.426-2.36-.827-3.44-1.435-2.34-1.315-3.59-2.757-4.43-5.319.19-3.485 1.23-4.871 3.38-7.554"/><path fill="#F5D894" d="M987.585 1139.62c2.307.28 5.007.61 6.967 1.98 2.251 1.58 2.326 2.78 2.681 5.25-1.035 3.09-2.349 4.2-4.785 6.15-1.729-.37-3.746-.67-5.345-1.42-2.357-1.11-2.952-2.68-3.741-4.98.649-3.4 1.873-4.66 4.223-6.98"/><path fill="#FDEDA5" d="M1304.81 679.46c1.63.275 3.75.54 5.21 1.394 1.94 1.135 3.28 3.017 3.48 5.275.28 3.137-1.76 5.682-3.5 8.045-2.25-.109-4.56-.406-6.41-1.824-1.95-1.484-2.9-3.349-2.91-5.785 0-3.041 2.19-5.08 4.13-7.105m17.81-63.025c2.37.178 3.31.503 5.21 1.939-6.56 5.517-13.94 11.085-23.01 10.674-2.5-.112-2.13-.447-3.69-2.153l-.1.648c2.9-5.952 8.6-4.061 13.77-6.1 2.71-1.069 5.43-3.306 7.82-5.008m-64.57 49.127c2.41.102 4.79.292 6.85 1.723 1.8 1.247 2.87 2.937 2.95 5.143.12 3.119-2.12 5.326-4.05 7.454-2.49.077-5.05.174-7.23-1.335-1.89-1.315-2.62-3.199-2.59-5.457.04-3.075 2.2-5.351 4.07-7.528m-56.25 37.288c2.32-.223 5-.543 7.18.555 1.28.645 2.48 1.783 3.02 3.114 1.58 3.876-.08 7.276-1.78 10.742-1.72-.005-3.38-.02-5.05-.499-2.25-.645-4.45-2.194-5.32-4.451-1.33-3.46.3-6.53 1.95-9.461m-111.74 469.48c4.27-4.19 13.47-15.52 18.73-16.25l1.44 1.09c-1.79 7.75-14.96 16.71-20.18 23.17l-3.55-2.98zM1257 712.507c2.44.448 4.89 1.02 6.72 2.846 1.68 1.666 2.42 3.737 2.12 6.08-.39 3.152-2.73 4.905-5.02 6.731-2.71-.227-5.11-.508-7.17-2.59-1.64-1.661-1.99-3.749-1.7-5.992.39-3.134 2.87-5.095 5.05-7.075m89.92-50.675c2.72.011 5.71-.054 7.91 1.843 1.96 1.69 2.74 3.66 2.61 6.23-.17 3.115-2.21 5.238-4.2 7.38-2.73-.114-5.34-.132-7.56-2.037-1.95-1.674-2.89-3.603-2.86-6.181.02-3.135 2.09-5.154 4.1-7.235"/><path fill="#F5D894" d="M1203.97 753.61c3.93.264 7.34 1.284 9.71 4.607 1.43 1.994 1.81 4.38 1.17 6.734-.91 3.318-3.13 4.688-5.87 6.442-2.38-.333-5.03-.621-6.99-2.166-2.05-1.61-3.37-3.263-3.49-5.963-.2-4.496 2.44-6.867 5.47-9.654m-133.94 451c.58-.13 1.17-.23 1.76-.38 16.16-3.91 39.93-36.5 45.94-37.45l1.19 1.21c-1.17 8.17-30.94 34.01-38.25 42.1-2.42-1.7-2.57-1.47-5.56-1.24l-.06-.94-1.15-2.22zm30.48-62.28c7.23-7.01 12.52-8.47 22.3-10-7.79 6.11-36.12 25.97-37.82 35.35 1.31.94 2.61 1.76 4.01 2.55l1.06 2.1c-3.18 1.86-5.18 3.4-8.91 2.72-1.85-1.65-3.38-2.83-3.57-5.47-.65-9.06 16.55-19.78 22.06-26.21.29-.34.58-.69.87-1.04"/><path fill="#FDEDA5" d="M1080.67 1210.09c-1.56 2.51-3.24 4.86-4.03 7.74l1.09 1.57-1.06-1.07 1.88 1.15c15.81-6.75 40.56-41.9 50.64-44.47-.24 8.17-27.35 35.44-34.64 42.22-5.48 5.1-10.45 6.55-17.47 8.42-1.13-.62-1.89-.98-2.92-1.78-2.08-1.63-3.41-3.91-3.52-6.6-.14-3.9 1.88-5.96 4.47-8.42 2.99-.23 3.14-.46 5.56 1.24M868.662 875.077l.943.968c-2.702 4.298-20.653 11.146-26.087 15.204-16.017 11.963-23.553 30.131-26.364 49.404 4.242-11.18 9.861-27.995 17.842-36.756l1.205.22c.804 4.262-3.172 9.832-5.245 13.312-5.68 9.38-8.921 19.074-13.914 28.625-.976 1.868-1.197 3.293-3.232 3.961-.652-.796-1.169-1.322-1.557-2.34-2.822-7.414 3.739-30.073 7.187-37.529 9.462-20.455 29.377-27.62 49.222-35.069m504.288-311.002c16.47 12.016 35.9 25.023 57.05 25.465 6.8.142 13.61-1.199 20.33-2.085 9.15-1.205 20.13-.978 28.88 2.177-.06 1.797 1.16 2.467 2.28 3.797-3.34-.652-6.73-1.081-10.09-1.573 4.43 3.51 7.78 5.805 8.77 11.632-.31 1.151-.56 2.451-1.03 3.544-.56 1.324-1.13 2.518-2.06 3.63-3.49 4.171-8.2 5.506-13.49 5.736-6.51.282-14.29-1.413-19.09-6.079-2.32-2.249-3.5-4.998-3.4-8.245.1-3.455 2.85-5.738 5.1-8.037-32.24 3.189-52.54-7.152-77.72-26.59l.06-1.012c1.99-.468 2.88-1.011 4.41-2.36"/><path d="M1474.64 608.212c-2.66 2.484-4.91 4.489-8.69 4.945-5.64.679-11.38-.332-15.82-4.026-2.58-2.142-3.56-4.266-3.98-7.603.68-2.746 1.26-4.053 3.52-5.848 5.36-4.261 14.17-4.458 20.65-3.915l1.08.091c4.43 3.51 7.78 5.805 8.77 11.632-.31 1.151-.56 2.451-1.03 3.544l-2.87-.294z"/><path fill="#F5D894" d="m1470.32 591.765 1.08.091c4.43 3.51 7.78 5.805 8.77 11.632-.31 1.151-.56 2.451-1.03 3.544l-2.87-.294-1.63 1.474c-3.22-.568-7.57-.778-10.01-3.032-.42-3.77 3.83-9.797 5.69-13.415"/><path fill="#FDEDA5" d="M821.902 948.949c3.11-18.334 20.788-44.995 36.27-55.918 8.848-6.243 25.357-13.996 36.033-15.018l1.153.692c-13.6 22.057-47.341 5.296-58.61 59.291-1.114 5.339-4.169 11.769-3.867 17.078l1.091 1.158c3.547-4.206 4.908-14.085 7.028-19.508 6.364-16.28 20.976-31.654 34.206-42.906-6.144 19.967-33.676 47.081-35.353 61.758 2.265.143 1.205.349 3.191-.557l2.31 4.232 3.476-1.683.851.785c-1.395 2.905-2.873 4.858-5.066 7.21-7.528-2.513-16.203-6.243-24.085-3.789-2.018.628-3.472 1.042-5.633 1.025l-.253-.932c-3.231-1.067-4.539-2.188-6.752-4.743.076-2.022.44-1.65-1.046-3.319-2.499-2.284-4.624-4.013-5.873-7.268 1.742-16.822 5.17-31.922 13.46-46.748.746 1.331.985 1.07.653 2.295-.394 1.455-.853 1.843-1.71 2.987-8.195 10.927-7.483 27.931-10.186 40.504.718 2.112 1.57 3.405 2.962 5.142 2.443-4.716.318-15.123 1.007-20.802.945-7.786 5.096-18.899 8.57-25.888l.989 2.043c-4.003 9.253-11.991 34.265-8.261 43.739.871 2.211 1.49 2.45 3.445 3.59 3.613.078 6.548-.748 9.115-3.388.321-.331.59-.708.885-1.062"/><path d="M814.644 961.867c5.094-3.235 7.51-8.163 12.048-11.37.941 3.629 2.095 6.908 5.523 8.92 3.683 2.161 8.284 1.655 12.12.258.345-.126.679-.283 1.019-.424l3.476-1.683.851.785c-1.395 2.905-2.873 4.858-5.066 7.21-7.528-2.513-16.203-6.243-24.085-3.789-2.018.628-3.472 1.042-5.633 1.025z"/></svg>