<svg xmlns="http://www.w3.org/2000/svg" style="display:block" viewBox="0 0 2048 2048"><defs><linearGradient id="a" x1="1781.81" x2="1799.19" y1="394.084" y2="392.845" gradientUnits="userSpaceOnUse"><stop class="stop0" offset="0" stop-color="#261B0E"/><stop class="stop1" offset="1" stop-color="#2B2A1F"/></linearGradient><linearGradient id="b" x1="1551.15" x2="1544.13" y1="1135.1" y2="1130.1" gradientUnits="userSpaceOnUse"><stop class="stop0" offset="0" stop-color="#313014"/><stop class="stop1" offset="1" stop-color="#2B2419"/></linearGradient></defs><path fill="#EFDD91" d="M0 0h2048v2048H0z"/><path fill="#353433" d="m44.265 49.341 1959.965.149-.11 1948.53-1.14 1.18c-18.97 2.36-41.59.54-60.92.54l-124.29-.1-404.31.18-1369.135-.34z"/><path fill="#EFDD91" d="m178.309 77.491 1237.511-.356 336.94.005c73.97-.027 148-.485 221.96.52l.24 1892.64c-31.26 2.48-69.66.26-101.43 0l-1174.967.5-406.285.09c-72.384-.04-144.942.97-217.307-.41-.704-26.51-.078-53.23-.069-79.76l-.045-156.09.077-542.42-.096-704.679.091-267.08a13499 13499 0 0 1-.072-142.387c34.278-1.584 69.111-.496 103.452-.573"/><path fill="#353433" d="m1620.52 85.494 345.44-.208.66 1876.944-1536.12.12-347.391.26.077-1876.671z"/><path fill="#EFDD91" d="M1919.29 111.551c7.21-.451 14.44-.387 21.67-.403l-.02 1824.372c-51.48-1.09-102.98-.22-154.46-.39l-430.42.12-1224.895.2-20.195-.04-.006-1822.873c89.448 1.117 179.002-.343 268.466-.248l782.82-.66 564.73-.062c64.02-.364 128.34 2.139 192.31-.016"/><path fill="#332F19" d="M1674.63 945.085c1.26 1.921 1.87 2.635 2.11 4.971-2.72 4.034-5.31 8.52-8.53 12.156-.57-.07-1.03-.476-1.53-.755l1.87-3.391c-1.26.839-2.28 2.024-3.36 3.09l-1.66-.305c3.42-5.461 7.27-10.589 11.1-15.766m236.6 972.845 1.45-3.01c3.57.16 6.34 1.91 8.71 4.52 1.37 1.53 1.92 2.76 2.35 4.79-1.49 1.24-2.56.94-4.47.8-3.83-.29-6.65-3.59-9.3-6.07zM1557.35 599.227c7.23 3.247 16.57 6.475 22.82 11.254l-1.38.707-8.93-3.928-.44.399c2.67 1.973 5.21 3.229 8.23 4.603 1.77.807 1.03.43 2.81 1.549l.17 1.739a643 643 0 0 1-21.76-10.632z"/><path fill="#050504" d="M1548.58 1312.9a3265 3265 0 0 1 38.39-.27l-1.44 2.85-3.52.76c-9.93-1.5-25.15 3.05-33.43-3.34"/><path fill="#2B2515" d="M1868.42 1326.6c-12.93-.32-25.86.13-38.78.43l-.57 2.84-2.42-3.23.02.1c6.77-1.54 14-1.28 20.93-1.86 8.46-.71 16.78-2.11 25.15-3.55l6 3.43-.03.72c-3.45.16-6.98.11-10.3 1.12"/><path fill="#332F19" d="M1438.07 556.39c8.34 1.927 16.93 4.035 24.95 7.018-2.27 2.2-2.77 2.55-5.82 3.359-7.33-2.267-14.68-4.27-22.12-6.145 1.8-1.29 2.22-2.177 2.99-4.232m353.71 1275.35c.78 9.1.55 18.27.53 27.4-.42 10.57-2.25 50.74 1.58 58.26l.81-.57c.77-10.43.96-20.71 2.15-31.14.38 10.35 1.94 27.71-.15 37.41-1.7 1.86-1.54 1.9-4.03 2.09-3.42-4.51-1.83-82.06-.89-93.45"/><path fill="#2B2515" d="M1698.65 910.112c.38 2.832.59 5.137.13 8.003-6.93 10.311-13.75 22.75-22.04 31.941-.24-2.336-.85-3.05-2.11-4.971 4.72-10.44 17.02-25.212 24.02-34.973"/><path fill="#332F19" d="M1285.06 933.93c2.43 16.109 4.1 32.845 5.25 49.097l-.65.106c-.15-.139-.31-.272-.45-.417-1.39-1.404-2.55-2.028-4.35-2.871a651 651 0 0 1-3.58-34.696c.73-.453 1.16-.678 1.82-1.297 2.08-1.956 1.79-7.127 1.96-9.922m140.36 374.09 3.34 4.06c4.52 1.98 11.74 1.06 16.7 1.08-3.68.22-8.86-.03-11.82 2.29 11.04 4.01 29.4.09 41.67 1.72-15.6 1.12-31.46-.66-46.98.79l-3.72 3.17-.97-.08-2.79-3.07c-15.94-1.45-32.28.33-48.31-.82 7.33-1.03 39.76.96 42.79-1.19l-2.64-2.94c2.49-.02 4.12-.09 6.49-1.01l3.76-3.08z"/><path fill="#2B2515" d="M1435.08 560.622c-7.45-1.732-46.99-9.055-50.58-12.005l.77-1.26c10.17-4.015 41.29 5.568 52.8 9.033-.77 2.055-1.19 2.942-2.99 4.232"/><path fill="#332F19" d="m1739.68 730.923.76-2.243-1.64-2.483.58-1.862c10.75 9.612 21.23 20.087 30.8 30.878 5.66 6.394 10.89 13.902 17.27 19.553-1.69 1.037-3.14 1.969-4.55 3.375-13.6-16.78-28.43-31.563-43.22-47.218"/><path fill="#353433" d="m1791.78 1831.74 4.66.32c1.92 17.42.61 36.08.41 53.63-1.19 10.43-1.38 20.71-2.15 31.14l-.81.57c-3.83-7.52-2-47.69-1.58-58.26.02-9.13.25-18.3-.53-27.4"/><path fill="#050504" d="m1791.78 1831.74 4.66.32c-.04.35-.09.69-.14 1.03-.98 7.92.12 15.79-.58 23.67l-.11-3.05-2.04 1.24 1.83 1.14-1.62-3.74c-.55 2.26-1.08 4.49-1.47 6.79.02-9.13.25-18.3-.53-27.4"/><path fill="#2B2515" d="m1782.84 788.884 1.41 1.296c-8.06 12.855-25.14 43.427-34.6 52.791-10.43 4.449-14.76 22.111-21.48 30.235l-2.03-1.12.29.261c.27-.533.54-1.069.82-1.598 4.01-7.609 13.16-15.079 14.29-23.802 3.3-9.799 33.25-50.586 41.3-58.063"/><path fill="#332F19" d="M1741.54 846.947c-1.13 8.723-10.28 16.193-14.29 23.802-.28.529-.55 1.065-.82 1.598l-.29-.261 2.03 1.12c6.72-8.124 11.05-25.786 21.48-30.235-14.63 25.938-33.9 50.582-50.87 75.144.46-2.866.25-5.171-.13-8.003 6.99-11.701 15.23-22.928 22.87-34.233 6.51-9.621 12.73-19.92 20.02-28.932"/><path fill="#2B2515" d="M1912.48 1796.16c6.07-1.18 14.14-3.64 20.2-1.68-3.81 4.8-17.6 5.78-23.28 6.68a667 667 0 0 1-55.49 7.69c-8 .8-18.46 2.94-26.3 1.12l-.28-1.44c4.79-3.93 15.45-3.17 21.51-3.58a1120 1120 0 0 0 63.64-8.79m-467.02-483a6828 6828 0 0 1 68.79-.53c11.11-.05 23.33-.99 34.33.27 8.28 6.39 23.5 1.84 33.43 3.34l-.22.7c-35.45.16-71.04.96-106.48.23-12.27-1.63-30.63 2.29-41.67-1.72 2.96-2.32 8.14-2.07 11.82-2.29m17.56-749.752c19.05 5.211 79.94 25.508 94.33 35.819l1.52 5.691a886 886 0 0 0-101.67-38.151c3.05-.809 3.55-1.159 5.82-3.359"/><path fill="#353433" d="M1790.08 1782.01c2.51.17 5.3.3 7.68 1.14 4.02 1.43 7.63 4.95 9.23 8.88a12.77 12.77 0 0 1-.12 9.97c-2.09 4.8-5.98 6.75-10.58 8.69-2.41-.1-4.97-.21-7.32-.78-3.77-.92-7.4-3.98-9.25-7.35-1.88-3.42-2.11-7.35-.74-10.98 2.02-5.31 6.16-7.43 11.1-9.57m122.59-468.96 20.22-2.97c.16 6.03.73 12.25-.47 18.19-.81.5-1.62 1.09-2.5 1.44-15.42-5.1-44.36-3.03-61.5-3.11 3.32-1.01 6.85-.96 10.3-1.12l.03-.72-6-3.43c13.33-2.39 26.85-4.71 39.92-8.28"/><path fill="#332F19" d="M1909.97 1918.96c-1.55-.98-2.98-1.92-4.42-3.04-16.69-13.05-31.24-29.4-46.51-44.1-13.27-12.78-28.61-25.42-40.43-39.42-1.69-1.99-2.84-3.59-3.19-6.24l1.32-1.46c1.15.31 1.48.33 2.61 1.06 3.84 2.5 7.96 7.71 11.42 10.96 15.9 14.95 31.31 30.35 47.06 45.44 9.41 9.02 24.76 20.32 32.07 30.01.13 1.71.22 3.08.85 4.7.15.36.32.71.48 1.06z"/><path fill="#2B2515" d="m1810.51 759.37 3.07 2.507c-.98 1.61-1.76 3.232-2.58 4.928 9.17 2.016 19.74 1.444 29.21 1.9 18.84.907 84.25 3.088 98.21 10.872-2.95.994-5.44 1.731-8.57 1.742-11.43.041-23.32-1.816-34.72-2.855-31.65-2.887-64.56-6.946-96.3-5.245 3.66-4.787 7.74-9.283 11.68-13.849"/><path fill="#332F19" d="M1300.14 1774.78c5.34 36.09 11.79 70.99 21.92 106.08 4.26 14.72 11.16 29.7 14.81 44.11l-1.58 1.13c-8.29-4.83-21.71-54.32-24.94-66.56-6.89-26.13-13.11-54.82-14.61-81.83 1.6 3.48 2.34 6.66 3.04 10.42 1-4.3.29-8.2 1.17-12.49.06-.29.13-.57.19-.86"/><path fill="#2B2515" d="M1589.11 769.445c28.35-2.601 154.32-8.66 176.29 3.865l-.09 1.006c-10.9 2.836-36.06-1.781-48.29-2.593a854 854 0 0 0-40.26-1.677 784 784 0 0 0-83.97 3.394l-3.7-1.201 1.71.314.17-.507 5.87-.808c-1.51-1.51-4.9-.369-7.73-1.793m180.67 1054.285c1.18.75 2.15 1.54 3.21 2.44-.23.55-.37 1.15-.69 1.66-7.63 12.26-101.88 93.94-115.68 99.25l-3.04-1.65c6.41-8.14 36.7-30.33 46.47-38.64 23.89-20.31 46.75-41.74 69.73-63.06"/><path fill="#332F19" d="M1810.51 759.37a964 964 0 0 1 92.88-93.861c8.99-8.076 17.85-17.298 27.78-24.133 1.37 2.032.89 3.499.84 5.879-3.05 5.657-27.92 25.035-34.07 30.622-27.39 24.87-51.41 52.533-77.59 78.486-1.97 1.956-4.13 4.642-6.77 5.514z"/><path fill="#353433" d="M1826.6 1321.27c4.27-3.49 23.79-7.28 29.99-9.3 25.38-8.27 52-17.79 76.18-29.06l-.01 21.77a595 595 0 0 0-13.31 2.25c-20.95 1.87-43.25 5-63.97 8.69-9.61 1.71-19.21 4.39-28.88 5.65m105.16 58.8c-14.03-7.86-85.48-36.88-101.72-39.3-.51-.08-1.04 0-1.56 0l.7-1.16c-.41-.08-.83-.16-1.24-.25s-.81-.2-1.22-.3c23.9 6.39 48.68 10.27 73.11 14.02 9 1.38 18.76 3.63 27.84 3.71.27 0 .54-.01.81-.01 1.38.36 2.91.22 3.55 1.64 2.14 4.83 1.19 16.54-.27 21.65m-1.92-48.21 2.4.93c1.2 5.47 2.25 15.93-.39 20.84-.77-.08-2.08-.09-2.79-.35-9.88-3.39-20.89-5.06-31.1-7.28-14.37-3.11-28.86-6.67-43.4-8.85-10.3-1.54-21.18-1.4-31.2-4.35 13.57.08 27.13 1.17 40.7 1.31 21.78.21 44.07-.62 65.78-2.25"/><path fill="#2B2515" d="m1580.63 615.55-.17-1.739c-1.78-1.119-1.04-.742-2.81-1.549-3.02-1.374-5.56-2.63-8.23-4.603l.44-.399 8.93 3.928 1.38-.707c11.69 4.916 22.87 11.663 33.85 17.997a588.4 588.4 0 0 1 105.78 76.731c6.2 5.544 15.03 12.254 19.58 19.126l-.58 1.862 1.64 2.483-.76 2.243c-32.86-30.789-65.89-58.534-103.82-83.048-12.35-7.98-25.51-14.937-38.3-22.183-5.54-3.134-12.07-6.089-16.93-10.142"/><path fill="#332F19" d="M1931.48 1615.7c1.13 1.64 1.34 1.96 1.42 3.98.38 9.8-11.3 23.59-16.69 31.64a882 882 0 0 1-98.03 123.01c-.59-.83-1.93-2.4-2.29-3.43-.06-.17-.44-1.79-.23-2.17 1.94-3.55 23.5-25.64 27.79-30.57a856.5 856.5 0 0 0 88.03-122.46"/><path fill="#353433" d="M1789.13 574.538c1.37-5.14 1.01-11.26 1.22-16.584l.27 11.021c.77.871 1.51 1.726 2.2 2.668q.27.374.54.752l.99-2.101c1.61 39.726.44 79.957.27 119.733l-.37 45.375c-.06 5.77.57 12.133-.01 17.81-.28 2.769-1.54 4.073-3.31 6.027l-1.56.087c-1.97-6.796-1.85-169.073-.24-184.788"/><path fill="#050504" d="M1791.24 1528.28c1.7.2 2.85.58 4.4 1.31.61 1.06.84 1.31 1.09 2.68.79 4.34-.31 11.2-.31 15.83l.02 53.85-.1 102.07c.04 19.99 1.08 40.64-.52 60.53-1.56-.66-2.93-1.39-4.39-2.21-.95-37.02.14-74.3.1-111.35-.04-40.87-1.09-81.85-.29-122.71"/><path fill="#353433" d="M1738.06 1503.46c51.25 13.37 105.85 8.18 152.04-18.84a209 209 0 0 0 19.17-12.62c6.04-4.49 16.12-14.94 22.54-17.27 1.05 2.39 1.08 2.78-.02 5.35-1.69 3.96-7.26 7.95-10.6 10.66-21.65 17.57-46.42 31.17-73.39 38.53-37.52 10.25-74.71 8.97-112.03-1.27z"/><path fill="#332F19" d="M1787.45 774.766c2.5.09 6.95-.399 8.68 1.265l-1.57 3.735c7.32 10.377 17.13 19.823 25.12 29.845 16.1 20.206 31.42 41.326 46.83 62.076a2638 2638 0 0 1 41.36 58.453c8.26 12.213 16.08 24.982 24.92 36.769l.12 12.66c-26.72-45.575-59.18-88.07-91.1-130.089-16.79-22.103-32.52-44.661-51.76-64.746l-5.8 5.446-1.41-1.296c1.31-1.414 2.53-2.92 3.78-4.388-.15-3.352-1.49-3.945-3.72-6.355 1.41-1.406 2.86-2.338 4.55-3.375"/><path fill="url(#a)" d="M1789.13 574.538c-.81-20.227-.16-40.685-.19-60.948l-.33-116.593a4693 4693 0 0 1 .02-84.39c.08-11.549-1.04-24.219.47-35.575 2.14-1.096 1.69-1.333 4.23-.699 1.56 7.336.61 15.681.66 23.177l.36 45.639v225.145l-.99 2.101q-.27-.378-.54-.752c-.69-.942-1.43-1.797-2.2-2.668l-.27-11.021c-.21 5.324.15 11.444-1.22 16.584"/><path fill="#353433" d="M1790.19 804.778c.13.156.27.303.39.467 1.83 2.459 3.34 5.16 3.55 8.263 1.23 18.482.16 37.759.13 56.303l-.2 112.864.25 91.445c.07 17.03 1.07 34.72-.41 51.66l-3.85-1.28c-1.63-2.7-1.71-5.78-1.77-8.87-.3-16.4.38-33.05.35-49.49l.13-163.6-.02-60.395c-.01-11.816-1.3-25.897 1.45-37.367m-.34 501.382c4.69-.24 9.47-.12 13.92 1.53a22.43 22.43 0 0 1 12.92 12.34 24.65 24.65 0 0 1-.16 19.33c-3.5 7.95-9.45 11.77-17.29 14.76-6.01.66-11.64.44-16.97-2.71-6.04-3.56-10.13-9.5-11.63-16.31-1.49-6.8-.53-14.1 3.52-19.87 4-5.7 9.11-7.7 15.69-9.07"/><path fill="#332F19" d="M1284.86 979.845c1.8.843 2.96 1.467 4.35 2.871.14.145.3.278.45.417l.65-.106c3.78 14.079 4.32 29.283 7.57 43.563 15.32 78.51 46.47 151.94 86.67 220.84 12.18 20.89 26.25 40.67 38.39 61.51l-3.76 3.08c-4.28-8.36-10.69-16.26-15.96-24.06-8.3-12.32-16.1-24.7-23.49-37.59-42.49-74.15-67.02-136.42-86.34-219.41a649 649 0 0 1-8.53-51.115"/><path fill="#2B2515" d="M1372.54 1317.16c-11.86 1.26-24.99.18-36.96.15l-72.35.09c-83.89.49-168.1 1.71-251.96.11-2.98-.06-4.26-.52-6.3-2.65 2.36-2.04 5.32-1.98 8.39-2.1 12.86-.49 26.01.18 38.91.17l91.26-.12a17109 17109 0 0 1 269.16.22l2.64 2.94c-3.03 2.15-35.46.16-42.79 1.19m-88.45-431.284c11.78-9.045 25.34-16.543 37.99-24.317a632.55 632.55 0 0 1 267.03-92.114c2.83 1.424 6.22.283 7.73 1.793l-5.87.808-.17.507-1.71-.314 3.7 1.201-1.4.287c-20.82 4.174-42.03 6.022-62.92 10.51a656.5 656.5 0 0 0-206.57 83.817c-9.57 6.002-32.25 18.337-38.61 27.053l-.29 4.015c.85 11.596 1.78 23.18 2.06 34.808-.17 2.795.12 7.966-1.96 9.922-.66.619-1.09.844-1.82 1.297a482 482 0 0 1-2.43-48.108l-1.04-3.295c.99-3.626 3.56-5.433 6.28-7.87"/><path fill="url(#b)" d="m1663.53 960.851 1.66.305c1.08-1.066 2.1-2.251 3.36-3.09l-1.87 3.391c.5.279.96.685 1.53.755-18.62 29.804-39.61 58.488-59.55 87.438L1485.44 1228l-33.66 49.55c-7.78 11.35-16.13 22.62-23.02 34.53l-3.34-4.06c8.74-16.46 21.5-32.32 32.02-47.76a5915 5915 0 0 1 70.62-102.79l87.52-127.58c15.75-22.98 30.93-46.994 47.95-69.039"/><path fill="#2B2515" d="m1304.1 1717.37-.1-1.34c-2.01-1.45-3.33-2.14-4.46-4.43 2.57 1.29 4.77 2.03 7.59 2.64l.94.19 1.64.69c6.64 2.86 13.08 7.36 19.35 11a434 434 0 0 0 29.39 15.6c51.12 24.67 102.91 42.09 158.28 54.62 71.11 14.03 141.16 17.35 213.35 11.54 5.6-.46 25.25-4.06 28.56-1.96l.46 1.96c-8.28 7.59-109.66 8.42-126.95 7.67a656 656 0 0 1-122.37-15.8c-63.21-13.42-153.11-44.57-205.68-82.38"/><path fill="#332F19" d="M1289 1707.47c-16.36-4.02-79.86-57.39-95.21-71.56-72.67-67.11-125.26-144.8-167.17-233.89-9.26-19.67-21.36-40.47-22.26-62.55 21.03 46.71 41.79 94 67.91 138.15a695.1 695.1 0 0 0 182.24 201.01c11.53 8.42 23.23 17.47 35.78 24.34-.48 1.48-1.06 2.96-1.29 4.5"/><path fill="#332F19" d="m1420.85 1317.98 2.79 3.07c-77.72 115.24-128.46 245.75-127.71 386 3.97 2.25 8.71 4.38 12.14 7.38l-.94-.19c-2.82-.61-5.02-1.35-7.59-2.64 1.13 2.29 2.45 2.98 4.46 4.43l.1 1.34c-2.97-1.39-5.52-2.95-8.22-4.81.2 20.93 3.11 41.4 4.26 62.22-.06.29-.13.57-.19.86-.88 4.29-.17 8.19-1.17 12.49-.7-3.76-1.44-6.94-3.04-10.42-1.25-2.93-1.3-7.29-1.71-10.48-1.68-12.94-1.46-50.35-5.03-59.76.23-1.54.81-3.02 1.29-4.5 1.73-11.46.32-23.75.79-35.37.62-15.55 2.88-31.36 5.1-46.76a675.6 675.6 0 0 1 89.05-248.39c10.98-18.67 22.38-37.3 35.62-54.47m3.76 3.15 3.72-3.17c10.9 17.17 23.13 33.38 34.62 50.14 44.03 64.3 91.49 125.73 139.09 187.39l72.67 94.99 62.66 79.57c11.69 15.04 26.84 31.03 34.34 48.64-13.87-9.06-50.57-60.17-62.53-75.36a13116 13116 0 0 1-173.47-225.44 3118 3118 0 0 1-78.4-108.07c-11.12-16.07-22.86-31.78-32.7-48.69"/><path fill="#353433" d="m1930.21 219.082 1.01.967c1.06 9.066.52 18.643.53 27.777a1768 1768 0 0 1-.56 52.79c-17.37-9.543-34.4-19.879-51.72-29.572l-34.33-19.519c28.36-10.888 56.56-21.936 85.07-32.443m-99.6 38.913c6.85-.504 86.98 46.933 100.96 53.765-.97 11.292-.43 23.104-.47 34.456l-15.54-10.344a1107 1107 0 0 0-61.52-35.419c-16.93-9.124-35.34-17.612-51.06-28.672 8.81-5.316 18.32-9.436 27.63-13.786"/><path fill="#2B2515" d="M1601.68 1312.29c1.45-12 2.71-23.99 5.72-35.73 9.9-38.69 34.59-74.73 65.93-99.26a199.7 199.7 0 0 1 146.9-40.3c36.13 4.64 66.49 19.24 96.35 39.35 3.97 2.67 11.04 5.78 13.71 9.65 1.13 1.63 1.2 4.73.55 6.57-.13.36-.32.7-.48 1.04-.69-.01-1.44.24-2.07-.04-3.92-1.75-7.36-6.66-10.94-9.29-9.62-7.06-19.81-13.83-30.25-19.62-71.12-39.42-164.07-28.15-223.07 28.42-35.27 33.82-56.59 79.83-57.32 128.9-.74 48.98 16.37 96.49 50.93 131.76 22.3 22.75 50.47 39.33 80.42 49.72l-2.29 4.54c-29.19-9.91-56.32-25.02-78.21-46.94-41.1-41.16-56.84-86.85-56.54-144.19l-19.23.07.22-.7 3.52-.76 1.44-2.85z"/><path fill="#353433" d="M1806.46 1835.6c7.11 3.97 16.32 15.89 22.71 22.18 22.84 22.5 45.51 46.1 69.66 67.13l-91.97.28c.12-29.52 1.88-60.19-.4-89.59m-26.88.22c.06.05.13.09.17.17 2.34 4.5.2 78.71.15 89.71-32.4.31-64.82-.44-97.23-.25l-.68-.25-.04-1.21c35.73-27.38 65.94-56.37 97.63-88.17"/><path fill="#332F19" d="M1288.03 775.824c6.6-54.739 36.87-134.374 61.88-183.784 4.97-9.814 10.69-23.508 19.25-30.653.96-.802 1.85-1.077 3.07-1.249l.51 1.284c-7.52 16.899-17.63 32.853-25.5 49.736a689 689 0 0 0-55.5 171.89c-3.36 23.531-11.88 82.004-7.65 102.828-2.72 2.437-5.29 4.244-6.28 7.87l1.04 3.295c-13.96 5.098-38.47 29.281-50.84 40-79.48 68.899-138.74 156.709-182.88 251.639-12.45 26.76-21.08 55.97-34.48 82.14l-.48.9a130 130 0 0 1 1.24-8.13c4.26-22.22 14.79-44.3 23.52-65.12 50.05-119.39 136.15-234.413 243.36-308.227.01-37.705 1.56-77.487 9.74-114.419"/><path fill="#353433" d="M1930.78 663.974c2.43 4.318 1.11 86.885 1.14 99.157-28.08-.112-56.46-4.962-84.67-5.821-3.35.051-6.76.238-10.1-.09 2.82-11.443 80.19-80.672 93.63-93.246m-.22 1144.286c.64.01 1.2.44 1.79.69 1.59 8.73 1.07 103.72-.62 108.5-.5-.04-1.05.14-1.49-.1-3.25-1.79-10.4-11.02-13.59-14.18-10.77-10.66-22.2-20.76-33.36-31.01-18.04-16.78-35.03-34.9-53.63-51.03 33.56-.28 68.05-6.46 100.9-12.87m1.09-161.52c2.53 13.21.71 29.76.68 43.34l-.28 90.03c-32.59 8.17-67.91 13.77-101.49 15.1-.52-4.82-1.72-9.2-3.07-13.82 39.83-39.62 75.54-86.33 104.16-134.65m-118.84-861.78c39.97.395 79.43 4.074 119 9.406-.01 50.293.83 100.66.09 150.943-5.45-4.947-36.86-52.398-42.81-60.973-23.62-34.009-48.72-68.476-76.28-99.376m119.11 693.05c.61 1.51.64 1.18.73 2.49.92 12.84-.03 26.03-.02 38.9.03 17.7 2.7 55.41-1.39 70.7-2.61 9.77-10.18 19.88-15.45 28.47-32.15 52.4-68.74 95.91-108.34 142.62-2.51-3.72-.61-205.86-.56-232.57 46.03-4 89.56-20.57 125.03-50.61m-127.73-659.228c7.95 6.973 17.24 22.801 24.11 31.834 23.35 30.7 46.4 61.313 68.36 93.057 10.89 15.758 23.34 38.547 35.28 52.266l.3 124.221c.01 15.02 1.93 39.25-.82 53.25-6.4-5.4-14.07-10.04-21.2-14.46-33.37-20.69-67.17-30.88-106.05-34.13.96-46.37.23-92.87.3-139.259a7965 7965 0 0 0-.28-166.779m-468.64-223.847c-.02 5.932-13 27.959-15.94 35.21a812 812 0 0 0-29.96 89.125c-15.03 55.205-20.63 107.699-22.71 164.6a733.4 733.4 0 0 0-205.69 235.3c-15.15 26.97-28.81 53.72-39.08 82.96 0-.4-.03-.79-.01-1.18.3-8.26 3.18-17.8 4.97-25.9a2417 2417 0 0 1 14.39-61.06 1136.94 1136.94 0 0 1 294.03-519.055m113.59 733.485c46.85-.99 93.84-.43 140.71-.48.46 40.16 13.39 82.5 37.53 114.79 27.07 36.21 64.67 63.66 108.51 75.77 14.48 4 29.25 6.05 44.08 8.22l.06 152.69c.05 28.39.86 56.82.38 85.2-.38 0-.77.05-1.14-.01-4.83-.85-227.21-291.31-246.72-317.6a4660 4660 0 0 1-55.76-77.88c-9.32-13.37-19.42-26.64-27.65-40.7m-142.21 403.94c8.67 3.83 17.27 9.37 25.69 13.82 17.28 9.14 34.61 17.67 52.6 25.3 118.41 50.23 243.89 65.32 371.25 49.02-17.22 15.04-34.09 30.51-51.08 45.79-23.06 21.26-48.63 41.2-74.14 59.4l-281.42.31c-17.58-42.35-29.77-88.57-36.3-133.93-2.85-19.82-4.35-39.82-6.6-59.71m497.8-1446.56c43.5 20.982 86.11 46.125 127.04 71.701l-.09 268.636c-20.98 19.806-44.44 36.882-65.35 57.012-21.94 21.59-42.89 43.746-63.6 66.509 2.1-23.036 1.63-46.171 1.61-69.276l-.09-88.777a27021 27021 0 0 1 .48-305.805M473.347 1514.95c.47 4.86-6.528 23.13-8.267 28.98a1441 1441 0 0 0-22.708 84.01c-23.359 97.99-42.995 197.46-51.986 297.91l-258.813-.04c-.215-2.48 7.118-8.9 9.089-11.04 14.627-15.91 27.562-33.45 41.467-49.99a6357 6357 0 0 0 95.722-114.36 23918 23918 0 0 0 195.496-235.47M1777.56 822.702c2.62 10.666 1.14 61.482 1.18 76.239l-.55 225.819a212.8 212.8 0 0 0-95.69 32.76c-54.61 35.34-78.62 82.78-91.68 144.53a5156 5156 0 0 0-140.82.43c-.69-.34-.24-.04-.75-1.44 8.68-15.33 20.16-29.87 30.1-44.44a8958 8958 0 0 1 68.4-99.22z"/><path fill="#353433" d="M1932.58 1437.37c-10.12 8.05-19.34 17.14-29.72 24.87-30.73 22.87-67.79 35.24-105.86 37.91-45.25 3.19-88.36-14.68-122.01-44.35a173.73 173.73 0 0 1-58.08-119.29 169.6 169.6 0 0 1 44.2-124.45c33.8-37.37 80.28-58.45 130.59-60.7 37.72-1.69 77.33 11.55 107.98 33.33 11.88 8.45 22.51 18.55 33.26 28.35l-.13 66.44c-24.68 6.38-52.88 14.76-76.82 23.52-7.07 2.59-26.22 13.33-32.1 13.23.64-1.44 27-13.93 31.16-16.24 19.98-11.04 57.94-34.91 75.48-49.28-21.03 5.78-61.69 30.08-81 42.41-9.58 6.12-18.78 13.2-28.9 18.4.12-1.89 15.65-12.45 18.71-14.93 17.19-13.95 61.18-52.55 72.37-69.45.21-.32.41-.64.61-.96-12.87 5.99-24.08 17.75-34.91 26.82-17.44 14.61-34.88 28.52-50.93 44.68l1.11-.53-1.1-.48c17.38-20.93 32.84-42.34 48.15-64.83 4.4-6.47 10.2-13.3 13.66-20.27.76-1.52.29-1.63-.27-3.11l-1.76-.21c-17.17 21.86-35.12 43.13-52 65.23-7.34 9.62-13.4 22.03-21.93 30.45-.52-2.84 14.31-24.59 16.54-29.19 7.02-14.48 13.34-29.31 20.29-43.83 6.46-13.5 13.94-27.01 19.18-41.02l.52-1.44c-12.33 11.4-40.36 65.69-48.16 82.17-4.43 9.36-8.11 21.52-14.5 29.51l-.97-.43c3.9-7.21 7.26-15.19 9.84-22.97 3.83-11.56 5.9-24.05 9.25-35.82 5.95-20.91 16.05-43.73 17.97-65.31.04-.45.06-.9.1-1.35-10.76 17.66-28.25 72.56-34.58 94.53-2.3 7.95-3.33 25.53-7.58 31.47 1.37-17.47 4.99-34.84 6.95-52.27 1.61-14.26 1.64-28.66 2.86-42.96.78-9.09 3.93-20.88 1.81-29.66l-.94.17c-4.56 7.47-13.57 82.28-14.69 95.78-.65 7.79 1.2 18.23-.84 25.6-.14.48-.29.95-.43 1.42l-.69-.35c-.24-23.61-1.63-103.46-12.57-120.98-2.61 4.53 2.99 71.51 4.17 82.98 1.3 12.67 5.23 27.2 3.41 39.75l-.42-1.95c-1.91-8.95-2.2-18.25-4.06-27.24-3.08-14.92-20.55-79.36-27.88-90.19l-.75.8c.99 15.16 5.66 30.21 9.22 44.91 3.45 14.24 6.4 28.68 10.05 42.86 2.75 10.69 7.68 20.69 7.77 31.89l-1.3.39c-5.46-27.36-16.67-46.01-28.92-70.64-6.86-13.79-13.14-28.03-21.06-41.24l.17-.65-1.42-.37-.15-.23c-1.81 7.79 27.08 70.77 32.28 81.61 4.45 9.29 14.16 22.71 15.29 32.78l-1.81-.54c-9.31-19.02-56.15-89.37-70.73-101.12 12.78 25.81 29.33 51.77 45.43 75.65 2.77 4.11 20.19 26.8 20.57 28.11l-1.54 1.09c-5.09-6.39-9.94-13.04-15.4-19.12-12.83-14.28-27.14-27.47-40.69-41.09-6.04-6.07-11.41-12.98-17.63-18.83-1.57-1.48-3.77-3.53-5.97-3.9-.28-.05-.57-.01-.85-.02.1 7.43 53.94 65.44 63.03 74.34 4.2 4.11 9.03 8.03 14.07 11.06l.45 2.13c-6.63-1.64-21.3-16.04-27.48-20.85-10.46-8.13-60.08-44.8-69.2-45.96.04 1.29-.18.76.54 1.64l-.99 1.05 1.75-.2 1.02 1.03c8.01 7.94 17.51 14.63 26.42 21.53 17.44 13.51 35.23 26.72 52.43 40.53-11.87-5.48-91.27-41.32-95.16-41.24 8.99 15.18 104.12 52.57 105.82 55.55-9.52-2.77-18.34-7.76-27.88-10.28-10.72-2.83-21.93-3.45-32.78-5.57-14.8-2.89-29.94-7.42-44.86-9.18-3.15-.37-7.24-.82-10.12.52 18.2 8.77 109.79 24.97 116.35 33.48l-.68.89c-2.12-.51-3.37-1.17-5.17-2.3-16.59-10.37-66.35-6.62-86.57-6.3-7.6.12-17.87-1.15-25.01.71-.42.11-.85.24-1.27.36l.17-.2-1.62 2.56c2.16 1.12 3.84 1.32 6.22 1.5 21.13 1.56 42.62 1.61 63.83 2.78 15.08.84 30.45 3.03 45.5 3.19-10.98 1.76-22.09 1.63-33.13 3.08-17.97 2.35-35.59 6.24-53.44 9.28-8.21 1.39-18.58 1.83-26.27 4.85l.43 1.01c3.16.94 6.14 1.57 9.47 1.37 13.06-.8 26.62-3.61 39.68-5.13 14.41-1.67 29.07-2.25 43.42-4.3 7.41-1.06 17.38-5.1 24.56-4.24l-1.48.64-1.02-1.01.36 1.23c-19.51 5.18-93.08 27.01-106.21 37.97l-.65 1.69c2.71.54 4.83-.11 7.43-.83 10.59-2.95 20.96-7.4 31.53-10.64 15.71-4.81 31.82-8.6 47.41-13.73 8.46-2.8 18.12-9.39 26.97-9.31-2.59 2.72-13.46 5.51-17.51 7.58-19.9 10.11-73.69 39.5-86.87 54.09 13.45-4.51 26.39-12.97 38.95-19.61 17.81-9.41 35.65-17.91 52.84-28.5-8.49 8.17-68.56 62.94-69.79 66.27l.7 1.35c4.25-.17 61.22-46.85 67.27-53.44 6.62-7.21 13.18-14.93 18.8-22.95l2.51-.07c-11.6 16.75-62.74 80.66-66.08 96.48l.92 1.92c6.25-5.14 12.08-15.75 17.26-22.35 12.23-15.58 25.95-30.5 37.01-46.91 5.05-7.5 8.86-19.06 15.18-25.22-.08.6-.14 1.2-.24 1.79-1.12 7.04-9.02 17.02-12.2 23.72-6.53 13.75-29.79 68.87-31.38 81.82l.73.45c9.88-11.02 15.23-28.86 21.58-42.13 5.38-11.22 11.47-21.89 15.98-33.54 2.76-7.14 5.59-20.88 9.86-26.53-1.65 10.43-5 20.52-7.22 30.84-2.41 11.21-14.46 71.93-11.67 78.21 8.7-9.34 20.39-81.73 23.06-99.66.33-2.21.75-9.52 2.99-9.78-.46 6.85-.99 13.7-1.08 20.57-3.11 13.48-1.53 85.67 4.12 96.1l1.01-1.07c2.05-11.27 1.08-24.29 1.28-35.79.46-26.52 1.01-52.73-.53-79.22l1.66-.48c2.67 4.88 3.95 39.04 5.43 47.33 4.02 22.48 10.71 52.69 19.55 73.63-1.45-16.96-4.84-33.77-7.48-50.58-2.05-13.1-3.38-26.33-5.59-39.39-.98-5.8-7.76-28.54-6.2-32.49 2.99 2.79 3.31 9.95 4.35 14.1.95 18.25 31.6 86.81 44.04 101.52-4.03-14.53-10.44-28.77-15.65-42.92-9.36-25.39-18.14-50.57-28.71-75.53l3.78 3.83c5.7 21.63 48.6 87.6 64.18 104.87-6.62-18.74-48.3-93.21-62.25-107.62-.27-1.32-.1-2.42.02-3.75 8.12 9.79 14.96 20.79 22.84 30.8 11.42 14.52 24.59 28.11 36.94 41.87 7.85 8.74 15.53 18.24 24.78 25.54-5.29-10.72-13.27-20.22-20.47-29.71-16.46-21.7-33.39-42.02-51.59-62.26l1.21-.92c-.81-.47-.53-.23-.92-.62 19.43 18.81 39.52 35.18 60.4 52.26 9.63 7.88 19.2 17.11 29.92 23.41l1.22.71c-13.74-19.51-74.36-74.96-94.97-83.72-2.03.33-1.36.32-3.16.3l-1.13-.03 3.87-4.47c23.63 17.72 48.22 32.01 74 46.32 11.39 6.33 22.76 13.34 35.06 17.74-19.14-15.97-41.41-29.03-62.39-42.47-6.7-4.3-15.68-8.2-21.34-13.67 19.73 5.46 69.02 26.04 84.6 26.75l1.76.09a4630 4630 0 0 1-.01 55.12m-2.43-1256.279c2.82 3.281 1.6 21.927 1.67 27.002-59.45 19.531-116.97 44.66-173.43 71.513a1487.6 1487.6 0 0 0-337.09 221.002 1490 1490 0 0 0-116.37 110.436 1159.7 1159.7 0 0 0-241.1 395.286 1239.5 1239.5 0 0 0-49.27 176.04c-35.839 181.27-30.473 375.88 20.85 553.63 18.95 65.6 44.53 127.97 73.86 189.53l-26.38.07-2.82-.42c-7.45-6.06-19.66-37.83-23.86-47.8a1208.33 1208.33 0 0 1-.83-927.008c112.79-275.401 335.13-494.178 590.41-640.758 40.3-23.139 82.44-44.128 124.34-64.188 32.93-15.763 67.91-30.626 102.11-43.418 19.2-7.181 39.01-13.002 57.91-20.917"/><path fill="#353433" d="m1929.89 143.125 1.25 1.02c1 8.167.62 16.687.68 24.917a1757 1757 0 0 0-220.03 93.091 1519 1519 0 0 0-343.14 235.055c-20.6 18.696-41.63 37.123-61.17 56.933a1218.2 1218.2 0 0 0-291.25 473.659 1223.8 1223.8 0 0 0-12.97 729.65c17.09 57.72 37.64 114.13 64.82 167.96l-26.33.3c-1.7-.01-3.32-.19-5-.37-9.96-9.5-49.493-122.17-56.113-143.31a1250.3 1250.3 0 0 1 89.643-949.904c141.2-269.478 384.1-473.79 654.94-605.439 66.08-32.123 134.45-61.594 204.67-83.562"/><path fill="#353433" d="M1384.71 560.609c110.76 18.991 220.21 69.717 306.93 141.049 20.9 17.198 40.11 36.365 59.09 55.625-64.15-3.186-126.68-4.01-190.5 4.675a645.5 645.5 0 0 0-205.84 68.166c-20.41 10.805-39.6 23.719-59.9 34.694 2.56-88.329 26.14-170.003 62.82-250.009 8.44-18.405 18.98-35.78 27.4-54.2M1012.93 1328.3l236.76-.21a5653 5653 0 0 1 150.7.89c-11.07 13.87-20.21 29.95-29.05 45.32-36.98 64.29-62.57 132.22-79.16 204.34-7.79 35.15-10.05 70.56-12.15 106.4-20.16-18.3-43.7-32.57-63.93-51.1-78.69-72.05-126.64-138.61-172.58-234.57-11.04-23.05-23.01-46.6-30.59-71.07m254.89-410.307c1.59 2.231 2.65 31.354 3.17 36.826a816 816 0 0 0 14.19 88.481c16.92 76.44 48.32 150.92 88.49 218 8.09 13.52 16.39 28.32 26.74 40.23-25.71-.87-51.69.26-77.44.25l-175.47.15-134.46-.32c7.41-26.98 18.53-52.86 29.26-78.64 51.92-124.67 121.22-219.04 225.52-304.977"/><path fill="#353433" d="M1002.81 1376.58c5.88 8.12 9.93 21.26 14.26 30.46 10.81 22.97 21.7 45.89 34.16 68.02 37.03 65.78 89.02 129.09 145.96 178.63 26.02 22.64 54.41 43.16 82.62 63-.31 49.32 9.2 107.8 22.07 155.22 4.31 15.88 14.8 38.09 16.58 53.38-65.66.06-131.41 1.37-197.06.28-20.03-35.07-34.99-72.53-49.03-110.32-53.11-142.96-74.414-286.52-69.56-438.67"/><path fill="#EFDD91" d="M1203.51 1812.91c6.64 7.42 9.24 13.08 18.54 17.91-7.07 5.95-12.97 12.13-18.44 19.58-5.49-6.74-11.09-12.49-17.88-17.92 7.07-6.05 12.7-11.71 17.78-19.57m-72.97-116.39c4.32 3.8 6.73 10.79 10.17 15.56 8.27 11.47 20.64 19.02 32.23 26.69-20.53 11-30.13 23.6-41.18 43.62-3.12-3.34-5.7-8.34-8.43-12.14-10.03-13.95-19.72-23.15-34.61-31.76 19.68-10.82 30.91-22.34 41.82-41.97"/><path fill="#353433" d="m1777.32 283.018.7.247c2.61 6.445.81 102.513.81 117.061l-.18 346.355c-7.84-6.741-14.85-14.851-22.11-22.233a647 647 0 0 0-30.41-28.887c-49.62-44.37-106.99-79.305-166.83-107.957a773 773 0 0 0-160.66-52.046c11.32-9.383 21.99-19.706 33.04-29.419a1592 1592 0 0 1 65.38-54.453c83.67-65.481 183.83-124.118 280.26-168.668M487.84 1506.67c6.487 4.55 12.679 13.3 18.171 19.34 18.673 20.54 36.674 41.67 55.307 62.23l188.423 209.85 67.443 76.47c14.813 17.06 29.009 35.01 44.742 51.23l-86.426.06-374.265.03a1874.7 1874.7 0 0 1 61.995-338.28c7.622-27.19 15.243-54.27 24.61-80.93m935.94-165.03c5.07 4.09 37.41 53.99 44.95 64.66 18.61 26.33 38.08 52.18 57.37 78.04a9412 9412 0 0 0 90.61 117.32l77.81 101.15a3453 3453 0 0 0 36.91 46.63c8.61 10.54 20.08 22.08 26.61 33.91-.5 2.99-.6 6.07-2.31 8.61-24.12 7.56-83.96 7.62-110.48 7.42-118.94-2.25-238.33-35.14-338.64-99.93.24-102.21 30.27-203.32 78.3-293.04 11.91-22.24 25.94-43.14 38.87-64.77m210-560.21c40.17-3.064 94.05-.764 133.73 6.751a58347 58347 0 0 1-341.98 499.359l-1.45 1.21c-.23-.15-.48-.29-.7-.46-5.1-4.19-27.02-41.54-31.6-49.24a673.1 673.1 0 0 1-91.74-264.03c-3.17-25.318-4.08-50.648-5.99-76.059 16.97-11.093 33.84-22.323 51.47-32.336a650.4 650.4 0 0 1 288.26-85.195M120.169 937.546c5.851 4.73 11.125 16.969 15.502 23.569l50.007 74.905a14640 14640 0 0 1 205.674 317.35c29.596 46.37 60.168 92.18 88.68 139.22-9.928 9.03-18.151 20.43-26.543 30.89a2842 2842 0 0 1-31.957 39.18c-44.501 53.83-88.818 108.19-134.5 161-38.605 45.56-75.948 92.18-114.731 137.62-17.131 20.07-33.685 40.62-52.268 59.39z"/><path fill="#353433" d="m1929.23 124.178.85.049c1.52 1.803 1.07 3.415 1.15 5.702-1.38 2.292-3.67 3.045-6.06 3.967-17.36 6.674-35.41 11.976-52.94 18.278a1753 1753 0 0 0-73.4 29.038c-236.98 98.997-468.47 265.041-625.14 469.446a1308.8 1308.8 0 0 0-163.4 284.789 1270.47 1270.47 0 0 0-38.599 850.353c14.522 47.6 33.479 93.61 52.649 139.47-49.982 1.37-100.194.57-150.204.63-14.59-20.07-32.536-38.9-49.031-57.49l-78.344-88.44c-19.289-24.04-41.307-46.31-61.864-69.29a8669 8669 0 0 0-116.74-130.1l-50.633-56.55c-8.414-9.38-16.695-20.14-26.378-28.21 45.482-139.66 122.96-286.22 198.955-411.46a2466 2466 0 0 1 282.007-376.282c186.532-201.045 430.822-380.479 682.452-490.857a1797.4 1797.4 0 0 1 274.67-93.043"/><path fill="#353433" d="m288.781 121.496 1072.809-.439 381.03.129c54.02-.16 108.14 2.106 162.14-.15-43.44 9.436-85.37 23.238-127.34 37.716-27.14 9.36-54.36 18.669-81 29.396-145.55 58.628-283.23 139.412-410.67 230.418-45.06 32.173-89.9 65.609-132.34 101.197a2379 2379 0 0 0-193.739 185.291c-14.711 16.974-30.314 33.183-44.97 50.226-25.58 29.746-50.035 60.832-74.012 91.877a2588 2588 0 0 0-288.355 471.113c-24.96 53.41-48.633 108.31-67.518 164.18-23.073-41.86-51.181-81.8-76.973-122.07a12568 12568 0 0 0-136.045-212.16l-98.384-149.684-31.555-47.469c-6.867-10.486-13.382-22.01-21.444-31.578-1.009-31.656-.281-63.531-.275-95.205l-.153-165.188.348-536.949z"/><path fill="#EFDD91" d="M476.145 206.416c69.046-5.731 150.418 23.822 203.038 67.74a304.4 304.4 0 0 1 108.473 206.713c7.169 81.773-14.138 159.766-67.324 223.032a303.33 303.33 0 0 1-164.731 101.018c-14.804 3.27-29.658 4.708-44.726 6.021-77.221 2.262-149.121-18.487-208.752-68.779a302.18 302.18 0 0 1-106.537-206.565c-6.493-79.407 14.931-161.45 67.11-222.757 55.599-65.326 128.531-99.746 213.449-106.423"/><path fill="#353433" d="M468.231 214.574c71.241-7.067 148.481 18.233 203.732 63.308 59.559 48.589 100.266 121.553 108.044 198.241 7.951 78.385-11.466 157.174-61.872 218.814-40.363 49.359-98.278 86.553-160.377 101.446-14.089 3.379-28.252 5.017-42.629 6.498-76.312 3.164-146.891-15.44-206.022-65.27-60.782-51.223-99.574-122.471-106.122-202.151-6.667-81.115 15.627-158.779 68.666-221.212a288.02 288.02 0 0 1 196.58-99.674"/><path fill="#EFDD91" d="M467.342 229.5c.284-.034.568-.075.853-.103 70.59-6.928 144.276 18.087 198.264 63.181a275.7 275.7 0 0 1 98.789 189.202c6.437 74.921-13.064 149.699-62.252 207.537a276.12 276.12 0 0 1-190.239 97.94 273.6 273.6 0 0 1-196.153-62.447c-58.451-49.097-93.269-116.17-99.705-192.327-6.277-74.283 15.209-150.154 63.622-207.344A271.06 271.06 0 0 1 467.342 229.5"/><path fill="#353433" d="M471.92 237.416c63.256-3.908 130.276 13.019 180.406 52.982 59.139 47.144 96.221 109.97 104.868 185.578 8.396 73.413-10.11 147.263-56.551 205.348-10.395 13.002-22.804 24.1-35.533 34.755-46.923 39.274-93.968 58.016-154.735 64.817-71.172 3.052-138.889-18.917-193.537-64.962-55.031-46.367-86.884-114.557-92.744-185.657-6.032-73.176 15.571-145.495 63.34-201.615 48.828-57.363 110.196-85.063 184.486-91.246"/><path fill="#EFDD91" d="M488.506 241.414c8.201 1.23 8.014 6.798 11.352 7.635 8.545 2.14 17.82 2.269 26.556 3.537a274.7 274.7 0 0 1 57.333 15.352c63.208 24.672 115.64 76.505 142.723 138.448a264.5 264.5 0 0 1 2.305 202.879c-11.326 28.758-28.288 51.368-45.75 76.238-3.073 4.376-8.443 14.932-13.268 17.018-1.457-.281-5.268-1.3-6.667-.517-3.882 2.174-7.958 6.421-11.603 9.154a317 317 0 0 1-24.718 16.875c-28.66 17.672-60.145 30.336-93.533 35.717-11.096 1.788-23.021 1.37-33.919 3.785-1.891.419-3.555 1.434-5.157 2.483-.272.178-.535.367-.802.55l-1.805.382c-11.559-7.019-29.344-5.768-42.555-8.092a258.7 258.7 0 0 1-130.52-63.597c-51.281-46.966-79.361-114.727-82.056-183.544-.562-14.366.89-28.831 2.728-43.071 7.433-57.575 30.922-105.021 70.165-147.602 38.22-41.471 95.131-66.348 150.57-73.536 7.899-1.024 16.222-.878 24.185-1.207 1.03-.981.825-.543 1.245-1.754.914-2.64 1.782-4.702 3.191-7.133"/><path fill="#353433" d="M411.702 562.621c1.069.871.67.462 1.544 1.5 6.731 7.996 13.661 15.286 21.632 22.064-6.346-.565-12.801-2.433-19.025-3.847zm163.817-2.817c.673 5.964-1.153 13.667-1.891 19.692-6.219 1.515-12.607 2.581-18.889 3.822.46-3.363 17.3-19.24 20.78-23.514M546.41 434.16a1879 1879 0 0 1 26.664 4.111l4.225 28.094c-2.787-2.711-4.89-6.695-7.383-9.759-7.05-8.664-14.692-15.609-23.506-22.446m-107.378.375.639.769c-10.183 8.634-18.607 16.982-26.61 27.782-2.933-4.939.498-19.675 1.255-25.751a750 750 0 0 1 24.716-2.8m72.033 167.067.554.242c-.728 4.858-13.743 16.642-17.544 20.789l-8.666-8.764-10.596-11.96a297 297 0 0 0 36.252-.307m-16.033-203.638c7.12 7.814 14.126 15.75 21.876 22.953-6.261-1.238-12.817-1.387-19.184-1.824-8.253-.128-16.568.698-24.8 1.253 8.075-6.686 15.001-14.7 22.108-22.382m91.358 87.524c8.136 4.084 22.105 19.124 29.43 25.885l-15.179 14.569c-4.51 4.372-9.234 8.545-13.88 12.773 1.621-18.177 1.983-35.094-.371-53.227m-183.776-2.541c-.157 6.046-1.569 12.452-2.058 18.547-1.222 15.202.075 29.278 2.764 44.253-4.796-4.622-9.176-9.785-13.654-14.719a962 962 0 0 1-15.86-19.123c9.422-9.816 19.19-19.333 28.808-28.958m-33.256 36.027c12.038 11.254 20.425 26.444 34.117 36.197a784 784 0 0 0 3.185 24.56c-8.164-1.478-16.295-3.214-24.432-4.839-14.583-2.908-28.96-6.42-43.374-10.063 8.551-17.161 18.01-31.407 30.504-45.855m250.32-2.314c9.659 4.655 25.833 34.674 30.621 44.383a605 605 0 0 1-40.991 11.184l-27.849 5.181c1.537-9.855 2.593-19.8 3.794-29.701 13.071-8.208 23.762-20.037 34.425-31.047M405.5 438.362l1.446-.014c.473 1.685.565 1.198.3 2.63-1.941 10.494-3.307 20.666-3.3 31.363-12.366 10.12-23.746 21.803-34.917 33.211-3.549-4.642-6.674-9.7-9.913-14.568a520 520 0 0 1-19.735-35.877c21.625-6.502 43.7-13.645 66.119-16.745m175.485.797c24.244 4.584 48.278 10.011 71.292 19.051-5.606 9.93-11.363 19.664-17.529 29.258-4.114 6.414-8.77 12.54-13.216 18.731a890 890 0 0 0-37.665-33.353 258 258 0 0 0-2.882-33.687m-30.596-82.246c.501.128.594.111 1.099.557 5.847 5.162 18.302 63.456 20.318 72.813-14.035-1.98-28.717-3.267-42.463-6.677-10.856-8.65-20.125-19.94-29.204-30.405 16.169-13.366 32.676-24.865 50.25-36.288m-134.022 232.59c15.694 3.887 31.816 6.44 47.596 10.152 7.895 9.608 17.138 18.501 25.701 27.541-6.226 5.761-12.614 11.138-19.279 16.383-9.505 7.671-19.171 15.08-29.69 21.318-11.4-24.506-18.885-49.014-24.328-75.394m21.046-234.271c18.176 8.267 38.199 25.424 53.809 38.105-9.162 9.907-19.207 19.004-28.522 28.786-3.637 2.743-39.369 6.673-46.301 7.257 6.268-26.701 11.844-48.01 21.014-74.148m133.602 233.311.192.194c2.651 8.352-17.422 66.623-22.13 77.263-9.613-5.287-18.297-12.104-27.012-18.723a405 405 0 0 1-22.049-19.625c27.625-32.438 27.876-33.763 70.999-39.109m-162.013 9.455c3.71 5.758 8.331 29.162 11.026 37.595 3.62 11.331 7.847 22.403 12.217 33.462-25.45 11.941-51.196 18.229-79.099 20.863-7.739.615-15.429.869-23.191 1a1676 1676 0 0 1 79.047-92.92m219.793-265.572c8.003-.754 16.579-.21 24.649-.389-19.723 34.618-44.745 64.065-71.647 93.243l-1.329 1.125c-3.227-2.063-3.24-11.645-3.816-15.423-2.986-19.587-11.437-40.272-18.27-58.801 23.026-11.29 44.889-17.458 70.413-19.755m32.907 3.446c.193.214.45.383.579.641 2.444 4.889 2.998 12.955 3.956 18.428 5.993 34.267 1.405 63.77-10.53 96.157-15.163-5.502-30.205-10.164-45.92-13.829-8.327-1.933-16.666-3.373-25.098-4.743 29.479-26.211 58.415-61.871 77.013-96.654M336.2 572.747c12.358 3.675 25.435 6.304 38.101 8.7 10.01 1.894 23.479 2.731 32.534 7.316l.071 1.182c-11.838 4.432-41.177 42.902-51.16 54.617a1174 1174 0 0 0-32.548 39.231c-6.947-37.883-1.177-75.736 13.002-111.046m242.41 24.737c13.798 8.292 66.749 76.967 78.309 93.708l-21.099-.284c-29.143-3.298-53.639-8.032-79.993-21.57 10.165-23.559 16.837-46.974 22.783-71.854M332.195 323.109c35.146.334 67.266 10.896 97.809 27.632-6.09 18.069-11.74 35.824-15.819 54.472l-3.89 18.886c-17.706-19.175-68.832-78.742-78.1-100.99m-7.437 10.401c8.959 9.61 16.903 21.304 25.053 31.689 17.603 22.433 35.828 45.048 56.02 65.206-5.879 1.332-11.899 2.206-17.842 3.227-17.713 3.668-34.987 8.286-52.294 13.532-16.499-35.092-17.029-75.987-10.937-113.654m327.261 236.703 1.749.211c.775.916 1.423 1.673 1.961 2.757 16.343 32.949 16.343 73.332 6.296 107.892l-28.091-34.68a455 455 0 0 0-55.496-61.019c24.957-3.707 49.098-9.167 73.581-15.161m8.845-108.639c27.114 13.419 51.509 29.403 73.528 50.249-14.707 12.921-29.897 23.981-46.989 33.543-9.44 4.542-18.817 9.04-28.563 12.901-9.335-16.342-19.225-33.539-32.18-47.279a504 504 0 0 0 34.204-49.414M551.122 677.416c29.963 13.804 68.854 26.739 102.275 22.544-20.488 15.964-41.503 29.506-65.373 40.023-27.947 12.039-56.264 16.308-86.227 19.413 17.842-26.518 36.233-52.69 49.325-81.98"/><path fill="#353433" d="M671.274 337.456c.95.647 1.069.69 2.058 1.59 8.642 7.863 16.401 19.005 23.008 28.59 29.859 43.32 40.356 81.227 43.322 132.917l-8.914-6.596c-20.925-15.951-43.306-28.539-66.937-39.962 15.41-39.38 17.66-75.66 7.463-116.539M434.868 678.068c5.844 5.698 18.395 33.657 23.603 42.709 7.501 13.04 15.683 25.721 23.71 38.443-29.946-3.404-58.04-8.618-86.434-19.225-22.882-9.108-46.657-23.907-65.186-40.317 36.156-1.502 71.009-6.719 104.307-21.61m304.067-156.099.966 1.989c-2.205 50.771-19.986 95.809-48.455 137.413-6.742 9.851-13.644 19.787-21.658 28.652.659-4.134 1.565-8.198 2.463-12.284 9.919-38.715 4.646-75.711-9.767-112.635 27.598-9.138 54.274-24.426 76.451-43.135M482.091 257.497l.55.301c-.671 4.182-14.653 20.112-17.769 24.611-12.978 18.739-22.593 40.162-31.682 60.986-25.136-12.467-48.139-21.545-75.961-26.269a129.4 129.4 0 0 0-28.614-1.438c13.401-8.242 25.929-17.817 39.521-25.811 35.255-20.734 73.714-28.937 113.955-32.38m17.24-.867c59.258 5.077 111.075 24.542 155.22 65.204-7.926.133-15.882.838-23.794 1.353-26.354 1.524-50.976 10.684-75.026 20.808-15.493-32.054-33.786-59.847-56.4-87.365m-255.5 263.998c8.243 5.718 15.612 13.1 23.904 18.974 18.342 12.992 38.816 21.815 59.373 30.594-12.012 35.563-15.051 62.942-13.97 100.343.706 4.936.892 10.001 1.259 14.975-44.407-50.282-64.324-98.082-70.566-164.886M494.96 632.847c6.336 4.904 12.109 11.787 18.086 17.248 9.824 8.977 20.289 16.658 31.222 24.182-13.963 28.009-30.968 55.068-51.495 78.74-.303-.081-.62-.12-.908-.244-10.913-4.69-42.408-66.4-48.552-79.975 18.993-10.279 36.239-24.92 51.647-39.951M313.711 331.773c2.595 2.89-.74 22.391-.972 27.486-1.433 31.404 3.4 61.209 14.133 90.712-27.003 10.23-52.933 24.942-74.211 44.569l-8.933 8.918c3.256-70.21 22.609-119.472 69.983-171.685m17.024 126.492c4.985 5.163 10.306 18.171 14.166 24.922 5.974 10.45 12.345 20.362 19.887 29.751-13.604 15.561-23.874 31.047-33.593 49.253-11.934-3.919-23.262-9.684-34.498-15.245-18.245-9.317-33.514-21.054-47.813-35.68 23.069-22.882 50.766-42.773 81.851-53.001m160.344-193.57c18.461 10.19 47.222 61.404 57.453 82.794-18.082 11.662-35.965 23.932-51.962 38.353-.693.846-.171.374-1.93.857-17.16-14.875-34.554-27.775-54.158-39.245 13.21-30.056 28.515-58.151 50.597-82.759m-5.522 162.72c21.562-1.764 42.841.331 59.949 14.666 19.212 16.098 33.551 34.225 35.585 59.881 1.75 22.079-.655 41.428-15.482 58.789-18.009 21.085-35.331 32.469-63.18 34.583-4.439.321-8.956.297-13.4.084-25.614-1.227-45.596-8.641-63.027-27.892-18.238-20.143-21.461-42.928-18.266-69.2.917-7.537 3.066-14.871 3.388-22.475.014-.325.018-.651.027-.976 28.897-29.911 29.052-43.582 74.406-47.46"/><path fill="#EFDD91" d="M485.952 439.342c16.036-2.102 35.952 2.912 49.364 11.861 15.236 10.165 27.213 27.691 30.779 45.684 3.714 18.745-.246 39.283-11.023 55.092-12.564 18.43-32.512 26.814-53.742 30.79-17.46 1.98-37.523-2.521-51.849-12.86-14.476-10.447-25.226-27.082-27.994-44.78-3.203-20.477.632-39.643 12.892-56.459 13.052-17.903 30.182-25.85 51.573-29.328"/><path fill="#353433" d="M485.467 460.236c10.587-.503 20.911.305 30.787 4.515a49.25 49.25 0 0 1 26.959 28.718 51.35 51.35 0 0 1-2.229 40.286c-8.169 16.242-21.592 23.349-38.077 28.673-13.615 1.714-26.217.714-38.14-6.869a50.56 50.56 0 0 1-22.571-32.803 54 54 0 0 1 8.929-41.387c8.492-12.098 20.002-18.654 34.342-21.133"/><path fill="#EFDD91" d="M483.695 472.163c9.241-1.087 19.115-.464 27.778 3.151 9.373 3.912 16.146 10.993 19.783 20.475 4.061 10.589 3.83 22.948-1.081 33.219-5.31 11.103-14.353 17.076-25.625 20.937-10.134 1.831-19.98 1.161-29.329-3.443-9.598-4.728-17.368-13.128-20.667-23.373-3.198-9.934-1.83-21.06 2.891-30.287 5.692-11.125 14.618-17.157 26.25-20.679"/><path fill="#353433" d="M487.596 478.159c8.202-.497 15.302-.29 22.72 3.758a32.55 32.55 0 0 1 15.836 20.243 35.13 35.13 0 0 1-3.868 26.832c-5.331 8.727-13.045 12.688-22.708 14.928-7.402.719-14.178.518-21.038-2.627a32.23 32.23 0 0 1-17.168-18.711c-2.869-8.378-1.914-17.75 2.074-25.604 5.166-10.173 13.666-15.444 24.152-18.819"/></svg>