<svg xmlns="http://www.w3.org/2000/svg" style="display:block" viewBox="0 0 2048 2048"><path d="M0 0h2048v2048H0z"/><path fill="#FBE1A4" d="m1574.99 1171.63 2.21.57c1.33 8.12-.26 16.52 2.86 24.28l-4.84 2.96c-2.3-8.5-.73-19.1-.23-27.81"/><path fill="#FDECBC" d="m957.163 277.378 2.472.48c1.825 8.878-.642 20.164-1.744 29.116l-2.933-8.203a1395 1395 0 0 0 1.047-18.775z"/><path fill="#F0DAA6" d="M968.906 252.365c5.058-2.319 8.379-6.645 12.064-10.675l.896 2.93 2.389 1.134-2.988 2.927-.519 2.573c-5.588 1.98-8.492 6.91-13.573 9.578l-.349-3.358 2.337-2.056-.19-2.112z"/><path fill="#FDECBC" d="M963.157 231.893c2.9 2.501 2.533 4.495 3.189 8.146.059 3.406-.04 6.897.271 10.288l2.356 2.979.19 2.112-2.337 2.056.349 3.358-1.79 3-3.14.923-.568-3.143c-.298-9.8.882-19.914 1.48-29.719M522.135 839.63c1.059-3.436.576-6.05 3.375-8.524 1.201 17.064-1.975 31.679-6.793 47.95l-1.807-3.108c2.526-12.072 4.104-24.052 5.225-36.318m441.848-520.335c-2.113-7.405-3.708-38.677-.824-45.15l3.19-1.057 2.811 4.143-2.106 3.061-.698-.664c-1.222 11.108-.142 22.658.828 33.762-2.181-3.13-3.389-8.352-2.963-12.348.051-.473.204-.931.306-1.396-.205 6.419.298 13.324-.544 19.649"/><path fill="#F0DAA6" d="M1876.78 1043.16c8.58-5.8 19.24-9.92 29.3-12.29 3.93-.93 8.54-2.16 12.2.1.76 2.86.15 3.48-.91 6.18l-2.53-2.58-1.19.41c-11.57 1.22-25.11 6.02-35.22 11.7z"/><path fill="#FBE1A4" d="M956.166 268.957c2.06-2.271 3.065-3.196 6.079-4.202-.514 2.514-1.017 4.919-1.107 7.496-2.341 3.151-4.024.736-5.439 4.815l-2.329-.846-1.156 1.052c-7.357 1.273-12.828 13.179-18.085 18.071-1.008-1.293-2.155-2.213-3.393-3.277 1.163-1.35 2.227-2.647 3.207-4.141 4.567-6.965 9.676-10.452 15.346-16.074l1.021-1.03zm807.714 782.693c12.75 10.35 28.46 22.52 45.12 25.31.98-.41 2.08-.77 2.98-1.33 1.85.24 1.15-.21 2.06.9 4.42 5.46 10.15 9.51 15.02 14.52l-2.25 1.47-2.05-1.62c-2.19-.16-3.77-.07-5.56-1.47-6.03-5.8-24.66-15.58-33.26-16.34l4 4.97-.98.25c-10.35-5.71-21-16.77-29.85-24.78zm69.34 33.65c-9.13-5.06-19.03-19.29-24.44-28.17-11.84-19.43-14.67-44.2-8.68-66.087.68-2.503.83-4.187 3.2-5.521l1.9 1.738-1.02 5.018c-5.8 16.922-1.08 43.642 6.78 59.512 4.5 9.09 12.67 23.32 20.54 29.72l1.77 1.38zm8.53 24.78c1.48.96 2.64 1.26 3.33 2.93.53 3.05 1.68 6.25 1.98 9.28 2.25 22.32-6.27 34.07 6.1 56.95l-3.09 3.14c-11.84-19.08-14.92-28.89-10.6-51.37 1.27-6.61 2.57-12.75 2.35-19.53-.01-.47-.04-.93-.07-1.4"/><path fill="#FDECBC" d="M1839.47 1099.64c3.15 3.63 5.43 7.64 8.26 11.48 14.43 19.58 23.45 36.68 21.69 61.63-.43 6.15-1.29 12.38-2.99 18.32-.94 2.81-1.02 4.08-3.36 5.98l-2.36-.47c-4.61-3.59-7.51-9.33-10.64-14.2l3.09-3.14c2.51 3.93 4.8 8.09 8.27 11.25l1.28-.47c3.86-33.18 1.75-49.28-17.63-77.01-.69-1.67-1.85-1.97-3.33-2.93-.93-3.75-2.29-6.77-4.06-10.19z"/><path fill="#F0DAA6" d="M1594.04 1193.42c7.56-15.14 7.52-17.8 20.99-29.32.11 10.87-.43 21.48-3.23 32.02-1.73-2.58-1.89-4.55-2.16-7.53-1.03 4.19-2.34 14.6-5.99 16.85l-.68-.07-.2.43c-3.54 2.25-3.66 7.16-6.96 10.2l-1.66-.16 1.37-3.43-2.38-.78c-1.55-1.78-.96-3.02-.87-5.28 1.78 2.39 1.69 2.89 4.56 3.46l1.71-1.58c.62-4.88-2.67-10.25-4.5-14.81"/><path d="M1598.37 1196.43c1.42-4.21 2.81-8.43 4.34-12.6 1.46-3.96 3.1-8.54 7.18-10.45l.93 1.17c.48 4.88-.37 9.25-1.18 14.04-1.03 4.19-2.34 14.6-5.99 16.85l-.68-.07z"/><path fill="#FDECBC" d="m241.457 977.813 2.251 1.011c-1.114.996-3.193 2.288-3.464 3.733l4.785 1.707-5.625 2.034c4.304 1.588 10.959.766 15.596.888 17.739.47 39.842 1.574 55.674 10.405.296.484.574.98.888 1.452 2.296 3.447 6.43 4.177 9.24 6.877l-2.036 1.83c-.207-.23-.408-.45-.621-.67-4.095-4.17-9.656-5.88-15.36-6.44-16.738-5.453-36.338-9.281-54.028-8.233l1.192.56-1.526 4.01-11.441-7.476c-.75-1.77-1.586-2.558-3.041-3.739-1.481-1.201-1.657-1.236-2.434-3.09l1.856-.772 2.537-1.872z"/><path fill="#F0DAA6" d="M512.824 876.667c-2.171-14.665-2.759-30.057-.727-44.772.755-5.471 1.218-13.736 5.817-17.196l1.789.373c5.177 4.754 5.176 9.418 5.807 16.034-2.799 2.474-2.316 5.088-3.375 8.524-1.121 12.266-2.699 24.246-5.225 36.318l-1.863.026z"/><path d="M515.047 875.974c-.222-17.884-1.453-35.955 2.866-53.452l2.52-.322-1.005-1.862c3.373 5.206 2.693 13.289 2.707 19.292-1.121 12.266-2.699 24.246-5.225 36.318z"/><path fill="#FDECBC" d="M1742.94 1029.38c21.67 1.45 42.61 7.94 57.45 24.64 10.74 12.08 18.34 24.98 31.64 34.85l.06 1.19-3.03.99c-4.87-5.01-10.6-9.06-15.02-14.52-.91-1.11-.21-.66-2.06-.9-20.01-24.29-29.86-34.55-61.73-41.45 4.25 6.15 8.72 11.84 13.63 17.47l-4.77 1.88c-7.05-7.48-11.93-14.76-16.17-24.15"/><path fill="#F0DAA6" d="M520.987 881.636c.169-.348.342-.693.507-1.042 8.568-18.171 10.142-41.414 32.029-49.701 1.335-.506 2.683-.729 4.082-.973l1.603.978c1.057 8.392-9.305 21.587-14.302 27.974-6.543 8.366-14.467 16.574-22.79 23.174z"/><path d="M551.546 834.586c2.01.992 1.234.2 2.067 2.604-4.378 12.872-16.758 25.487-25.299 36.091l-.525.244-.425-1.486c5.254-12.761 12.54-29.48 24.182-37.453"/><path fill="#FBE1A4" d="M517.526 891.715c-.078.603-.173 1.204-.236 1.809-.409 3.933 1.274 8.656 2.175 12.48 4.696 19.925 5.305 33.342-3.279 52.215l-1.111.783c-3.493-2.362-4.69-9.342-5.482-13.373-3.979-20.245 4.738-35.723 4.594-52.391z"/><path d="M516.33 903.631c5.782 13.869 3.598 32.65-.441 46.672l-1.465-.383c-3.952-13.061-1.206-33.169 1.906-46.289"/><path fill="#FBE1A4" d="M228.261 987.577c5.097 26.433-8.335 54.323-5.202 82.543 1.413 12.72 6.4 24.59 10.34 36.68l-.36 1.14 2.572.98-1.928 4.49-1.421-.28a219 219 0 0 0-3.369-5.99l-1.244.17c-.322-.52-.678-1.02-.966-1.56-20.168-37.71-8.862-79.68 1.578-118.173"/><path d="M1750.25 1034.18c31.87 6.9 41.72 17.16 61.73 41.45-.9.56-2 .92-2.98 1.33-16.66-2.79-32.37-14.96-45.12-25.31-4.91-5.63-9.38-11.32-13.63-17.47m94.83 78.83c19.38 27.73 21.49 43.83 17.63 77.01l-1.28.47c-3.47-3.16-5.76-7.32-8.27-11.25-12.37-22.88-3.85-34.63-6.1-56.95-.3-3.03-1.45-6.23-1.98-9.28"/><path fill="#F0DAA6" d="M249.949 992.967c8.713 5.522 17.753 10.323 25.893 16.713 4.667 1.73 9.388 5.19 13.958 7.4 18.05 8.72 32.993 11.82 52.992 12.05-12.606-11.46-24.802-20.7-40.007-28.49 5.704.56 11.265 2.27 15.36 6.44.213.22.414.44.621.67l2.036-1.83c-2.81-2.7-6.944-3.43-9.24-6.877-.314-.472-.592-.968-.888-1.452 9.969 4.719 35.595 22.709 39.142 33.069.547 1.59.275 1.21-.687 2.83-13.517 5.96-39.224-.45-52.589-5.71-4.167-1.64-8.683-3.61-12.321-6.21-12.393-5.64-24.729-16.6-35.796-24.593zm717.105-712.675 2.106-3.061c19.387 25.79 32.43 47.978 31.81 81.549-.09 4.92.24 11.403-.93 16.128-.397 1.628-.544 1.759-1.217 3.038-1.38.389-1.776.85-3.162.115-11.264-5.978-27.516-38.728-30.606-51.646-.573-2.398-.933-4.665-1.072-7.12.842-6.325.339-13.23.544-19.649-.102.465-.255.923-.306 1.396-.426 3.996.782 9.218 2.963 12.348 1.871 3.206 2.863 9.83 4.111 13.572 5.401 16.195 12.098 28.463 23.155 41.562 1.1-32.279-6.455-62.854-27.396-88.232"/><path d="M1804.18 992.278c3.01 5.236 6.34 10.452 9.05 15.842 12.5 25.86 7.15 51.16 18.27 73.39-7.87-6.4-16.04-20.63-20.54-29.72-7.86-15.87-12.58-42.59-6.78-59.512"/><path fill="#F0DAA6" d="m952.214 277.272 1.156-1.052 2.329.846 1.464.312-1.158 2.618c-6.87 3.021-19.034 27.776-21.994 35.337-6.219 15.886-7.741 34.549-5.825 51.402 16.842-20.38 22.151-42.318 26.772-67.964l2.933 8.203c-.765 8.256-1.873 16.413-3.996 24.442-4.934 18.664-14.654 37.395-31.81 47.358-1.578-25.848-2.412-53.5 11.968-76.14 5.573-8.775 12.426-16.68 18.161-25.362"/><path d="M928.186 366.735c-1.916-16.853-.394-35.516 5.825-51.402 2.96-7.561 15.124-32.316 21.994-35.337a1395 1395 0 0 1-1.047 18.775c-4.621 25.646-9.93 47.584-26.772 67.964m38.998-53.345c-.97-11.104-2.05-22.654-.828-33.762l.698.664c20.941 25.378 28.496 55.953 27.396 88.232-11.057-13.099-17.754-25.367-23.155-41.562-1.248-3.742-2.24-10.366-4.111-13.572M249.949 992.967l-1.192-.56c17.69-1.048 37.29 2.78 54.028 8.233 15.205 7.79 27.401 17.03 40.007 28.49-19.999-.23-34.942-3.33-52.992-12.05-4.57-2.21-9.291-5.67-13.958-7.4-8.14-6.39-17.18-11.191-25.893-16.713"/><path fill="#FBE1A4" d="M1573.24 1247.65c-5.32 6.08-15.23 14.42-23.37 16.17-2.43.52-2.79.3-4.7-.97l-.41-2.27c4.14-9.51 10.47-21.86 21.67-24.02 2.95-.57 7.82-.06 10.46-1.33 1.8-.86 4.67-4.56 6.31-6.05.8 3.3-7.3 13.6-9.44 17.56 4.93-3.23 8.86-7.04 13-11.22l1.79.08c.31 3.39-3.78 4.32-4.55 8.03l1.57 1.6c-.48 2.3-.42 1.92-1.91 3.39-1.38-.52-2.66-1.05-3.98-1.73-.39-.2-.77-.42-1.15-.62-2.56 4.14-1.42 25.24-.91 30.68l.16 1.62c11.41-16.45 8.01-31.53 13.52-40.44 1.2-1.94 1.89-1.85 3.98-2.31 3.25.88 4.89 2.58 7.25 4.82l.34 1.1c6.53 5.44 10.02 13 11.78 21.21l2.13-4.27c1.61 6.29 1.25 12.58 1.18 19.02-14.23-7.62-17.53-18.15-23.85-32.26-4.47 16.08-5.5 24.34-17.28 37.44-4.54-11.03-3.69-23.53-3.59-35.23"/><path d="M1566.19 1238.69c1.56.74 3.05 1.19 4.06 2.67.72 1.03.31 2.58-.15 3.65-2.36 5.45-11.7 10.03-16.7 12.88l-2.46.52-1.21-1.05c1.89-6.83 11.3-13.82 16.46-18.67m36.68 3.05c6.53 5.44 10.02 13 11.78 21.21.25 2.2.26 4.33.26 6.54l-1.4 1.38c-1.18-.31-2.05-.7-2.92-1.59-4.3-4.4-11.81-18.44-11.78-24.43z"/><path fill="#FDECBC" d="M522.964 883.198c16.217-10.44 35.442-25.009 56.154-20.941 1.574.309 2.775.936 4.11 1.792l.499 1.842c-6.591 11.281-37.304 15.602-49.627 20.992l-1.292.556c12.972 1.641 41.444 6.521 49.018 18.723.542.873.617 1.465.834 2.394-.979 1.892-1.083 2.396-3.289 3.016-13.473 3.786-32.152-6.582-43.35-12.962-3.799-2.165-7.892-5.207-12.128-6.271.321-1.008 1.218-1.695 1.932-2.458l.153-.991c-.185-1.083-.108-.315.234-2.301l-1.293-1.098z"/><path d="M524.919 885.491c15.413-9.926 33.957-21.065 52.976-19.902l.963.969c-2.006 1.817-4.141 2.684-6.621 3.682-9.19 3.698-18.935 6.055-28.264 9.388-5.913 2.113-11.505 5.92-17.761 6.961zm1.059 3.399c15.602 3.874 37.58 6.467 50.283 16.561l.356 1.544c-6.946 2.528-16.356-.887-22.729-3.846-9.188-4.266-18.651-9.723-28.063-13.268z"/><path fill="#F0DAA6" d="M1844.61 1103c4.36 1.06 8.38 4.77 12.12 7.23-1.84-2.85-4.07-5.43-6.21-8.06 40.96 21.89 40.1 13.03 68.09 54.37 1.66 2.45 2.98 5.23 4.39 7.83-51.73-10.94-47.07-27.36-78.39-61.37"/><path d="M1858.86 1111.5c9.59 2.66 37.93 17.22 42.9 25.85 4.87 8.44-.41 9.55 9.67 17.71l-.57.81c-1.08 0-1.29.05-2.51-.22-22.39-4.92-38.63-25.69-49.49-44.15"/><path fill="#FBE1A4" d="m1913.65 1034.98 1.19-.41 2.53 2.58-.57.65c-12.36 14.31-22.3 31.06-37.4 42.81-1.24.97-2.45 1.98-3.67 2.97-2.76 2.06-6.75 2.93-10.19 2.59-.32-.03-.63-.12-.94-.18-8.95 2.46-18.33 2.31-27.1 5.46v-.65c3.44-3.04 8.57-2.58 12.64-5.09-.27-.92-.29-2.05-.4-3.01 4.1-7.4 7.3-14.59 9.79-22.68 3.03-1.5 11.48-13.18 17.25-16.86l1.65 3.52c10.11-5.68 23.65-10.48 35.22-11.7"/><path d="M1891.92 1064.98c-6.42 6.43-13.36 12.69-21.66 16.61-2.74 1.29-3.97 1.61-5.66 4.4-8.95 2.46-18.33 2.31-27.1 5.46v-.65c3.44-3.04 8.57-2.58 12.64-5.09 13.44-7.17 29.6-11.88 41.78-20.73m-13.49-18.3c10.11-5.68 23.65-10.48 35.22-11.7-7.07 7.05-12.78 15.32-19.92 22.18-10.53 10.11-24.49 13.91-37.08 20.7 2.94-13.9 11.05-22.58 21.78-31.18"/><path fill="#F0DAA6" d="M963.157 231.893c-.674-26.519 9.786-54.388 27.644-74.093 2.619-2.891 4.886-4.549 8.687-5.409 1.362.44 2.062.252 2.702 1.694 5.18 11.741-5.091 51.694-10.886 63.897-5.838 12.294-14.391 23.434-22.398 34.383l.067.941-2.356-2.979c-.311-3.391-.212-6.882-.271-10.288-.656-3.651-.289-5.645-3.189-8.146"/><path d="M966.346 240.039c2.806-31.794 9.887-53.695 30.319-78.558-1.324 37.783-10.015 57.681-30.048 88.846-.311-3.391-.212-6.882-.271-10.288"/><path fill="#FDECBC" d="M1875.73 1083.58c18.4-3.5 40.31-1.49 57.66 5.69 3.16 1.19 5.46 2.02 7.79 4.52.1 1.81.53 2.03-.76 3.48-7.78 8.78-30.85 11.91-42.11 12a97.6 97.6 0 0 1-25.79-3.17c-6.6-.61-17.92-1.58-23.77-4.26-3.4-1.56-6.27-3.98-9.71-5.56l.43 3.36-1.78.25-1.14-.85c.7 6.81-1.74 40.69-4.2 45.17-.19.35-.51.62-.76.92-.7-12.68-.17-42.81 5.91-53.68 8.77-3.15 18.15-3 27.1-5.46.31.06.62.15.94.18 3.44.34 7.43-.53 10.19-2.59"/><path d="M1873.36 1104.59c-9.98-3.41-19.77-4.39-29.26-9.34l-.52-2.28.04 1.95-.53-1.99-.32-.05-.39 1.05 1.67-1.14c9.28.77 15.07 3.34 23.21 7.63 1.91.76 6.1 1.72 6.92 3.51zm-15.22-13.44c25.82-6.39 49.22-4.25 74.74 2.22l-.18 2.29c-8.81 7.35-30.6 9.24-41.72 8.36-7.06-.56-14.95-4.33-21.42-7.17-3.93-1.59-7.67-3.74-11.42-5.7"/><path fill="#F0DAA6" d="M980.97 241.69c19.94-25.858 38.49-40.682 71.86-45.288 1.54-.212 2.88-.098 4.39.198.9.768 1.77 1.083 1.89 2.359.67 6.994-13.69 21.999-18.46 26.822-14.66 14.812-31.22 21.521-50.048 29.453-7.997 3.37-15.904 7.081-24.428 8.892 6.244-4.373 12.075-8.42 19.439-10.717l.248-.873c-1.688-.322-3.598-.466-5.113-1.282l.519-2.573 2.988-2.927-2.389-1.134z"/><path d="M984.255 245.754c21.775-24.547 34.785-36.571 67.705-43.303-15.38 21.718-35.28 40.751-62.236 46.133-2.843.568-5.601.364-8.457.097z"/><path fill="#F0DAA6" d="M924.623 151.168c3.798 1.018 6.042 2.342 8.911 5.039 6.335 5.955 11.059 13.611 15.419 21.063 17.942 30.674 9.904 48.667 11.332 81.323l.064 1.19c-12.256-6.58-21.068-27.46-25.77-40.04-5.402-14.452-16.433-54.277-9.956-68.575"/><path d="M929.056 161.464c.416.274.84.536 1.25.821 3.584 2.49 6.726 7.605 9.266 11.142 20.219 28.158 13.144 47.205 18.198 76.869.057.336.122.67.184 1.005-19.651-27.658-26.214-56.492-28.898-89.837"/><path fill="#F0DAA6" d="M1574.99 1171.63c.76-2.65 1.13-5.22 3.4-7.01 2.61.32 3.49.97 5.01 3.18 5.03 7.3 9.77 24.62 7.79 33.26-.33 1.47-.83 2.46-1.48 3.86-.81 1.75-1.2 2.6-.54 4.51.53 1.52 1.6 3.08 2.35 4.5.97 1.84.94 3.46 1.69 5.2.14.34.46.57.69.85 4.44-2.28 6.76-6.26 10.58-9.4.41-2.83-.12-2.57-1.71-4.78l.2-.43.68.07c3.65-2.25 4.96-12.66 5.99-16.85.27 2.98.43 4.95 2.16 7.53l-1.12 5.37 1.34.55 1.13-.67c7.77-4.49 21.58-9.93 30.53-8 .33.07.66.2.99.31l.78 1.6c-5.17 9.25-17.43 18.72-27.49 21.42-2.93.79-6.1.75-9.1.69l5.41 1.78c6.89 2.23 30.57 10.52 33.35 16.36.16.33.23.71.35 1.06-1.61 2.56-3.5 3.18-6.43 3.76-10.64 2.13-21.71-.26-32.2 2.01 3.06 4.84 7.16 10.42 7.44 16.32l-2.13 4.27c-1.76-8.21-5.25-15.77-11.78-21.21l-.34-1.1c-.04-.41.01-.84-.12-1.23-.75-2.31-1.83-3.28-1.86-5.89l1.52-1.38c2.63 4.07 5.31 5.86 9.87 7.39l1.13-.73c-1.96-3.17-5.23-5.26-8.15-7.49-5.49.41-6.89.04-11.05-3.44l-1.81.28c-.17-.77-.34-1.54-.44-2.33-.55-4.16-.99-9.34-3.56-12.81-1.92-2.6-4.74-3.02-7.72-3.42 5.19 5.28 7.03 9.1 7.17 16.51l-1.47-1.67c-.05-2.98.14-5.34-1.61-7.91-3.07-2.04-4.85-3.82-8.56-4.11l-.04 1.58c1.56 1.16 2.47 2.05 3.51 3.7-1.62.29-.92.32-2.62-.05-2.39-.53-4.44-1.38-6.88-.75 2.98 4.52 9.1 6.09 13.89 7.93-4.11.59-7.48.01-11.04-2.21-1.53-.96-1.86-1.18-3.73-1.63.71 2.2 1.07 3.75.93 6.09-.04.68-.1 1.36-.15 2.04 2.19 1.26 4.59-.49 7.02-1.03 2.18-.48 2.01-.76 4.02.5-1.88 2.09-4.8 2.55-7.39 3.49-1.42.51-2.44.95-3.91 1.13-8.61 1.1-29.45-.55-36.1-6.16-1.44-1.21-.99-.63-1.1-2.71.3-.29.58-.61.91-.87 7.82-6.1 28.04-8.91 38-8.56-10.36-4.09-21.32-10.05-26.16-20.8-1.07-2.36-1.24-3.58-.26-5.93.78-.29 1.34-.55 2.21-.62 5.07-.44 17.79 6.37 21.59 9.89 3.78 3.5 6.09 7.84 10.33 11.01.23.17.47.33.7.5-.91-3.56-2.55-6.35-4.38-9.51l4.84-2.96c-3.12-7.76-1.53-16.16-2.86-24.28z"/><path d="M1593.9 1219.98c9.88.04 17.32.2 25.91 5.63-6.59.38-18.36 3.37-23.93.89zm-46.32-28.42c2.62.38 5.11 1.14 7.57 2.09 8.51 3.27 16.65 9.71 20.45 18.12-1.86 0-3.49-.26-5.27-.8-10.08-3.05-17.93-10.2-22.75-19.41m10.61 27.79c1.55-.08 3.88-.19 5.34.29 2.66.88 3.02 1.64 4.19 3.94-.6 1.81-.36 1.92-2.03 3.16-4.5 3.36-10.22 1.46-15.33.63l-17.4-2.35c8.3-2.66 16.61-4.37 25.23-5.67m61.57 9.08c.28-.09.55-.2.83-.26 7.44-1.53 17.48 5.22 23.69 8.67l-15.33.37c-9.06-.33-16.47-3.4-24.33-7.53zm14.46-31.32c1.95-.14 2.21-.17 4.04.75-.06.29-.09.59-.2.87-2.46 6.26-17.2 12.75-23.18 15.25-2.21-.12-2.39-.12-4.13-1.48-.21-1.59-.72-2.56.13-4.04 3.7-6.44 16.72-9.24 23.34-11.35m-57.02-24.91 2.17-2.4c3.94 2.58 6.35 13.77 7.31 18.48 1.01 4.96 2.36 11.04.09 15.75l-1.8.4c-2.74-2.15-3.61-4.84-4.91-7.95-3.12-7.76-1.53-16.16-2.86-24.28"/><path fill="#F0DAA6" d="M1367.82 1372.91c2.51.08 5.4-.05 7.77.82 3.24 1.19 5.79 4.06 6.88 7.3 4.17 12.38-5.48 36.57-11.53 47.79-16.73 31.04-44.61 47.72-77.51 57.67-1.73.2-4.27.67-5.94.3-2.48-.55-3.62-1.65-5-3.67-2.17-3.18-4.05-8.9-3.19-12.76.44-2.01 1.04-3.03 2.9-4.05 11.1-6.09 23.94-8.34 35.83-15.57 18.43-11.22 31.76-27.38 37.56-48.3 1.76-6.34 2.69-12.9 4.35-19.26 1.44-5.46 3.01-7.35 7.88-10.27M506.338 885.922c.453-.007.912.049 1.359-.021 2.26-.354 2.795-.817 4.026-2.544-2.153-4.745-8.699-9.325-12.461-13.092-8.46-8.474-15.967-18.459-20.331-29.716-1.725-4.448-3.693-9.88-1.749-14.405 2.709-.73 2.994-.179 5.573 1.045 14.688 13.33 22.711 26.602 26.828 46.051l1.843 4.461 1.154.398.244-1.432 2.223-.693 1.863-.026 1.807 3.108.069 1.806 2.201.774 1.129.41.848 1.152 1.955 2.293 1.293 1.098c-.342 1.986-.419 1.218-.234 2.301l-.153.991c-.714.763-1.611 1.45-1.932 2.458 12.728 14.397 24.912 24.009 30.667 43.422 1.077 3.63 1.635 6.34-.21 9.736-.962.256-1.781.537-2.813.499-15.892-.579-24.461-44.927-32.971-53.316-.337-.332-.693-.644-1.04-.965l-3.339 1.523-1.171-.382c-2.319 2.911-3.695 7.021-5.145 10.45-5.692 13.451-10.211 26.224-22.209 35.491-3.076 2.375-7.745 6.386-11.798 5.871l-.698-1.952c3.019-18.748 18.79-36.732 32.351-48.946-8.651 4.7-17.62 9.152-26.788 12.748-6.723 2.637-24.244 8.831-30.912 5.352-1.389-.725-1.337-1.787-1.816-3.166.437-1.251.412-1.417 1.321-2.662 10.319-14.132 42.387-16.469 58.118-19.453-14.814-6.595-44.502-8.552-56.477-23.677-.499-2.616-.463-2.451.977-4.708 6.058-2.368 16.637 1.275 22.81 2.623 11.995 3.781 28.81 10.188 35.456 21.852.229.402.33.864.495 1.296-10.918-8.504-23.171-13.859-36.184-18.38-6.921-2.037-13.847-3.752-20.886-5.327 6.175 4.436 12.122 8.027 19.067 11.126 7.745 3.454 31.502 9.041 35.64 14.528"/><path d="M524.051 897.558c.39.234.796.444 1.17.703 11.851 8.171 23.731 30.259 26.355 44.16-8.872-4.472-22.615-35.03-27.525-44.863m-43.655-67.387c11.208 7.24 22.861 31.422 26.841 43.843-11.377-9.563-24.681-28.928-26.841-43.843m28.962 61.816.095 1.542c-8.041 17.265-16.53 35.264-31.902 47.158-.064-.294-.169-.581-.191-.881-.673-9.289 24.767-39.369 31.998-47.819m-1.247-3.547-.606 1.431c-7.451 6.537-44.233 17.69-55.11 19.134l-.085-2.318c11.012-10.836 39.995-13.689 54.624-17.899z"/><path fill="#F0DAA6" d="M769.36 558.194c1.057.007.852-.031 1.922.128 4.43.656 7.437 2.396 10 6.125 1.683 2.447 2.58 5.484 1.812 8.432-2.352 9.033-29.633 16.234-38.459 21.406-29.106 17.057-42.196 40.921-50.702 72.393-1.855 6.863-3.04 10.983-9.428 14.673-2.312-.066-4.959.014-7.177-.678-4.79-1.497-6.746-6.364-8.86-10.427.679-20.164 7.754-39.751 18.963-56.417 18.546-27.572 49.099-49.258 81.929-55.635m196.025-294.362c.292.095.583.194.876.285 1.756.545 3.524 1.142 5.389.879 13.9-1.96 29.32-8.973 45.08-10.93a123.3 123.3 0 0 1 46.2 2.675c5.67 1.369 13.43 2.681 17.14 7.487.04 2.195.24 2.746-1.33 4.457-8.28 8.995-34.49 13.113-46.54 13.128-13.97.016-27.57-3.069-41.117-6.191 27.027 11.747 53.717 24.773 65.927 53.779.52 1.241.56 2.093.33 3.404-2.12 1.622-3.6 1.595-6.25 1.334-21.55-2.117-48.87-19.591-62.433-36.151-6.22-7.592-13.316-20.54-22.308-24.9-1.937-1.162-2.998-.822-5.211-.837.09-2.577.593-4.982 1.107-7.496z"/><path d="M974.871 274.726a107 107 0 0 1 3.002.588c29.357 6.252 56.397 28.087 72.337 52.861-32.67-6.717-54.584-29.353-75.339-53.449m41.879-15.371c18.3-2.303 37.7-.186 54.7 7.053-12.19 5.615-24.71 8.616-38.04 9.903-20.22.42-39.321-5.652-58.967-9.393 14.162-1.656 28.147-5.504 42.307-7.563"/><path fill="#F0DAA6" d="M1362.13 293.316c8.6-.372 17.31-.326 25.91-.184 109.94 1.818 219.03 43.925 296.06 123.775 45.76 47.426 84.12 105.523 101.04 169.698 2.97 11.273 6.54 23.362 6.32 35.068-2.07-.139-3.64-.608-5.58-1.312-3.09-3.145-11.6-41.487-14.11-48.949-46.68-138.963-173.44-238.607-315.87-263.966-16.99-3.024-34.53-5.259-51.77-5.953-10.81-.435-21.78.417-32.54-.371-3.19-.234-5.72-.524-8.59-1.955-1.59-2.518-1.24-2.844-.87-5.851M235.9 980.028c11.911-37.098 24.658-75.067 60.27-95.649 3.004-1.736 4.921-2.825 8.337-1.913 1.713 2.22 2.176 3.744 2.024 6.503-1.346 24.406-15.216 52.681-34.992 67.259-9.103 6.71-20.245 12.15-28.542 19.693-.461.419-.912.848-1.368 1.272.559-.142 1.123-.271 1.679-.425 4.666-1.299 9.776-5.103 13.953-7.675 23.532-14.488 40.91-30.658 69.955-32.398 7.343-.439 16.214-.735 23.309 1.263l1.479 1.54c-2.826 9.58-26.771 26.943-36.029 31.965-21.127 11.461-47.289 13.534-70.946 12.801l-4.785-1.707c.271-1.445 2.35-2.737 3.464-3.733l-2.251-1.011z"/><path d="M243.708 978.824c20.327-.543 40.86-24.324 60.291-31.323 12.965-4.67 26.76-4.755 40.36-5.362-41.718 38.439-53.858 30.673-104.115 40.418.271-1.445 2.35-2.737 3.464-3.733m54.475-89.092 1.211.454c.174 1.035.246 1.197.183 2.407-.203 3.868-1.667 8.378-2.542 12.18-7.051 30.653-28.197 46.554-51.361 65.543l-.999.362-.519-1.001c14.794-35.017 21.835-57.01 54.027-79.945"/><path fill="#F0DAA6" d="M1447.06 1379.05c2.58 0 5.65-.25 7.95 1.11 2.98 1.77 4.59 4.06 5.51 7.34 6.16 21.95-14.25 67.98-24.94 87.01-24.86 44.29-72.34 74.43-120.33 87.8-.96.06-1.23.1-2.3.03-3.5-.23-6.62-1.25-8.65-4.32-1.77-2.67-2.4-6.43-1.62-9.53 3.27-13.16 36.3-17.05 47.35-23.71 39.1-23.59 71.86-60.54 84.12-105.17 2.97-10.82 2.74-22.31 5.6-33.15 1.09-4.17 3.85-5.3 7.31-7.41M740.972 485.179c1.082-.141 2.165-.295 3.253-.384 4.185-.34 9.072.634 12.162 3.718 2.014 2.009 2.69 3.607 2.701 6.452.013 3.408-2.078 7.324-4.881 9.183-6.54 4.34-16.869 6.449-24.351 9.138a169.7 169.7 0 0 0-59.236 35.654c-18.383 16.974-34.705 40.39-44.727 63.28-4.427 10.11-7.584 20.97-10.044 31.712-1.451 6.335-2.204 14.411-4.823 20.225-.961 2.132-2.667 3.65-4.409 5.147-3.61 1.02-7.331 1.802-10.931.207-3.024-1.34-4.686-4.136-5.462-7.213-5.073-20.116 15.589-67.498 25.727-84.426a204.18 204.18 0 0 1 125.021-92.693m125.333-292.983c26.316 3.968 49.262 14.71 65.593 36.303 6.793 8.981 12.569 18.956 19.861 27.523 3.438 4.039 4.736 5.165 9.918 5.59l.568 3.143c-3.014 1.006-4.019 1.931-6.079 4.202l-5.856 1.864-1.021 1.03c-5.67 5.622-10.779 9.109-15.346 16.074-.98 1.494-2.044 2.791-3.207 4.141 1.238 1.064 2.385 1.984 3.393 3.277-13.69 18.197-37.57 36.219-59.854 41.805-3.156.791-5.524.86-8.408-.865-.816-2.382.088-3.747 1.104-5.942 14.547-31.415 36.096-46.746 67.619-58.321 2.555-.743 4.786-1.266 7.066-2.688-10.542 1.667-20.616 5.707-31.001 8.151-23.475 5.526-49.437-.6-70.361-11.668 19.961-14.327 49.351-20.235 73.296-14.28 12.636 3.142 24.589 8.591 37.524 10.624l1.315.194c-9.598-7.805-26.251-11.577-37.763-16.446-21.894-9.26-39.611-32.16-48.361-53.711"/><path d="M875.741 200.612c31.844 4.905 48.694 29.405 68.487 51.64-5.246-1.418-10.554-4.059-15.578-6.169-24.128-10.129-37.995-24.078-52.909-45.471m11.352 54.712c7.479-.721 14.856-.537 22.256.773 4.967.879 39.67 8.526 40.966 10.365-1.421.721-1.97.724-3.572.493-10.255-1.483-18.796 1.417-28.671 3.844-21.159 5.475-45.726 1.706-65.82-6.008 10.879-5.031 23.074-7.552 34.841-9.467m63.217 15.497-1.021 1.03c-5.67 5.622-10.779 9.109-15.346 16.074-.98 1.494-2.044 2.791-3.207 4.141-16.787 16.836-34.398 29.75-56.832 38.066 14.002-27.487 36.05-44.522 64.237-55.61 3.982-1.392 8.128-2.479 12.169-3.701"/><path fill="#F0DAA6" d="M1526.76 1386.02c3.05.11 6.09.31 8.96 1.47 3.02 1.23 5.33 3.51 6.38 6.65 5.66 16.87-17.03 80.17-25.87 98.46a277.28 277.28 0 0 1-127.29 126.27c-16.17 7.77-33.15 13.3-50.08 19.14-1.68.23-3.01.26-4.71-.02-3.29-.54-6.54-3.2-8.36-5.91-1.78-2.65-2.45-5.82-1.66-8.96.94-3.69 3.56-6.26 6.79-8.04 6.34-3.47 14.15-3.77 20.96-6.21 19.26-6.87 38.48-16.55 55.57-27.69a253.32 253.32 0 0 0 106.57-148.46c3.37-12.97 2.7-26.54 5.85-39.22.96-3.87 3.77-5.47 6.89-7.48M723.625 408.326c.496.059.996.097 1.49.177 3.369.54 5.678 1.652 7.574 4.563 1.987 3.052 2.069 6.824.986 10.202-.936 2.919-2.458 5.073-5.051 6.742-6.752 4.346-18.409 6.126-26.115 8.897-11.339 4.079-22.43 9.22-33.186 14.656-56.97 28.79-103.606 86.901-123.715 147.179a278 278 0 0 0-8.207 31.294c-1.649 8.403-2.593 17.712-5.563 25.727-1.703 4.595-5.96 6.294-10.112 8.135-2.177-.451-4.507-1.077-6.34-2.397-3.439-2.479-4.659-6.676-5.098-10.682-.998-9.1 1.457-19.213 3.416-28.067 9.586-43.342 30.248-84.154 57.534-119.032 33.143-42.363 98.409-90.775 152.387-97.394M1833.33 1081.17c.99-28.26 4.32-54.06 19.23-78.7 2.86-4.711 6-10.403 10.03-14.215.94-.894 1.9-1.493 3.01-2.151l1.97.175c5.22 6.34 3.93 27.711 3.19 35.641-.81 8.83-2.62 17.27-5.88 25.53-1.61 4.05-4.73 8.31-5.35 12.57-2.49 8.09-5.69 15.28-9.79 22.68.11.96.13 2.09.4 3.01-4.07 2.51-9.2 2.05-12.64 5.09v.65c-6.08 10.87-6.61 41-5.91 53.68-2.54 4.29-4.14 9.84-5.93 14.49-6.12 15.89-12.64 28.13-25.61 39.47a353 353 0 0 1-2.32-12.12c-6.28-38.24 10.08-57.65 31.34-87.03-.61-.11-1.24-.15-1.87-.2l-.23 1.04c-33.71 30.79-32.87 52.67-84.33 61.31 3.43-9.99 8.12-17.22 14.87-25.28 16.96-19.49 37.6-27.06 61.23-35.83-6.95 4.96-15.74 7.61-22.19 13.05 4.95-.51 9.89-1.72 14.88-2.27 5.18-4.54 8.38-10.79 13.28-15 1.82-1.56 1.49-1.19 2.09-3.24-13.4 4.3-29.97 14.15-43.47 15.7-12.71 1.46-47.51-2.29-56.48-11.61-1.87-1.94-2.07-2.44-2.13-4.97.9-.77 1.7-1.47 2.76-2.03 27.59-14.75 63.14-9.29 91.72-1.18 1.79 1.4 3.37 1.31 5.56 1.47l2.05 1.62 2.25-1.47 3.03-.99-.06-1.19 1.19-3.57.05-2.41-1.77-1.38c-11.12-22.23-5.77-47.53-18.27-73.39-2.71-5.39-6.04-10.606-9.05-15.842l1.02-5.018c5.6 6.468 9.91 13.49 13.24 21.38 13.14 21.12 6.88 45.53 13.71 68.44z"/><path d="M1761.1 1140.23c9.04-8.7 22.12-23.14 34.84-25.85.9 3.48 4.39 5.89 7 8.22-16.5 17.45-29.4 28.02-53.34 33.54 3.62-5.52 7.32-10.78 11.5-15.91m58.57-17.92c2.02.73 2.95 1.11 4.24 2.85 3.42 18.38-8.69 48.78-18.96 63.98l-1.52.44c-.5-1.05-.6-1.15-.94-2.46-6-23.42 4.65-45.82 17.18-64.81m44.8-127.569c.58.748.72.824 1.08 1.857 1.24 3.542.6 9.392.51 13.082-.54 22.71-6.05 42.59-17.45 62.3-3.12 5.37-8.67 8.29-11 14.06-.12.28-.21.56-.32.84l-1.15-.79-.32-2.02c18.29-28.12 2.77-58.7 28.65-89.329m-107.54 92.609c18.5-2.31 38.15-.03 56.27 3.83-2.49.72-4.85 1.02-7.38 1.47-2.59.46-5.37 1.25-6.95 3.5 7.07 3.09 16.04-5.24 23.84-3.8l-.92 1.15c-4.14.5-7.86 2.12-11.73 3.6-31.15 7.27-49.66 13.14-79.53-3.76a176 176 0 0 1 26.4-5.99"/><path fill="#F0DAA6" d="M1611 1393.04c3.57-.21 7.6-.5 10.95 1.01 2.46 1.11 3.73 2.46 4.64 4.99 2.63 7.3-.63 18.82-2.09 26.23-7.22 36.58-18.38 71.02-35.29 104.31-47.1 92.78-126.25 152.89-224.02 184.9-1.33.2-2.91.52-4.28.49-3.27-.07-5.43-1.27-7.54-3.75-2.59-3.05-4.92-7.34-4.06-11.47.12-.58.29-1.15.53-1.68 2.99-6.7 17.98-9.55 24.59-11.77a341.5 341.5 0 0 0 137.06-87.85 343.2 343.2 0 0 0 78.11-130.98 371 371 0 0 0 9.29-36.89c1.61-7.83 3.51-26 6.64-32.3 1.01-2.05 3.7-3.84 5.47-5.24M692.981 333.057c1.662-.175 3.352-.362 5.025-.342 3.396.042 7.238 1.309 9.41 4.042 1.936 2.436 2.295 5.611 1.748 8.583-.688 3.738-2.903 7.395-6.189 9.379-8.142 4.916-20.4 7.22-29.487 10.569-21.491 7.921-42.115 17.353-61.467 29.667-68.387 43.517-122.871 110.044-146.914 188.01a426 426 0 0 0-10.337 42.037c-1.625 8.677-2.431 17.839-4.593 26.369-.964 3.803-3.319 5.235-6.431 7.142-3.217.369-6.803.766-9.843-.67-2.685-1.268-4.37-3.095-5.433-5.826-2.807-7.212-.112-17.248 1.215-24.562a374.6 374.6 0 0 1 31.256-97.51 374.57 374.57 0 0 1 174.426-174.969c18.46-8.847 38.308-15.175 57.614-21.919"/><path fill="#F0DAA6" d="M1695.64 1400.12c2.72.12 6.51.13 9 1.36 2.41 1.19 3.86 3.1 4.53 5.66 2.32 8.96-.84 21.39-2.44 30.51a444 444 0 0 1-51.95 145.74c-56.29 98.41-158.01 177.92-267.56 207.77-1.95.16-4.06.43-6-.04-2.21-.54-3.8-2.01-4.97-3.91-2.06-3.33-3.19-8.37-2.04-12.2.75-2.5 2.16-4.22 4.53-5.31 9.69-4.44 20.78-7.01 30.84-10.66 19.96-7.25 40.21-16.37 58.61-26.91 101.08-57.88 169.37-135.89 204.02-248.45 4.4-14.29 8.34-29.19 10.79-43.93 1.76-10.57 2.06-22.61 5.23-32.78 1.18-3.8 4.15-5.11 7.41-6.85M674.255 254.166c1.537.243 2.816.517 4.225 1.2 2.998 1.451 6.08 4.105 6.937 7.434.693 2.689.177 5.433-1.072 7.863-5.453 10.608-19.69 11.275-29.763 14.834a427.52 427.52 0 0 0-265.74 268.805c-6.245 18.26-11.278 37.467-15.068 56.4-2.294 11.46-1.116 26.095-6.485 36.548-2.024 3.942-4.336 4.964-8.431 6.321-2.272-.582-4.863-1.095-6.918-2.246-3.089-1.732-4.801-5.002-5.5-8.354-1.697-8.135 1.07-18.528 2.216-26.773 8.036-57.776 31.117-117.523 62.836-166.513 50.245-77.601 119.562-138.446 204.673-175.24 18.526-8.009 38.311-16.059 58.09-20.279"/><path fill="#F0DAA6" d="M1778.01 1404.92c2.6.03 5.6.4 7.98 1.55 3.02 1.47 4.95 4.09 5.81 7.28 2.37 8.79-1.21 21.15-2.72 30.02a558.5 558.5 0 0 1-60.87 175.56c-49 89.46-122.94 158.31-212.01 206.87-32.71 17.83-68.17 33.43-103.98 43.88-1.51.17-3.26.46-4.77.31-2.7-.27-4.4-1.44-5.96-3.63-2.22-3.11-3.7-8.53-2.89-12.35.64-3.01 1.71-4.18 4.37-5.59 12.14-6.39 27.3-9.58 40.19-14.52a451.6 451.6 0 0 0 76.73-37.19c21.98-13.14 43.92-27.21 64.01-43.11a500.24 500.24 0 0 0 166.29-243.46 680 680 0 0 0 16.02-68.06c1.66-9.39 1.76-19.25 4.28-28.46 1.38-5.05 3.13-6.58 7.52-9.1M647.4 177.138c2.291-.142 4.417-.211 6.653.501 2.812.895 4.988 3.129 6.327 5.703 1.303 2.507 1.525 5.307.611 7.984-1.362 3.988-4.833 6.477-8.431 8.333-12.225 6.306-27.053 9.486-40.033 14.292-17.845 6.608-35.161 15.169-52.147 23.704-110.115 55.33-212.36 169.407-250.075 287.263-6.298 19.681-12.481 39.684-16.626 59.948-1.921 9.397-6.26 46.187-8.284 50.94-1.871 4.393-4.29 5.445-8.474 7.155-2.927.062-6.257-.09-8.904-1.513-2.827-1.519-4.482-4.162-5.219-7.213-2.294-9.491 1.778-23.397 3.385-33.127 11.367-68.818 36.003-131.436 72.788-190.609a542.57 542.57 0 0 1 231.937-205.388c24.464-11.438 50.141-21.82 76.492-27.973M225.635 985.676c-.238-.389-.472-.78-.714-1.166-4.61-7.34-10.744-11.665-17.551-16.837-25.482-19.362-38.562-30.376-47.87-61.712-1.602-5.394-5.02-14.639-4.072-20.198.2-1.177.549-1.737 1.043-2.734 2.508-.977 3.686-.729 6.156.425 5.434 2.538 10.604 6.666 15.323 10.31 18.867 14.57 31.898 31.215 38.929 54.256 3.11 10.194 4.162 22.369 8.669 31.873l.235-1.574-.245 1.553-1.067-1.822 1.412-1.1c-5.662-34.925-14.517-66.571-1.974-101.215 1.456-4.022 3.066-10.633 5.884-13.719 1.139-1.247 1.24-1.228 2.466-2.051 2.202.221 2.634.232 4.181 1.999 9.698 11.078 15.084 50.981 13.686 65.793-1.744 18.469-13.04 35.987-16.763 54.143l-1.856.772c.777 1.854.953 1.889 2.434 3.09 1.455 1.181 2.291 1.969 3.041 3.739 3.593 6.021 12.649 11.709 18.297 15.949 23.021 17.29 35.702 27.95 44.73 56.19 3.27 10.23 5.753 21.1 6.404 31.84-28.609-14.01-46.423-31.47-56.823-61.91-3.631-10.63-7.254-31.09-14.487-38.761-.331-.351-.649-.713-.987-1.056-.203-.207-.424-.397-.637-.595 12.989 36.722 24.013 76.652 6.198 114.162-1.678 3.53-3.398 7.62-6.395 10.22-1.921-.24-1.541.2-2.612-1.25-1.57-2.12-2.22-4.51-3.021-6.98l1.244-.17a219 219 0 0 1 3.369 5.99l1.421.28 1.928-4.49-2.572-.98.36-1.14c13.024-20.98 9.788-60.27 5.081-83.18-2.276-11.07-6.038-21.69-8.442-32.695l-.222-1.05c-2.836.851-3.423 1.416-4.727 4.111-4.472 9.234-6.18 20.974-8.934 30.894-8.475 30.52-26.686 56.48-57.142 68.65-1.045.42-2.115.77-3.181 1.13 3.756-40.83 20.233-64.66 50.394-90.87 3.047-2.65 13.011-6.046 13.551-9.144-7.836 1.732-16.942 8.464-23.185 13.324-32.012 24.87-50.253 27.42-90.053 25.79 14.502-22.42 39.402-40.093 66.045-44.45 6.294-1.029 12.889-.923 19.259-1.072 6.478-.151 17.474 1.318 23.038-1.021l-.841-1.327c-9.566-1.447-19.66-1.021-29.347-1.927-23.06-2.159-47.163-11.827-63.102-29.093-4.394-3.943-7.953-7.835-11.215-12.807a89.13 89.13 0 0 1 68.791 8.858c16.253 9.394 32.037 22.76 46.468 34.755"/><path d="M118.426 944.91c23.893-.035 46.541 3.681 66.819 17.152 10.889 7.233 20.65 14.749 32.419 20.609l-.446.421-.536-.055c-8.468-2.337-17.528-2.656-26.217-3.843-21.52-2.938-38.053-9.923-56.848-20.597-5.274-4.393-10.435-8.728-15.191-13.687m125.062 56.87c7.427 6.86 15.72 12.71 23.273 19.44 18.633 16.58 28.355 37.62 33.121 61.87-1.355-.48-2.525-.92-3.786-1.62-25.247-14.08-36.013-36.53-45.805-62.24-2.231-5.86-5.004-11.43-6.803-17.45m-81.003-111.432c4.684 2.156 9.456 6.088 13.511 9.294 24.246 19.166 32.984 43.798 43.471 71.751-5.139-3.929-10.327-7.842-15.289-11.994-21.23-17.763-39.222-40.493-41.693-69.051m70.026-23.553c.387.453.823.868 1.16 1.359 3.017 4.39 4.401 12.947 5.643 18.11 8.482 35.255 1.183 55.485-8.149 89.087l-.472 1.577-.693-.66c-3.754-40.145-12.404-69.734 2.511-109.473m-13.58 132.149c-.036.489-.032.983-.109 1.466-.955 5.97-3.702 12.64-5.573 18.44-9.495 29.45-23.277 48.27-49.061 65.27-.253-1.92-.332-1.44-.105-3.13 4.448-32.98 29.872-61.83 54.848-82.046m-3.557-7.436 1.902-.337-.604.851c-40.816 17.268-45.599 35.758-95.922 36.118-1.157-.09-.354.03-2.302-.79.169-.85.158-1.13.7-1.96 2.733-4.17 10.56-9.03 14.74-11.88 29.042-19.825 47.535-19.616 81.486-22.002"/><path fill="#F0DAA6" d="M1864.1 1410.98c2.7 0 5.99.41 8.46 1.56 2.5 1.17 4.33 3.15 5.26 5.74 2.9 8.08-.72 22.5-1.99 30.99-9.99 66.99-32.42 130.2-63.14 190.38-50.9 99.71-136.21 187.89-232.08 245.2-44.43 26.56-94.54 48.12-143.74 64.04-1.63.07-3.21.14-4.81-.14-3.12-.54-5.78-3.26-7.44-5.84-1.89-2.94-2.78-6.4-1.56-9.8 1.09-3.03 3.1-4.73 5.87-6.15 9.39-4.81 20.72-7.63 30.73-11.1 16.62-5.75 33.11-11.99 48.99-19.58 151.42-72.47 267.16-195.49 319.89-356.15 8.7-26.51 14.93-53.93 20.26-81.3 1.7-8.74 4.11-35.69 6.35-40.52 1.97-4.23 4.92-5.5 8.95-7.33M624.217 99.16c1.574.054 3.784.218 5.244.912 2.424 1.153 4.253 3.509 5.199 5.989a12 12 0 0 1-.498 9.693c-4.671 9.061-29.344 14.134-38.61 17.36a604.22 604.22 0 0 0-372.259 385.842c-8.42 25.788-13.982 51.877-18.156 78.666-1.286 8.249-3.076 30.551-6.809 36.352-2.26 3.512-5.936 3.98-9.701 4.797-2.053-.174-4.894-.567-6.75-1.501-2.446-1.231-3.955-3.195-4.717-5.789-2.749-9.351 1.799-25.61 3.417-35.129 11.708-68.88 33.279-135.972 67.748-196.97A629.33 629.33 0 0 1 624.217 99.159M1262.2 243.186c9.8-.772 18.9.539 27.66 5.269 9.37 5.06 17.37 13.53 20.34 23.892 3.4 11.867 1.17 25.18-5.13 35.696-11.31 18.878-39.91 27.6-57.57 40.145-14.51 10.303-28.32 22.411-40.81 35.085-8.58 8.715-16.51 19.093-26.49 26.215-3.9 2.786-8.1 3.935-12.65 5.152-10.74.921-21.46-.452-30.9-6.03-9.59-5.677-15.62-15.061-18.3-25.769a48.47 48.47 0 0 1 5.47-36.777c19.45-32.164 101.84-93.94 138.38-102.878"/><path d="M1261.85 251.086c7.27-.496 14.15.289 20.91 3.18a33.1 33.1 0 0 1 17.94 18.17c3.47 8.74 2.96 18.647-.83 27.195-2.14 4.804-5.14 8.701-9.1 12.145-8.42 7.323-19.08 12.214-28.67 17.858a325 325 0 0 0-29.31 19.369c-9.02 6.617-17.56 13.479-25.56 21.333-12.94 12.712-22.84 28.552-40.31 35.318-8.33.924-15.98 1.272-23.82-2.433-7.65-3.62-13.81-10.711-16.48-18.722-3.29-9.903-2.77-21.626 2.34-30.823 17.79-32.026 98.35-91.998 132.89-102.59"/><path fill="#F0DAA6" d="M1043.23 1657.93c21.43 17.11 33.85 53.27 36.82 79.78.94 8.33.18 19.71 2.99 27.44 1.31-10.87-.74-21.97.3-32.91 1.75-18.34 18.47-57.33 33.11-68.73 2.2-1.71 3.22-1.95 5.94-1.66 3.33 3.48 3.19 8.89 3.08 13.43-.5 19.81-4.95 38.85-7.13 58.43l-5.56 7.03c6.72-5.01 12.67-11.13 19.55-15.91 11.35-7.9 35.85-17.95 49.68-16.89l2.41 1.32c.85 2.93.38 4.66-1.11 7.33-9.14 16.5-34.19 40.94-51.78 48.67-4.28 1.88-9.1 2.62-13.53 4.13-7.06 2.4-13.95 5.83-20.64 9.11-2.55 1.18-5.08 2.03-7.05 4.07 10.11-2.17 19.73-5.33 29.26-9.35 4.76-2.01 9.62-4.88 14.62-6.21 16.69-4.46 54.98 2.21 69.28 11.41 2.13 1.37 3.13 2.58 4.1 4.97-.87 3.15-1.97 4.51-4.85 6.14-5.7 3.22-12.88 5.16-19.18 6.82-24.17 6.34-43.87 4.73-67.41-2.69-5.9-1.85-11.8-3.41-17.2-6.47-.62-.35-1.27-.66-1.9-.99l-.73.72c4.43 6.22 33.52 12.92 41.92 17.65 12.47 7.03 24.47 19.88 33.79 30.57 5.17 5.93 12.26 13.16 15.11 20.58-.3 1.82.14 1.61-1.29 2.48-5.23 3.18-15.13-.75-20.51-2.45-20.84-6.58-41.76-18.62-56.62-34.8.68 1.74 1.57 3.39 2.37 5.07 7.1 14.91 19.34 63.48 13.14 77.98-.68 1.59-1 1.35-2.47 2-4.86-1.75-7.91-6.85-10.78-10.9-19.81-28.01-31.3-57.17-25.26-91.77.13-4.7.65-9.67-.27-14.3l-1.46 3.13c-.17 11.79-.51 23.96-2.39 35.6-2.84 17.67-21.44 67.87-35.33 77.17-1.74 1.17-1.97 1.46-4.07.98-.17-.34-.37-.66-.5-1.02-6.12-15.96 2.04-62.64 7.87-79.01-20.41 17.72-47.62 32.39-74.196 37.72 10.913-27.94 31.476-43.24 53.266-62.16-24.66.37-49.591-1.37-72.244-12.45-2.74-1.34-3.954-2.51-4.972-5.36l1.014-1.95c5.178-3.29 11.249-4.49 17.08-6.19 21.3-6.19 39.702-10.02 62.022-8.18a147 147 0 0 1-4.15-1.46c-17.52-6.52-42.576-36.34-49.52-53.16-1.155-2.8-1.239-4.53-.071-7.28 1.013-.41 1.08-.52 2.35-.57 12.284-.51 62.371 28.36 70.271 37.19l2.25-1.14c-10.7-24.06-17.68-57.29-9.42-82.96"/><path fill="#FDECBC" d="M1062.03 1797.63c.34-.03.69-.01 1.02-.09 2.26-.51 3.94-2.35 5.63-3.84l1.34.14c.91 2.41.59 3.37-.45 5.64-2.87 6.29-11.76 18.56-17.82 21.78-.09-.09-.18-.16-.26-.25-1.03-1.21-2.01-1.79-1.84-3.48.75-7.16 7.37-15.08 12.38-19.9"/><path fill="#FBE1A4" d="M1088.96 1772.99c4.5-11.23 14.66-24.57 23.82-32.25.75 2.57.85 3.92 2.82 5.8-5.72 10.61-10.89 19.58-20.47 27.26l-1.49-1.73zm-36.31-32.1c1.36 1.68 2.28 2.82 2.82 4.94.4.16.8.3 1.2.47 4.9 2.13 13 9.54 15.83 14.23 1.66 2.76 2.41 6.1 3.88 9.02l-.48 1.45c-.45-.2-.9-.42-1.35-.61-1.82-.78-1.06-.61-2.83-.65l-1.58 3.22-1.19.01c-1.23-1.31-2.5-2.54-3.49-4.05-5.21-7.82-12.01-14.23-17.55-21.77 2.77 1.19 5.03 3 7.48 4.75-2.46-2.96-3.89-5.13-4.78-8.91-.08-.32-.14-.64-.21-.96z"/><path d="M987.148 1853.72c2.735-4.37 5.515-8.67 8.735-12.71 16.657-20.89 38.577-40.12 66.147-43.38-5.01 4.82-11.63 12.74-12.38 19.9-.17 1.69.81 2.27 1.84 3.48.08.09.17.16.26.25-1.28-.41-2.82-.91-4.2-.48-4.98 1.56-16.52 10.95-22.02 14.07-12.35 7.03-25.4 13.11-38.382 18.87m101.572-52.62c23.46 35.49 28.56 49.33 30.46 93.28-22.09-23.71-29.69-52.79-31.19-84.22zm-42.37-129.47c.25.14.51.26.74.42 3.22 2.25 6.01 7.29 8.08 10.66 16.42 26.82 19.93 56.31 24.77 86.55-3.08-2.32-2.94-8.3-5.02-11.64-3.57-5.74-9.9-10.26-14.32-15.38-13.1-15.2-15.08-51.42-14.25-70.61m28.35 126.17c3.25 34.47-7.49 68.36-27.77 96.2-1.58-8.36-.95-17.96-.23-26.42 2.78-32.71 11.62-42.8 28-69.78m14.81-10.05c4.31.84 9.25 5.22 13.41 7.14 36.06 16.59 49.2 24.92 74.4 57.45-21.39-4.47-46.74-16.59-61.37-33.22-9.16-10.4-16.53-21.42-26.44-31.37m-104.078-75.48c15.028 6.88 31.118 13.86 45.238 22.43 5.67 3.45 10.4 8.42 16.06 11.76l1.18.69c5.54 7.54 12.34 13.95 17.55 21.77-5.27.65-12.78-2.03-18.08-3.39-28.5-7.34-47.412-28.64-61.948-53.26m130.168 34.27c14.88-17.21 38.62-28.17 60.65-32.31-3.96 7.41-9.36 13.5-15.1 19.59-18.72 19.87-39.3 31.32-64.84 40.6-.52.18-1.06.31-1.59.46l.41-1.08c9.58-7.68 14.75-16.65 20.47-27.26m-30.26 24.22-.99-1.75c3.63-12.05 3.47-24.44 5.04-36.84 2.56-20.09 15.6-47.79 29.93-62.07.83 22.8-7.3 43.46-8.42 65.29-9.53 10.05-20.16 22.48-25.56 35.37m55.88 1.68c20.23.44 38.36 3.69 57.35 10.79-13.67 7.04-26.69 9.46-41.9 10.8-8.92.18-17.94.02-26.72-1.75-11.11-2.25-21.93-6.29-33.33-6.81l3.65-.83c14.06-3.06 26.58-11.16 40.95-12.2m-124-.01c16.15.02 29.47 6.84 44.82 7.45 4.39.17 10.06-.43 13.32 2.51l-.16 2.19c-7.68 9.15-36.67 15.5-48.62 18.42 14.45-8.89 37.79-11.37 49.02-20.07-5.36-1.4-10.21.61-15.45 2.2-38.72 11.77-55.94 16.78-94.872-.67 17.07-5.53 33.959-10.68 51.942-12.03"/><path fill="#F0DAA6" d="M1416.84 172.209c13.51-1.275 28.21.328 41.71 1.715 69.87 7.178 142.22 30.168 202.55 66.298 30.71 18.391 59.47 38.048 86.36 61.749 77.99 68.758 138.24 166.285 163.39 267.253 12.92 51.876 16.57 93.764 15.16 147.181-.46 17.451.91 36.115-8.78 51.505-5.85 9.268-14.79 16.052-25.59 18.318a40.87 40.87 0 0 1-32.16-6.74c-12.7-8.975-16.67-20.175-19.24-34.772-6.6 45.91-16.68 87.743-35.61 130.212-4.83 10.826-9.63 22.177-16.24 32.042-6.9 10.306-16.04 17.579-28.4 19.941-13.14 2.513-27.07 1.495-38.24-6.537-11.05-7.94-17.85-21.914-16.92-35.55 1.06-15.53 12.27-32.299 17.45-47.216a363.7 363.7 0 0 0 16.9-178.903 357.4 357.4 0 0 0-145.96-231.559c-45.51-32.449-100.37-52.747-155.66-59.908-9.94-1.288-21.23-3.692-31.14-1.754-5.35 1.047-10.3 3.78-13.32 8.426-3.8 5.819-5.61 14.302-3.74 21.073 1.66 6.019 6.15 10.351 11.91 12.525 10.18 3.84 26.87 3.047 38.1 4.757 34.75 5.293 70.67 17.956 101.01 35.789a328 328 0 0 1 151.98 201.699c3.17 12.304 12.56 61.642 6.82 71.815-.83 1.474-1.52 1.279-3.01 1.716-2.04-1.25-2.42-1.569-2.95-4.122-1.86-8.829-1.35-19.513-2.15-28.627-1.49-17.008-5.02-33.366-9.78-49.721-29.45-101.063-109.29-184.366-211.28-213.115a325.4 325.4 0 0 0-46.04-9.29c-7.08-.882-14.57-.749-21.54-2.246a28.8 28.8 0 0 1-8.41-3.255 27.38 27.38 0 0 1-12.58-16.937c-2.21-8.531-.56-17.888 3.96-25.401 3.82-6.357 10.26-11.69 17.6-13.375 9.67-2.222 22.42.159 32.26 1.394a361.2 361.2 0 0 1 156.19 57.442 362.4 362.4 0 0 1 149.35 390.568c-3.3 12.99-7.08 26.677-12.25 39.039-4.79 11.469-11.65 23.102-15.05 34.986-1.33 4.687-1.35 8.837-.28 13.589a32.12 32.12 0 0 0 14.96 20.756c9.23 5.537 20.89 6.363 31.17 3.664 13.04-3.423 19.75-11.54 26.22-22.717 35.18-60.87 53.23-141.445 52.14-211.529a415.2 415.2 0 0 0-14-99.3 443.64 443.64 0 0 0-321.14-314.43 342 342 0 0 0-37.97-7.589c-17.48-2.54-52.55-2.338-66.35-10.942-9.59-5.972-16.46-16.461-18.71-27.446-2.35-11.425.49-23.386 6.94-33.017 7.41-11.076 17.66-16.66 30.36-19.454"/><path d="M1416.56 180.155c63.48-3.408 150.56 22.225 207.44 49.46a526.35 526.35 0 0 1 265.8 298.357c21.61 61.528 28.98 118.906 27.91 183.808-.25 14.914 1.19 32.77-5.7 46.356-5.04 9.931-13.15 15.637-23.59 18.885-7.15.796-13.25.096-19.82-3.008-9.8-4.628-16.23-12.615-18.95-23.056-4.83-18.521-2.47-47.402-3.32-67.309a464.4 464.4 0 0 0-27.67-142.626c-49.84-136.606-169.21-239.41-308.69-276.64-12.04-3.211-24.57-6.409-36.87-8.32-9.4-1.459-18.89-2.818-28.35-3.765-12.94-1.295-27.37-.099-39.28-5.959-7.69-3.783-14.72-10.41-17.46-18.691-2.92-8.831-1.9-19.146 2.42-27.355 5.59-10.612 14.97-16.642 26.13-20.137"/><path fill="#F0DAA6" d="M1251.56 485.426c.28-.012.55-.029.82-.038a337.24 337.24 0 0 1 240.85 90.67 342.97 342.97 0 0 1 112.55 239.84c3.07 80.841-22.04 172.187-78.11 232.512-10.69 11.5-22.1 22.33-33.04 33.59-45.24 46.57-91.54 92.02-137.18 138.19l-348.57 350.49-114.038 115.2c-28.613 29.17-55.066 60.61-89.119 83.67-56.551 38.29-120.28 57.35-188.37 59.78a348.22 348.22 0 0 1-242.495-88.49 341.02 341.02 0 0 1-113.444-237.89 335.8 335.8 0 0 1 84.981-241.36c23.437-25.95 49.324-50.21 74.153-74.83l90.268-90.69L793.22 814.197l180.671-176.209c33.789-32.758 65.159-70.172 104.399-96.651 52.6-35.496 110.2-52.741 173.27-55.911"/><path d="M950.331 1236.5c5.372 3.86 9.846 10.35 14.145 15.37-2.313.2-6.32.87-8.339-.35-4.47-2.71-4.837-10.3-5.806-15.02m-485.226 313.39c4.378 3.01 8.826 15.27 11.574 20.34 7.375 13.59 15.503 27.2 24.794 39.57-18.39-3.75-36.868-7.5-55.589-9.11-14.969-1.68-29.816-1.79-44.853-1.76 21.949-15.6 41.481-34.17 64.074-49.04m95.63 159.9c9.365 1.05 20.229 6.16 29.24 9.28 39.528 13.7 78.918 27.02 114.169 50.12l-10.644 3.41c-15.76 4.16-31.816 7.15-47.796 10.33-17.877-16.42-34.303-34.95-52.888-50.47-10.104-8.43-21.243-15.25-32.081-22.67m285.47-362.35c6.087 3.7 11.859 9.71 17.145 14.54 20.303 18.54 38.749 37.68 55.832 59.21-13.003 19.26-26.958 33.61-45.067 48.02-14.932 11.2-31.165 18.35-47.023 27.87 4.952-24.16 7.498-48.87 10.498-73.33 3.116-25.4 6.555-50.79 8.615-76.31m-269.392-32.53c1.27 2.49-9.655 133.97-9.734 151.27a523 523 0 0 1-36.826-34.97c-14.732-14.99-28.094-33.88-38.596-52.09 22.427-28.57 52.475-48.95 85.156-64.21m105.658-150.23 2.352.88c16.608 19.64 24.643 45.35 31.182 69.79a3093 3093 0 0 0-99.725 48.28c-7.644 4.03-15.087 8.29-22.495 12.73 11.787-58.45 42.586-96.09 88.686-131.68m10.621 259.21.955.12c2.167 4.37-9.445 118.97-10.117 135.78-17.757-15.17-36.356-29.45-54.614-44.01-14.927-11.91-31.154-22.51-45.488-35.1 12.681-7.55 26.547-13.72 39.735-20.42a2288 2288 0 0 0 69.529-36.37m139.738-72.84c.663 1.25-15.122 124.45-16.413 139.74-15.812-14.82-32.611-28.67-49.074-42.76-15.401-13.02-30.159-26.53-47.141-37.51 36.65-21.18 75.05-39.96 112.628-59.47m-20.346 164.88c1.094 1.59.913.77.742 2.67-.641 7.12-3.883 15.21-5.97 22.1-13.997 46.24-42.072 84.25-79.444 114.27-4.479-6.39-8.271-13.09-12.097-19.89-9.663-18.86-16.019-37.39-21.45-57.81 11.769-4.72 23.298-11.18 34.675-16.82a1255 1255 0 0 0 83.544-44.52m-223.079-192.75c9.821 5.14 19.227 14.81 27.792 21.99a3584 3584 0 0 0 46.088 37.88c9.294 7.61 18.407 15.99 28.441 22.57-16.623 6.43-32.557 16.05-48.239 24.52a1276 1276 0 0 0-65.674 36.07c4.402-23.82 4.905-49.18 6.99-73.35 1.676-19.43 6.534-50.93 4.602-69.68m-104.684 65.49c9.442 9.7 16.896 24.87 25.655 35.79 16.144 20.13 35.258 37.09 54.313 54.33-18.455 7.08-35.391 17.24-52.189 27.53-14.359 8.04-28.211 17.52-41.981 26.54a216 216 0 0 1-5.295-16.87c-12.605-46.83-4.412-85.8 19.497-127.32m225.317 33.51c7.399 3.2 24.156 19.83 31.875 25.98 23.253 18.53 47.222 36.02 70.226 54.9l-49.879 25.53c-22.175 11.14-46.329 21.43-66.694 35.64 1.598-17.97 4.388-35.94 6.461-53.87a1879 1879 0 0 0 8.011-88.18m17.045-169.66c10.563 7.16 20.454 16.67 30.344 24.84 23.571 19.45 46.918 39.3 71.022 58.1-16.353 7.51-32.161 16.18-47.981 24.74-22.394 11.31-44.577 23.06-66.825 34.65 2.214-33.71 5.911-67.71 9.295-101.35 1.372-13.64 3.642-27.29 4.145-40.98m-15.06-2.65 1.333.31c.859 4.09-5.093 46.67-5.825 53.75-3.035 29.33-5.538 58.72-8.209 88.08-17.992-14.35-34.85-29.8-53.206-43.83-16.575-12.87-34.894-25.82-49.172-41.19 37.808-20.03 77.18-37.2 115.079-57.12m233.504 11.34 1.514.02c.731.67.998.81 1.479 1.84 2.308 4.91 2.154 14.65 2.625 20.27a226.5 226.5 0 0 1-26.834 128.97c-10.37-11.78-19.603-24.22-30.415-35.69-14.085-14.48-29.263-27.78-44.38-41.15a141 141 0 0 1 3.588-5.54c22.761-34.05 51.254-60.52 92.423-68.72m-424.936-115.48c4.557 10.35 6.492 26.18 7.702 37.36 4.277 39.51-6.594 82.37-27.689 115.87-8.389 13.32-18.473 25.34-28.382 37.53l-4.099-9.45c-13.899-36.42-19.297-71.37-15.927-110.2 21.277-24.88 46.272-46.85 68.395-71.11m261.579-14.32c18.663-2.25 38.355.09 56.961 1.89 22.54 18.85 45.844 37.14 67.79 56.66-42.337-4.06-77.301-2.93-118.395 9.54-23.083 7.13-44.094 17.1-62.742 32.58-7.791-27.41-16.29-50.27-33.477-73.39 9.714-3.59 18.842-8.85 28.362-12.95 19.691-8.5 40.28-12.21 61.501-14.33m-97.512 450.39c3.381 3.36 7.282 23.3 9.211 29.1 5.839 17.55 15.652 34.24 25.414 49.89-38.722 26.32-76.47 33.31-121.976 37.48a602 602 0 0 1-23.75-20.01c-19.673-17.08-36.976-37.28-53.559-57.29 5.661 1.12 11.429 1.72 17.163 2.36 58.292 6.45 101.931-4.98 147.497-41.53"/><path d="M467.336 1354.8c2.23.77 10.219 19.01 12.419 22.62a167 167 0 0 0-15.819 27.03c-20.89 44.68-18.264 89.05-1.836 134.44-22.187 18.63-47.3 32.8-67.898 53.61l-8.847 8.49c-10.308-33.36-13.271-67.03-7.699-101.58 9.938-61.61 39.174-108.39 89.68-144.61m-111.11 294.71c27.113 5.19 53.146 14.44 79.308 23.06 45.049 14.86 94.689 29.25 134.528 55.66 20.021 13.28 44.633 38.15 61.4 55.89-24.099 1.84-48.618.22-72.452-3.75-85.913-14.33-152.573-60.74-202.784-130.86m465.913-134.05c4.229 2.61 7.887 6.32 11.497 9.72 35.825 33.72 43.139 65.34 44.409 112.7-8.624 9.99-18.536 19.2-27.808 28.62a1835 1835 0 0 1-62.086 60.88c-1.207.75-1.636.45-3.011.35-16.178-10.79-41.707-45.43-51.886-62.76 48.501-38.11 79.514-88.34 88.885-149.51m23.162-318.05c23.469-2.24 47.152.59 70.296 4.34l1.108 1.32.53-1.09.314.29c17.613 19.51 21.613 23.66 29.348 49.3a140.6 140.6 0 0 0-93.072 59.83c-2.723 3.97-7.665 15.4-11.806 17.13l-2.639-1.56c-35.729-29.98-73.857-57.22-108.69-88.3 10.645-5.01 20.565-11.86 31.001-17.36 26.205-13.8 54.238-21.2 83.61-23.9m-274.325 289.52c9.676 5.31 19.321 14.37 28.092 21.21 27.426 21.37 53.985 44.84 82.371 64.83-29.167 21.18-60.909 37-97.195 40.53-22.014 4.01-48.807-.48-70.925-2.83-15.354-21.16-27.873-43.93-39.214-67.43 30.204-21.03 63.161-41.37 96.871-56.31m386.72-226.59c4.314-.04 8.639.18 12.951.31 19.692 22.38 34.793 48.16 50.353 73.45-1.6 26.87-6.7 53.83-17.49 78.63-24.203 55.62-69.191 93.03-124.718 114.84l-22.356 7.59c-8.638-10.77-16.967-20.12-28.41-27.97 38.449-17.28 70.684-38.63 95.349-73.68 34.879-49.56 44.347-114.29 34.321-173.17M395.85 1609.48c37.641-1.84 74.608 4.58 111.529 10.94 23.571 31.98 51.453 63.03 83.869 86.32 50.053.57 91.227-9.63 134.039-35.81 14.279 23.13 32.289 45.39 51.431 64.71-4.121 2.57-8.381 4.97-12.566 7.45a536 536 0 0 1-47.728 21.46c-28.333-24.71-105.708-50.95-142.581-60.42-12.206-3.13-25.207-3.6-37.169-7.51-11.535-3.77-22.848-8.43-34.313-12.45-44.622-15.64-89.249-31.46-135.324-42.32 7.871-8.28 18.653-29.69 28.813-32.37m168.677-492.06c44.878-3.37 77.625 10.6 111.41 38.53-54.566 42.46-77.903 76.77-94.573 144.3a779 779 0 0 0-43.925 24.55c-19.882 12.9-36.031 25.66-50.766 44.48-4.22-6.76-7.207-14.55-10.478-21.81 10.923-11.42 21.13-23.89 29.675-37.18 22.576-35.12 35.734-79.97 32.813-121.83-1.213-17.38-5.124-34.47-8.77-51.47 6.488-5.63 12.584-11.68 17.883-18.44z"/><path d="M439.037 1228.65c3.213 1.68 1.723 15.04 1.748 18.71.228 33.38 11.286 65.26 22.106 96.38-32.592 25.05-59.099 52.18-76.53 90.02a231.78 231.78 0 0 0-8.292 176.18c-9.132 10.38-17.423 24.83-23.33 37.21l-3.609-5.35c-27.133-44.06-43.156-91.88-45.146-143.8a299.24 299.24 0 0 1 69.609-200.99c19.632-23.9 42.437-45.61 63.444-68.36m512.661-538.116c20.138 3.483 42.572 14.045 61.302 22.234 98.08 42.897 182.59 106.334 254.93 184.955a798 798 0 0 1 128.68 186.297c3.06 6.07 12.02 19.46 10.75 25.89-.56 2.84-2.03 3.65-4.15 5.3l-1.49-.23c-4.22-6.6-7.15-14.07-10.62-21.1a1280 1280 0 0 0-20.93-40.48c-10.96-20-23.99-38.91-36.9-57.696C1258.64 887.145 1160 795.1 1041.44 736.357c-27.92-13.831-56.703-26.321-86.663-35.048-10.137 8.283-19.326 19.086-28.662 28.33l-67.373 66.99-129.637 128.333A4926 4926 0 0 0 677.4 976.24c-11.202 11.231-23.11 22.373-32.835 34.94 16.29 3.71 31.795 9.71 47.351 15.71 71.133 27.44 135.324 67.42 193.718 116.15 12.732 10.2 24.572 21.8 36.379 33.05 54.841 52.22 93.717 105.84 131.217 171.29 13.84 24.15 27.25 48.57 38.58 74.01-17.14 18.67-35.87 36.21-53.6 54.37a18741 18741 0 0 1-151.267 152.54c-.019-32.46-6.875-56.44-22.882-84.54 17.619-6.25 35.463-12.29 51.862-21.39 49.128-27.26 90.237-75.47 105.767-129.83 5.76-20.13 13.85-58.02 3.36-76.6-17.34-30.71-41.78-60.25-65.153-86.55-89.862-101.11-202.752-177.15-333.343-214.35l197.737-196.936 78.024-77.301c16.523-16.265 34.848-32.205 49.383-50.269"/><path d="M1247.64 510.435c77.22-5.053 150.5 22.35 211.29 68.814 64.02 48.932 109.81 130.512 120.3 210.076 10.45 79.169-9.35 165.052-58.55 228.755-13.83 17.91-30.92 33.49-46.83 49.52l-68.6 69.61-301.6 302.65-211.096 213.15a5232 5232 0 0 0-48.431 49.11c-14.447 14.76-28.571 30.26-45.156 42.68-40.854 30.57-94.84 51.92-145.526 58.03-87.644 10.57-176.625-10.98-246.224-66.32a323.55 323.55 0 0 1-121.152-217.3c-9.671-86.17 19.258-171.51 74.61-237.31 19.44-23.1 42.525-43.33 63.925-64.6l122.684-124.15c20.186-20.43 48.805-46.12 66.068-67.91l.973-1.25a697.6 697.6 0 0 1 168.735 71.73c13.885 8.27 27.164 17.65 40.755 26.41-50.133-5.69-93.835 5.63-137.721 29.31l-1.201-1.14c-37.081-35.26-78.629-43.66-128.291-42.45 8.172-7.17 72.28-69 72.772-73.68-2.193-2.26-2.531-2.74-5.544-3.49-3.045.62-4.829 1.71-7.108 3.75-17.682 15.85-34.057 34.17-50.679 51.15l-90.932 93.34c-32.966 34.2-68.932 66.66-100.225 102.36-55.35 63.14-85.364 142.92-79.206 227.3 6.082 83.36 47.04 158.82 109.761 213.23.689.64 1.51 1.27 2.228 1.86 63.163 52.02 148.921 78.55 230.329 70.48 55.084-5.46 107.16-23.74 152.131-56.23 25.944-18.75 47.498-44.38 70.189-66.9 56.319-55.89 110.897-113.57 167.052-169.63l318.79-318.65 93.44-94.47c21.16-21.36 43.61-42.36 62.67-65.64 50.95-62.233 72.55-145.836 64.45-225.278-7.98-78.297-49.03-155.422-110.12-205.016-65.08-52.835-144.61-77.812-228.22-68.869a282.1 282.1 0 0 0-154.1 66.437c-16.47 14.056-31.22 29.728-46.54 44.987-14.14 14.093-30.308 27.515-42.786 43.062 26.676 8.918 53.916 20.313 78.156 34.616 14.4-14.087 27.01-29.791 41.86-43.513 53.21-49.182 122.74-85.101 195.98-88.864 63.74-3.276 130.57 19.197 177.97 62.442 49.85 45.487 73.48 108.303 76.56 174.703 3.31 71.673-20.12 146.032-65.89 201.713-23.07 28.07-50.31 52.55-74.86 79.3-7.22-17.7-16.4-34.98-25.32-51.87-10.98-20.76-23.97-39.89-37.1-59.319-79.12-117.135-186.86-215.966-315-276.721-23.5-11.141-47.207-22.003-72.103-29.658 37.353-34.197 70.923-73.352 110.063-105.453 48.25-39.577 110.4-61.761 172.37-64.894"/><path fill="#F0DAA6" d="M1121.22 689.456c2.86.362 3.55.3 5.76 2.072.03 2.763-.54 3.315-1.99 5.719l-3.44-1.898c-1.16-2.609-.88-3.046-.33-5.893"/><path fill="#FDECBC" d="M1315.5 805.242c1.95.227 2.92.544 4.68 1.297 1.34 2.889.89 4.059.53 7.164-1.7-.292-3.12-.768-4.74-1.33-1.38-2.836-.86-4.056-.47-7.131"/><path fill="#F0DAA6" d="M1373.62 900.177c2.38.615 3.39 1.188 5.15 2.904.25 3.043-.15 3.637-1.5 6.429-1.37-.664-2.61-1.59-3.88-2.433-1.04-2.959-.49-3.912.23-6.9"/><path fill="#FDECBC" d="M1374.47 723.368c1.94.369 3.44 1.16 5.19 2.052 1.42 2.849 1.15 3.286.67 6.487-2.25-.065-3.44-.359-5.44-1.404-1.33-2.947-.87-3.996-.42-7.135"/><path fill="#F0DAA6" d="M1392.66 876.333c1.93.608 3.01 1.322 4.67 2.436.9 3.15.37 3.732-.69 6.733-2.26-.319-3.21-.929-5-2.335-.62-3.072-.03-3.949 1.02-6.834"/><path fill="#FBE1A4" d="M1391.52 620.436c2.15.705 3.17 1.455 4.79 3.029.31 2.894-.51 4.017-1.67 6.64-2.45-.878-2.86-1.155-4.56-3.113-.46-2.957.15-3.997 1.44-6.556"/><path fill="#F0DAA6" d="M1392.34 913.464c2.65.181 4.21.077 6.37 1.79.37 3.014-.15 3.703-1.36 6.404-2.02-.479-3.5-1.233-5.3-2.256-.92-2.707-.55-3.152.29-5.938m37.49-29.635c1.98.582 3.15 1.331 4.79 2.579.64 2.907.14 3.767-.76 6.539-2.98-.951-3.73-1.103-5.81-3.373.01-2.697.46-3.346 1.78-5.745m-159.94-271.564c1.84.626 3.1 1.542 4.66 2.689.81 3.025.15 3.872-.85 6.769-2.06-.267-3.14-.62-4.87-1.761-.8-3.112.12-4.668 1.06-7.697"/><path fill="#FDECBC" d="M1339.08 766.292c2.44.682 3.44 1.273 5.2 3.101.74 2.635.17 3.751-.75 6.208-2.46-.307-3.51-.696-5.46-2.231-.62-3.161-.04-4.102 1.01-7.078"/><path fill="#F0DAA6" d="M1312.59 698.527c2.14.083 3.61.6 5.59 1.4 1.46 2.869 1.05 3.535.58 6.629-2.76.171-3.32.176-5.79-1.016-1.18-2.911-.8-3.966-.38-7.013"/><path fill="#FBE1A4" d="M1406.89 850.243c1.99.496 3.1 1.245 4.72 2.472.99 3.048.61 3.913-.06 6.963-2.81-.601-4.11-.791-6.18-2.95-.24-2.982.32-3.817 1.52-6.485"/><path fill="#F0DAA6" d="M1336.83 796.508c2.31.695 3.37 1.481 5.12 3.126.55 3.127-.02 3.992-1.12 6.898-2.62-.925-3.77-1.48-5.5-3.673-.26-3.01.16-3.595 1.5-6.351"/><path fill="#FDECBC" d="M1273.66 645.317c2.61.661 3.86.903 5.77 2.955.46 2.85.11 3.563-.9 6.318-2.38-.477-3.76-1.072-5.78-2.428-.77-3.1-.15-3.905.91-6.845"/><path fill="#F0DAA6" d="M1156.73 742.305c1.83.631 3.1 1.395 4.73 2.411 1.18 3.116.72 3.868-.01 7.03-3.05-.605-4.11-.574-6.47-2.699-.6-2.687.59-4.419 1.75-6.742m169.6 150.187c2.7.317 4.19.708 6.49 2.164.73 3.13.17 3.792-.96 6.713-2.83-.452-4.01-.784-6.12-2.755-.71-2.838-.38-3.312.59-6.122"/><path fill="#FBE1A4" d="M1432.31 807.496c2.92.399 4.34.551 6.72 2.47.71 2.86.25 3.468-.75 6.297-2.75-.324-4.06-.585-6.42-2.195-.94-2.975-.43-3.662.45-6.572"/><path fill="#FDECBC" d="M1213.37 690.37c2.72 1.04 4.29 1.607 6.32 3.808.37 3.033.07 3.245-1.43 5.957-2.74-.959-4.75-1.585-6.79-3.784-.12-2.987.33-3.383 1.9-5.981"/><path fill="#F0DAA6" d="M1460.5 788.371c2.63.381 3.98.786 6.16 2.334 1.05 3.082.69 3.78-.02 6.861-2.87-.265-4.73-.262-6.94-2.348-.85-2.733-.13-4.295.8-6.847"/><path fill="#FBE1A4" d="M1294.46 659.583c2.85.083 4.69.056 7.15 1.739.69 3.156-.05 4.245-1.12 7.234-2.73-.516-4.17-.809-6.44-2.563-.75-2.776-.3-3.683.41-6.41"/><path fill="#F0DAA6" d="M1417.69 655.276c2.73.618 3.97.923 6.09 2.915 1.1 2.884.26 4.886-.57 7.695-2.79-.396-3.93-.579-6.14-2.517-1.15-2.964-.21-5.192.62-8.093"/><path fill="#FBE1A4" d="M1407.59 731.355c2.91.442 4.09.652 6.38 2.693.61 3.213.06 4.015-1.06 7.003-3.06-.175-4.22-.527-6.45-2.44-.71-3.042-.04-4.525 1.13-7.256m-26.78 110.015c2.77 1.091 3.87 1.469 5.53 4.103-.15 3.321-.82 4.129-2.51 6.901-2.91-1.258-3.63-1.503-5.52-3.993-.17-3.177.81-4.513 2.5-7.011m80.5 65.166c3.03.605 3.82.576 6.15 2.742.69 3.137.13 4.426-.96 7.316-3.34-.233-4.24-.604-6.39-3.065-.44-2.947.15-4.307 1.2-6.993m-94.91-87.079c3.02.113 4.5.413 6.94 2.256.9 2.831.28 4.108-.63 6.805-2.76-.192-5.21-.112-7.33-2.119-.57-3.184-.07-3.983 1.02-6.942m108.04 57.946c3.2.289 4.9.493 7.21 2.86.59 3.4.18 4.238-.91 7.403-3.08-.439-4.62-.871-6.81-3.171-.75-3.207-.38-4.019.51-7.092"/><path fill="#F0DAA6" d="M1333.42 827.49c3.37.379 4.7.864 6.93 3.31.52 3.063-.28 4.57-1.57 7.231-3.12-.346-4.54-.801-6.68-3.002-.75-3.074.14-4.776 1.32-7.539"/><path fill="#FDECBC" d="M1298.15 779.438c3.07.208 5.03.305 7.66 2.133 1.3 3.206.99 4.247.58 7.601-2.96.064-4.9.208-7.4-1.655-1.54-2.93-1.2-4.938-.84-8.079"/><path fill="#FBE1A4" d="M1450.89 859.977c.51.185 1.04.303 1.52.553 2.39 1.257 2.83 2.131 3.74 4.484-.58 3.277-1.74 4.387-4.05 6.549-3-1.573-3.88-2.507-5.17-5.537.92-3.304 1.57-3.748 3.96-6.049m-97.43-236.547c3.28.962 4.76 1.083 7.17 3.581.44 3.019-.57 4.773-1.83 7.402-3.35-.467-4.61-.892-6.82-3.371-.62-3.078.3-4.858 1.48-7.612"/><path fill="#F0DAA6" d="M1366.83 674.452c3.56.05 5.19.524 7.65 3.025.6 3.341-.07 5.134-1.26 8.168-3.17-.625-5.13-1.004-7.2-3.625-.82-2.995-.13-4.755.81-7.568m26.71 274.01c3.01 1.114 5.41 1.71 7.27 4.523-.03 3.246-.63 3.941-2.24 6.663-.45-.079-.9-.141-1.34-.236-3.37-.723-4.6-1.497-6.35-4.304.09-3.1.95-4.197 2.66-6.646"/><path fill="#FDECBC" d="M1291.5 710.463c3.55.505 5.29.636 7.8 3.345.91 3.157.19 4.872-.87 7.813-3.34-.509-5.45-.8-7.69-3.5-.85-3.055-.2-4.786.76-7.658"/><path fill="#FBE1A4" d="M1383.93 647.95c.6.192 1.23.327 1.81.576 2.62 1.126 2.87 1.951 3.99 4.404-.41 3.256-1.23 4.625-3.1 7.32-.34-.138-.69-.258-1.02-.413-2.9-1.362-4.22-2.814-5.39-5.765.54-3.161 1.51-3.984 3.71-6.122m-131.12 104.413c.93.157 2.35.358 3.21.676 2.47.915 2.98 1.713 4.17 3.869-.15 3.131-1.11 4.265-2.88 6.712-.63-.136-1.28-.228-1.9-.408-2.45-.708-3.63-1.534-4.97-3.647.04-3.571.6-4.232 2.37-7.202"/><path fill="#F0DAA6" d="M1431.31 753.622c.35.011.71.006 1.06.033 3.19.237 5.66.681 7.86 3.154.44 3.432-.03 4.073-1.4 7.131-3.44-.425-5.46-.854-7.96-3.356-.83-3.265-.52-3.858.44-6.962m17.22-73.212c.89.043 2.16.065 3 .301 2.56.724 3.16 1.638 4.52 3.71.24 3.383-.55 5.111-2 8.029-.3-.051-.61-.086-.91-.153-2.99-.67-4.5-1.644-6.11-4.241-.39-3.343.17-4.682 1.5-7.646"/><path fill="#FBE1A4" d="M1188.58 670.41c3.64.396 5.52 1.18 7.85 3.923.01 3.53-.64 4.251-2.39 7.212-3.48-.357-5.25-1.141-7.49-3.748-.13-3.471.51-4.36 2.03-7.387m77.1 108.145c3.61.851 6.14 1.73 8.24 4.875.23 3.089-.62 4.243-2.14 6.801-3.5-.728-6.14-1.477-8.17-4.579-.11-3.35.55-4.196 2.07-7.097m158.76 152.866c3.72.234 5.72.802 8.35 3.502.71 3.082-.11 4.841-1.22 7.648-3.46-.314-5.96-.85-8.29-3.587-.56-3.35.05-4.422 1.16-7.563m-32.27-115.153c.9.2 1.57.311 2.44.703 2.38 1.064 3.37 2.198 4.45 4.495-.2 3.569-.7 4.263-2.53 7.192-3.35-.797-5.37-1.865-7.41-4.65.22-3.749 1.06-4.653 3.05-7.74m-23.19-67.805c.36.051.73.082 1.09.153 3.39.665 4.72 1.77 6.52 4.505.22 3.216-.85 4.672-2.51 7.239-.38-.038-.76-.057-1.13-.113-3.29-.491-4.52-1.432-6.37-3.996-.26-3.423.72-4.982 2.4-7.788m-160.71 20.218c1.33-.029 2.93-.166 4.25.092 2.62.51 3.68 1.714 5.21 3.725.6 3.372-.13 5.13-1.39 8.156-.82.099-1.56.23-2.4.123-2.01-.256-3.98-1.484-4.98-3.255-1.66-2.93-1.23-5.694-.69-8.841"/><path fill="#F0DAA6" d="M1488.42 818.432c.44-.005.88-.027 1.32-.015 3.47.093 4.93.677 7.29 3.039.79 3.338.11 5.207-.96 8.313-1.37.176-3.28.586-4.62.358-2.74-.463-3.15-1.322-4.6-3.425-.24-3.287.35-5.229 1.57-8.27"/><path fill="#FBE1A4" d="M1396.94 703.487c1.31.32 2.94.61 4.17 1.223 2.45 1.22 3.16 2.797 4.14 5.199-.78 3.563-1.34 4.017-3.74 6.58-.99-.266-1.98-.505-2.95-.833-2.93-.997-4.11-2.339-5.43-5.065.23-3.361 1.68-4.727 3.81-7.104"/><path fill="#F0DAA6" d="M1372.81 780.681c1.55.126 3.73.115 5.17.669 2.67 1.023 3.14 2.151 4.41 4.478.1 3.087-.75 4.575-2.24 7.131-2.03.157-4.65.309-6.56-.433-2.48-.957-2.98-2.155-3.89-4.374.21-3.366 1.11-4.797 3.11-7.471"/><path fill="#FBE1A4" d="M1139.26 709.335c1.4.661 2.95 1.316 4.21 2.212 2.17 1.538 2.62 2.922 3.23 5.396-.62 3.321-1.88 4.856-4.06 7.384-1.67-.534-3.84-1.012-5.29-2.045-2.19-1.558-2.59-3.19-3.02-5.679.92-3.468 2.33-4.857 4.93-7.268"/><path fill="#F0DAA6" d="M1312.12 609.824c2.64.325 5.52.525 7.44 2.672 1.52 1.705 2.04 3.731 1.6 5.952-.6 2.963-2.73 4.354-4.96 6.03-2.23-.227-4.71-.55-6.54-2.008-1.73-1.383-2.53-3.155-2.35-5.352.26-3.062 2.79-5.255 4.81-7.294"/><path fill="#FBE1A4" d="M1223 736.764c2.8.095 5.02.181 7.42 1.903 1.97 1.416 3.06 3.862 3.01 6.255-.07 3.258-2.07 5.216-4.25 7.32-2.25-.138-4.63-.368-6.51-1.781-1.99-1.508-3.12-3.464-3.24-5.973-.15-3.204 1.66-5.396 3.57-7.724"/><path fill="#F0DAA6" d="M1485.02 932.877c2.6.476 5.39.952 7.4 2.862 1.72 1.641 2.41 3.652 2.07 5.997-.47 3.341-3.17 5.569-5.48 7.732-3.18-.202-6.26-.485-8.37-3.23a8.17 8.17 0 0 1-1.4-7.154c.84-3.176 3.22-4.524 5.78-6.207m-4.3-199.949c3.04.827 6.11 1.64 8.03 4.378 1.41 2.016 1.73 4.223.92 6.549-1.04 2.946-4.03 4.383-6.57 5.766-3.19-.789-6.41-1.687-8.28-4.685-1.19-1.906-1.24-4.127-.49-6.203 1.01-2.792 4-4.355 6.39-5.805m-161.05 10.959c2.72.635 5.34 1.364 7.26 3.534 1.69 1.92 2.48 4.248 1.91 6.786-.88 3.869-3.7 5.615-6.87 7.423-3.05-1.021-5.46-1.921-7.44-4.609-1.49-2.01-1.78-4.777-1.02-7.116.94-2.913 3.73-4.514 6.16-6.018m-154.62-102.146c3.22.186 6.67.218 9 2.875 1.44 1.64 1.73 3.292 1.59 5.382-.26 3.796-2.81 6.081-5.46 8.435-3.46-.043-7.15-.483-9.42-3.452-1.52-1.982-1.97-4.477-1.35-6.88.8-3.114 3.19-4.591 5.64-6.36"/><path fill="#FBE1A4" d="M1349.74 706.708c3.15.009 5.86-.055 8.34 2.267 2.03 1.905 2.47 3.679 2.32 6.391-.25 4.302-2.98 6.825-5.98 9.48-2.16-.066-4.23-.281-6.04-1.563-2.25-1.584-3.31-3.878-3.38-6.563-.13-4.574 1.77-6.868 4.74-10.012"/><path fill="#F0DAA6" d="M1175.94 695.844c3.64-.328 6.68-.483 9.81 1.848 2 1.485 3.21 3.42 3.27 5.947.1 4.238-2.55 6.425-5.46 8.928-3.26.418-6.41.443-9.24-1.498-2.11-1.453-3.14-3.443-3.23-5.992-.16-4.234 2.11-6.462 4.85-9.233m-27.01-25.929c3.31-.159 6.34-.363 9.11 1.862 2.02 1.62 3.08 3.842 2.9 6.447-.3 4.293-2.96 6.962-6.09 9.532-.48.012-.96.048-1.44.036-3.36-.078-6.52-1.114-8.72-3.793-1.62-1.97-1.87-4.458-1.44-6.896.59-3.343 3.23-5.168 5.68-7.188m176.73-6.879c3.92.426 7.37.665 10.17 3.826 1.72 1.941 2.57 4.164 2.14 6.79-.7 4.257-3.47 6.427-6.83 8.708-4.06-.156-7.07-.345-9.93-3.633-1.77-2.036-2.6-4.363-2.24-7.088.58-4.441 3.22-6.353 6.69-8.603m-93.51-31.248c3.83-.259 6.9-.373 9.86 2.586 1.95 1.941 2.67 4.22 2.56 6.907-.16 4.399-2.14 7.124-5.18 10.099-4.22-.021-8.05.091-11.09-3.369-1.85-2.112-2.62-4.06-2.34-6.899.44-4.448 3.04-6.588 6.19-9.324"/><path fill="#FBE1A4" d="m1252.69 691.047 1.9-.147c3.84-.266 7.58-.483 10.48 2.558 1.87 1.946 2.78 3.801 2.41 6.553-.56 4.183-3.15 6.744-6.27 9.264-1.4-.003-2.8-.008-4.2-.129-3.34-.29-6.99-2.324-8.83-5.211-1.39-2.183-1.81-4.35-1.06-6.867.89-2.978 3.16-4.4 5.57-6.021"/><path fill="#F0DAA6" d="M1292.85 847.959c1.39.136 2.79.25 4.16.535 3.49.724 6.44 2.499 8.2 5.709 1.21 2.213 1.46 4.55.73 6.965-1.3 4.286-4.13 6.024-7.77 8.131-1.19-.052-2.52-.055-3.7-.288a12.1 12.1 0 0 1-8.19-5.824c-1.41-2.389-1.77-5.024-1.03-7.697 1.16-4.166 4.04-5.666 7.6-7.531"/><path d="M992.906 726.967c144.504 59.273 263.834 167.8 347.424 298.763 12.1 18.95 23.63 38.63 33.84 58.67 6.03 11.81 10.89 24.92 17.88 36.12.16.27.34.54.51.81l-187.85 188.49c-34.86 34.94-69.2 70.74-105.33 104.36-7.11-9.96-12.78-27.26-18.69-38.74a1229 1229 0 0 0-44.02-77.08c-75.711-120.76-204.03-229.32-337.803-279.67 16.339-13.36 31.039-28.65 45.906-43.595l60.39-60.824a14691 14691 0 0 0 187.743-187.304"/><path fill="#F0DAA6" d="M1153.94 1113.07c-20.6 23.35-50.72 38.06-81.55 41.51-37.93 4.25-75.067-5.8-104.735-30-26.21-21.39-43.148-50.45-46.508-84.31a134.48 134.48 0 0 1 29.947-98.16c21.792-26.293 54.956-44.227 89.066-47.275 36.23-3.238 73.38 9.729 101.1 32.957 26.1 21.871 41.52 52.901 44.33 86.738 2.87 34.46-7.25 70.54-29.79 97.03-14.42-9.38-26.58-21.91-39.39-33.3-8.38-7.45-17.46-14.51-25.46-22.32-1.99-1.93-2.26-2.53-2.24-5.29.95-1.09 1.25-2.09 2.81-2.15 10.42-.39 53.79 44.34 64.05 53.47 13.37-28.4 24.28-56.07 20.98-88.14-3.91-37.961-24.28-65.443-53.05-88.96 1.26 2.905 1.81 5.013 1.56 8.199-.88 11.035-22.57 102.481-26.59 110.841-.53 1.11-1.19 2.52-2.51 2.77-2.16.43-4.54-.71-6.57-1.4-.87 2.76-.95 3.87-3.16 5.83-11.15.56-24.66 2.68-35.62.82a3877 3877 0 0 1 52.31 32.4c15.84 9.94 33.27 22.8 51.02 28.74"/><path d="m1020.67 1034.19 17.33-.37c1.54 3.98 2.78 8.1 4.12 12.16-7.68-2.62-14.59-7.51-21.45-11.79m25.03-1.67c7.92 3.67 21.5 6.21 27.5 12.28-8.75-.15-17.35-.06-26.09.57zm-52.175-110.041c5.838 7.838 10.235 26.332 14.325 36.457 9.32 23.082 19.79 45.674 28.71 68.924-7.21.96-14.64 1.07-21.91 1.46-5.88-19.84-9.17-40.4-13.01-60.698-2.882-15.243-6.486-30.719-8.115-46.143"/><path d="M986.778 921.915c1.562 1.724 3.532 26.326 4.135 30.688 3.548 25.655 8.013 51.967 14.867 76.947a331 331 0 0 0-4.52 3.19c-10.588 7.62-56.285 39.64-57.846 49.16 1.349 1.17.973 1.28 2.557 1.32 6.747.2 56.109-39.87 62.809-47.04 5.55 3.98 11.64 7.34 17.5 10.85l8.54 5.38c-17.67 8.31-36.416 15.02-54.554 22.31-8.096 3.25-17.107 6.28-24.679 10.6-3.188 1.82-3.469 2.5-4.487 6.07-.139.49-.267.98-.4 1.46-2.426-1.28-3.712-3.22-5.221-5.44-15.674-23.13-19.263-60.02-13.655-86.81 6.887-32.885 27.12-60.435 54.954-78.685m55.362 135.965c1.97-.12 3.15.23 4.85 1.18 10.7 5.93 20.99 13.23 31.39 19.73l61.14 37.75c-28.19 20.07-55.05 30.91-90.05 30.53a118 118 0 0 1-2.73-.18c-39.98-3.12-68.932-21.14-94.799-50.95 30.881-9.2 60.169-26.14 90.199-38.06m-52.385-137.577a119.2 119.2 0 0 1 46.975-15.954c28.17-3.612 63.91 2.946 86.77 20.521-4.21 5.175-6.03 14.251-8 20.669a753 753 0 0 0-13.97 49.967c-3.77 15.944-6.41 33.584-12.43 48.794-11.56-3.81-17.81-11.48-32.05-15.22 22.29-30.917 48.37-63.502 60.97-99.826-25.15 29.365-44.31 62.954-66.78 94.176-1.45 2.03-2.62 3.84-4.84 5.09-3.02-2.2-11.06-26.42-13.43-32.18-8.78-21.331-18.03-44.12-29.72-64.048-3.359-5.724-5.618-10.05-12.47-11.75-.341-.085-.684-.159-1.025-.239"/></svg>