<svg xmlns="http://www.w3.org/2000/svg" style="display:block" viewBox="0 0 2048 2048"><path fill="#222627" d="M0 0h2048v2048H0z"/><path fill="#F0D181" d="M1438.34 181.942c3.67.768 6.8 2.055 9.14 5.12 1.76 2.312 1.93 5.011.99 7.706-1.53 4.366-20.23 20.643-24.58 25.778-7.37 8.689-13.94 18.312-18.56 28.755-21.59 48.822 10.14 77.775 6.96 88.364-1.13 3.776-5.66 6.194-8.76 8.099-1.79.094-3.51.227-5.25-.343-3.19-1.044-5.34-3.963-6.81-6.83-14.21-27.738-16.93-58.218-6.8-87.725 8.68-25.309 29.03-56.773 53.67-68.924m300.79 56.177c1.69-.206 3.68-.57 5.38-.412 4.28.399 9.2 7.17 11.44 10.422 16.62 24.157 22.62 59.677 17.01 88.184-6.49 32.971-24.79 58.507-52.53 76.994-3.17-.679-6.61-1.902-9.14-3.984-1.47-1.209-2.67-3.223-2.66-5.159.07-8.452 13.01-16.943 18.75-22.482 26.57-25.588 34-68.027 20.58-101.731-2.61-6.548-17.35-29.487-16.77-33.591.58-4.059 4.86-6.24 7.94-8.241"/><path fill="#F0D181" d="M1395.31 134.989c1.55.059 3.15.105 4.67.432 2.57.556 5.05 2.16 6.32 4.508 2.06 3.815 1.01 8.092-1.28 11.475-4.46 6.596-12.89 10.807-18.59 16.471-22.87 22.756-40.39 50.696-48.39 82.117-7.73 30.348-6 76.246 10.63 103.7 2.83 4.684 6.73 9.602 6.34 15.32-.26 3.965-3.52 7.046-6.39 9.369-1.98-.113-4.23-.112-6.15-.576-4.25-1.025-7.34-5.449-9.38-9.035-20.79-36.49-23.99-87.373-12.84-127.221 10.76-38.435 39.3-86.591 75.06-106.56m396.76 61.843c1.25.021 2.7-.025 3.95.229 5.63 1.15 9.4 6.017 12.27 10.68 28.72 46.612 38.87 97.062 26.04 150.924-10.61 44.52-34.95 84.008-74.51 108.255-3.71-.524-7.73-1.037-10.53-3.75-1.73-1.68-3.01-3.951-2.86-6.428.49-8.445 19.68-19.328 25.89-25.436 46.08-45.299 59.38-119.033 35.78-178.64a145 145 0 0 0-8.01-16.998c-4.05-7.192-17.05-22.581-15.91-30.36.59-4.101 4.78-6.413 7.89-8.476m-829.437 555.59c.381-.044.761-.101 1.143-.134 4.722-.401 8.642-.36 12.368 3.008 2.566 2.32 4.928 5.817 4.735 9.42-.246 4.578-3.828 7.208-7.721 8.741-7.642 3.011-17.383 2.361-25.511 3.609-21.63 3.32-45.828 14.967-63.307 27.867-31.782 23.458-54.959 57.438-67.965 94.475-3.963 11.286-3.215 27.522-12.073 35.793-1.42.427-2.852.896-4.323 1.123-3.434.529-7.342-.175-9.869-2.73-2.481-2.508-3.534-6.499-3.797-9.91-2.212-28.682 29.757-82.094 48.294-103.387 33.855-38.891 75.791-64.339 128.026-67.875"/><path fill="#F0D181" d="M1355.67 84.847c3.25.008 8.6 1.651 10.81 4.257 1.09 1.297 1.48 2.703 1.5 4.34.09 9.861-23.11 25.825-30.4 32.981-65.37 64.18-82.48 155.396-53.85 240.9 2.43 7.284 15.58 32.184 14.82 37.097-.59 3.842-4 6.178-7.01 8.066-1.81-.031-3.96.043-5.71-.47-3.46-1.011-6-4.781-7.83-7.661-4.56-7.184-7.51-15.934-10.67-23.817-18.07-45.068-22.99-92.972-12.82-140.56 12.49-58.511 50.18-121.884 101.16-155.133m492.13 77.207c2.08-.115 5.18-.388 7.18.281 7.46 2.487 13.14 12.927 16.86 19.386a258.8 258.8 0 0 1 25.76 202.166c-13.25 48.233-47.25 105.145-91.77 130.537-1.38.102-1.29.149-2.48.075-3.89-.242-6.64-1.487-9.08-4.609-1.5-1.932-1.83-3.779-1.47-6.17 1.25-8.359 15.59-17.422 21.87-22.659 67.34-56.109 86.75-160.341 60.44-241.175-4.88-14.967-11.45-29.997-19.18-43.732-3.75-6.651-8.95-12.761-11.94-19.799-1.09-2.559-1.99-5.462-1.46-8.266.57-2.938 3.02-4.433 5.27-6.035M922.627 619.398c4.327-.793 9.512-.856 13.904-.65 3.52.164 7.604 1.487 9.687 4.541 1.48 2.17 1.878 5.206 1.339 7.735-.526 2.465-2.061 5.129-4.12 6.613-1.531 1.103-3.596 1.778-5.44 2.116-5.397.989-11.128.575-16.608 1.231-9.99 1.197-20.277 3.591-30.023 6.028-28.047 7.014-53.437 17.889-78.312 32.591-60.5 35.759-106.727 96.11-127.819 162.876-5.443 17.229-7.143 34.669-11.664 51.9l-.254.933c-2.158 2.176-5.192 4.735-8.255 5.408-2.897.636-7.788.073-10.024-1.99-2.362-2.178-3.251-5.469-3.625-8.548-1.087-8.951 1.805-19.137 3.731-27.872a316.4 316.4 0 0 1 63.187-130.573 303.74 303.74 0 0 1 204.296-112.339m-30.165-118.805c5.37-.491 14.349-2.194 19.416-.532 3.056 1.003 5.283 2.992 6.479 5.962 1.185 2.942 1.149 6.585-.19 9.471-1.713 3.694-4.692 5.137-8.43 6.029-12.166 2.902-26.126 2.618-38.655 4.248-25.824 3.361-52.58 11.205-76.627 21.098a399.07 399.07 0 0 0-219.993 223.547c-5.778 14.673-10.507 30.277-14.102 45.621-2.17 9.26-2.65 20.255-6.425 28.908-.113.26-.238.515-.358.772-2.771 2.078-5.787 3.692-9.29 4.11-2.947.352-6.13-.3-8.318-2.428-2.416-2.348-3.252-6.041-3.464-9.286-.726-11.097 3.462-23.626 6.345-34.303a413 413 0 0 1 80.877-156.582c69.198-81.867 164.965-137.532 272.735-146.635"/><path fill="#F0D181" d="M861.57 384.589c5.774-.514 12.01-1.122 17.797-.918 4.387.155 8.353.479 11.444 3.876 1.161 3.109 1.601 5.585 1.006 8.905-.624 3.486-2.549 6.892-5.933 8.314-10.865 4.563-27.901 2.524-39.79 3.764-10.551 1.101-21.147 2.854-31.589 4.721-57.123 10.208-120.442 37.801-168.867 69.325a501.25 501.25 0 0 0-198.309 254.693c-8.227 23.933-13.643 48.085-18.874 72.785-2.539 3.152-5.027 5.19-9.186 5.48-3.17.22-7.216-.561-9.57-2.872-2.145-2.108-3.254-4.415-3.425-7.393-.735-12.818 4.742-28.839 8.052-41.332 20.238-76.373 58.011-145.126 109.559-204.838 85.577-99.132 206.147-164.952 337.685-174.51"/><path fill="#F0D181" d="M836.771 261.424c5.568-.578 12.315-1.03 17.886-.624 4.173.305 8.433 2.364 10.998 5.715 1.8 2.351 2.744 5.611 1.981 8.533-.887 3.394-4.207 6.55-7.455 7.701-7.929 2.811-32.175 2.231-42.222 3.1a414 414 0 0 0-44.52 6.239c-75.01 14.374-146.063 45.555-209.872 87.123-21.972 14.314-42.279 30.986-61.889 48.35A625.5 625.5 0 0 0 324.59 686.099c-9.53 27.101-15.383 55.102-21.321 83.148-.576 1.161-1.131 2.354-1.888 3.415-1.802 2.523-4.623 4.428-7.756 4.7-3.251.282-7.001-1.044-9.47-3.154-2.581-2.205-3.79-5.424-3.968-8.753-.577-10.733 4.834-24.127 7.158-34.755 21.238-97.133 75.233-186.9 139.063-261.894a604.97 604.97 0 0 1 410.363-207.382"/><path fill="#F0D181" d="M803.831 150.588c9.652-.642 20.326-2.176 29.906-.685 4.006.624 8.642 2.099 10.77 5.872 1.359 2.408 1.537 5.558.873 8.221-.956 3.837-3.525 6.219-7.261 7.343-12.633 3.803-35.801 2.535-49.935 3.656-17.486 1.386-34.933 4.267-52.203 7.284-84.191 14.712-178.963 52.646-250.301 99.888-44.378 29.388-84.938 61.797-122.389 99.732C276.699 469.61 207.158 587.88 182.5 709.156c-.757 3.75-1.249 8.522-3.792 11.516-2.131 2.512-5.235 3.725-8.437 4.109-2.954.355-6.006.046-8.269-2.121-2.501-2.393-3.501-6.301-3.69-9.638-.754-13.321 7.941-38.758 11.942-52.095 30.741-102.477 84.835-192.545 155.238-272.578C444.993 252.502 622.79 162.003 803.831 150.588m724.819 14.488c5.32-.428 10.18-.009 15.36 1.303 30.81 7.803 61.39 17.868 91.87 26.931 18.05 5.365 45.52 11.246 61.48 19.846 4.12 2.219 8.08 6.048 10.33 10.162 4.32 7.947 3.23 15.576.64 23.8-7.2 22.876-16.05 45.437-24.1 68.033-14.55 40.855-28.94 81.632-44.07 122.29-7.19 19.344-15.4 49.943-25.66 67.009-4.45 7.404-11.05 12.249-18.54 16.187-6.53 2.219-12.07 2.71-18.85 1.338-19.53-3.954-49.47-18.407-69.08-25.931-21.47-8.24-43.98-15.009-65-24.219-10.09-4.423-20.71-11.293-24.67-22.095-2.36-6.459-3.25-13.292-1.86-20.068 2.49-12.18 8.23-24.48 12.33-36.253 10.67-30.621 21.81-60.975 32.95-91.415l27.83-77.893c4.61-12.568 8.92-25.524 14.67-37.619 5.42-11.41 12.53-17.274 24.37-21.406"/><path fill="#222627" d="M1532.21 179.009c1.63-.081 1.32-.098 3.27-.008 12.18.561 64.3 18.038 79.35 22.494 23.29 6.897 49.61 12.641 72.01 21.599 2.77 1.107 5.05 2.606 6.96 4.926 2.43 2.943 3.53 7.38 2.97 11.13-.97 6.472-5.61 14.934-7.99 21.194l-22.46 59.484c-7.11 19.345-13.31 39.015-20.47 58.344-7.47 20.155-15.81 39.959-22.97 60.234-6.84 19.337-12.01 40.049-20.3 58.792-2.04 4.624-4.69 7.352-8.58 10.476-7.83 3.397-14.25 1.463-21.97-1.355-18.35-6.694-36.12-15.211-54.42-22.146-20.5-7.768-54.01-18.074-72.17-28.007-5.06-2.766-10.81-6.645-13.14-12.168-2.17-5.16-1.59-10.956-.3-16.243 5.07-20.766 17.44-46.321 24.79-66.98l36.66-102.011c7.18-20.343 13.6-41.079 21.39-61.185 3.87-9.994 7.27-14.094 17.37-18.57"/><path fill="#F0D181" d="M1558.22 323.426c2.73-1.3 5.06-2.778 8.18-2.315 2.24 1.36 3.34 2.529 4.86 4.653-.01 1.159-.02 2.321-.12 3.477-.24 2.831-1.73 5.803-4.27 7.287-2.11 1.235-4.35 1.33-6.56.328-2.19-.992-3.32-3.317-3.86-5.517-.73-2.934.44-5.395 1.77-7.913m21.89 99.522c4.95.6 9.61 1.441 12.69 5.786 1.84 2.606 2.24 5.796 1.43 8.836-1.4 5.207-4.91 7.774-9.3 10.462-2.65.093-5.47.213-7.96-.865-2.98-1.293-5.37-4.015-6.5-7.031-1.16-3.064-.84-6.708.5-9.662 1.91-4.188 5.07-5.814 9.14-7.526m-44.92-16.951c2.37.091 4.64.211 6.86 1.156a12.84 12.84 0 0 1 7.15 7.79c1.22 3.596.86 7.311-1 10.609-2.18 3.852-5.15 5.122-9.23 6.29-1.87-.188-3.74-.4-5.57-.824-3.26-.753-6.53-3.099-8-6.176-1.4-2.945-1.6-5.861-.56-8.929 1.79-5.331 5.58-7.483 10.35-9.916"/><path fill="#F0D181" d="M1553.94 318.081c-1.71-2.74-3.47-5.532-2.67-8.947.72-3.079 3.32-5.182 6.08-6.403 5.54-2.445 12.54-2.119 18.06.19 4.12 1.722 7.68 4.784 9.4 8.973 1.31 3.179 1.19 5.471.03 8.622-2.13 1.704-3.07 2.144-5.79 2.311l-2.66-1.587-5.13 4.524c-1.52-2.124-2.62-3.293-4.86-4.653-3.12-.463-5.45 1.015-8.18 2.315z"/><path fill="#1F1E05" d="M1553.94 318.081c4.89-1.841 10.38-4.249 15.59-2.119 2.51 1.027 5.14 3.204 6.86 5.278l-5.13 4.524c-1.52-2.124-2.62-3.293-4.86-4.653-3.12-.463-5.45 1.015-8.18 2.315z"/><path fill="#F0D181" d="M1556.97 277.265c9.08-.593 17.75.06 26.38 3.024 10.58 3.635 21.16 10.928 25.85 21.427 1.8 4.053 2.47 7.733.96 11.977-1.38.951-1.6 1.658-3.37 1.236-4.04-.963-5.56-4.014-7.47-7.358l-.62-1.105c-.61-1.138-1.19-2.21-1.97-3.247-8.87-11.869-23.15-17.595-37.77-14.289-4.48 1.014-10.77 3.666-15.25 2.886-2.94-.512-3.04-1.072-4.61-3.39.15-.739.1-.773.62-1.567 3.87-5.992 10.72-8.206 17.25-9.594m-73.58 74.504c23.09 5.607 45.95 15.178 68.35 23.17 20.17 7.196 41.36 13.594 60.98 22.124 2.69 1.167 4.71 1.497 5.79 4.281l-2.22 4.875c-6.53-1.142-130.45-45.743-133.45-47.883-1.04-2.942-.39-3.67.55-6.567m-2.91 33.249c3.56-.299 6.81-.285 10.21.958 5.21 1.904 9.33 5.327 11.54 10.495 2.4 5.615 2.15 12.069-.34 17.607-3.19 7.111-8.22 10.271-15.31 12.834-2.67-.029-5.49-.083-8.05-.887-5.16-1.623-10.04-5.283-12.55-10.126a19.9 19.9 0 0 1-1.24-15.158c2.64-8.277 8.31-12.092 15.74-15.723"/><path fill="#F0D181" d="M1562.6 251.409c17.44-.936 34.13 4.76 48.44 14.487 8.59 5.837 24.22 20.287 25.01 31.195.22 3.015-.3 3.585-1.98 5.893-1.83.799-2.67 1.106-4.73.889-3.75-.395-11.72-16.127-15-20.014a67 67 0 0 0-4.29-3.985c-18-15.433-40.57-21.492-63.56-14.024-5.32 1.731-9.85 5.778-15.47 6.298-2.46-1.077-2.44-1.349-3.77-3.725.01-2.544-.08-3.027 1.64-5.06 7.01-8.307 23.39-11.359 33.71-11.954"/><path fill="#FEFEFE" d="M1150.99 505.913c8.96.207 18.72 3.294 27.52 5.065 15.44 3.107 31.01 5.636 46.32 9.33.72 5.804.99 11.68 1.39 17.514a889 889 0 0 0-13.72 3.304c-.37 16.307-.06 32.654.03 48.964 38.92 6.896 77.45 15.728 116.15 23.709a12205 12205 0 0 1 220.88 46.816l107.04 23.687c34.83 7.539 69.98 14.642 104.19 24.68l.13-14.823-17.94-5.518-.01-12.629c21.41-6.672 42.62-14.506 63.69-22.169 27.48 5.603 55.75 10.142 82.84 17.32 2 26.37.45 53.774.48 80.297l-.4 163.989-1.55 454.371a566 566 0 0 1-57.18 32.55c-23.29-7.11-46.36-16.69-68.88-25.91l-.23-43.35c-34.96 18.01-68.72 39.4-102.75 59.18a12827 12827 0 0 0-205.43 120.41l-446.99 257.29-.64 116.47c-24.404 16.55-51.013 32.02-76.972 46.09a1221 1221 0 0 0-31.818-16.7 3134 3134 0 0 0-40.026-20.47l-.163-122.65c-15.6-10.11-33.983-17.44-50.79-25.43a3792 3792 0 0 1-77.86-37.79l-297.684-145.62c-36.136-17.81-72.922-34.32-108.536-53.18l-.109 50.27c-23.402 11.98-46.699 24.47-70.545 35.53-23.039-11.47-46.059-23.55-69.89-33.27-1.609-48.64-.525-97.6-.536-146.27l.054-274.47c-6.958-4.69-24.902-10.76-29.244-16.56-1.617-2.16-1.837-6.17-1.031-8.6 9.64-8.1 64.564-26.63 80.041-31.41 23.263 5.45 48.583 19.41 70.671 29.13 37.154 16.34 75.058 31.56 111.192 50.09a37046 37046 0 0 0 511.38-186.455c33.928-12.594 67.823-25.39 101.916-37.516 26.11-9.284 52.49-17.814 78.25-28.021-.69-33.914-.26-67.913-.33-101.835l-.18-173.399.15-70.608c.04-13.8-1.12-28.963 1.43-42.526 14.16-7.621 30.73-12.866 45.69-18.877"/><path fill="#222627" d="M1151.85 513.155c13.52-.764 30.15 4.941 43.54 7.843-11.14 4.642-22.76 8.367-34.18 12.267-12.9 1.869-30.21-4.595-42.48-8.183 10.88-4.271 21.78-9.051 33.12-11.927"/><path fill="#222627" d="M1214.94 522.196c1.85-.009 2.42.154 4.07.813 1.98 3.232 1.55 7.458 1.6 11.159-4.54 1.492-9.21 2.636-13.82 3.89a4655 4655 0 0 1-.32 57.454c11.15 1.829 22.29 4.688 33.37 6.969a4365 4365 0 0 1 76.43 15.886 14144 14144 0 0 1 191.67 40.529l135.34 29.268c41.05 8.655 82.47 16.603 122.77 28.382l-.06-26.9c-3.66-.977-7.54-1.976-11.06-3.367-2.57-1.016-4.83-2.105-6.06-4.699 3.24-3.303 51.25-18.752 60.64-22.219 24.06 7.673 49.34 10.082 73.66 16.572 1.55 66.804-.09 134.016-.16 200.856l-1.67 489.831-51.1 28.75c-21.34-6.11-42.29-14.76-62.81-23.19a1346 1346 0 0 0-.39-50.8c-20.02 12.84-40.9 24.34-61.53 36.16l-98.19 56.54-393.99 229.34-134.46 77.52c-26.16 14.99-53.26 29.39-78.71 45.51a3632 3632 0 0 1-1.132 117.11c-23.92 12.2-45.325 30.22-69.947 40.84-10.337-4.21-20.315-10.16-30.302-15.22-11.749-5.95-23.827-11.28-35.699-16.98l-.025-22.7-.122-102.84c-19.036-6.46-37.663-17.89-55.853-26.58a5214 5214 0 0 1-135.081-65.68c-60.207-30.03-121.022-58.65-181.498-88.09a9913 9913 0 0 0-173.956-84.36c-.461 18.43-.656 37.1.664 55.49-21.954 10.61-43.751 21.79-66.083 31.59-21.308-8.96-42.172-19.97-63.023-29.99-.89-42.77-.5-85.68-.654-128.46l.128-292.4c-11.176-5.19-23.062-10.18-33.343-17.01 12.531-5.06 25.339-9.39 37.902-14.36 12.61-4.99 25.25-10.99 38.24-14.83 19.454 5.22 39.054 15.5 57.447 23.74a8690 8690 0 0 0 82.415 36.4c14.49 6.37 28.839 13.47 43.649 19.05 27.524-8.44 54.574-19.2 81.694-28.91l158.913-57.44 455.696-166.711c2.14-47.981.36-96.705.21-144.771l-.26-243.983c16.83 1.072 33.17 6.498 49.26 11.189 17.86-6.325 37-14.837 55.54-18.348"/><path fill="#FEFEFE" d="M1000.28 1491.45c6.49 1.74 15.72 5.35 20.95 9.48l.07 1.62c-1.44.85-2.7 1.29-4.32 1.73-4.96-1.21-9.21-2.33-13.41-5.47-3.18-2.37-2.81-3.6-3.29-7.36m-461.755-56.32c8.205 3.7 18.31 5.82 25.805 10.69 3.038 1.97 2.594 3.44 2.988 6.68-7.893-3.49-22.567-7.28-28.446-13.19-1.227-1.23-.516-2.59-.347-4.18m-225.491-80.52c5.552 2.18 14.973 4.76 18.999 9.14 2.563 2.79 1.973 4.7 2.056 8.27-5.645-2.92-15.537-4.72-19.607-9.56-2.09-2.49-1.457-4.79-1.448-7.85m1.348-97.78c5.425 2.51 14.736 4.2 18.708 8.56 2.513 2.76 1.8 4.96 1.795 8.47l-20.594-6.69zm344.026 224.8c8.421 4.42 23.904 8.7 29.929 16 2.224 2.7 1.493 5.14 1.383 8.39-10.158-4.22-21.388-8.79-30.58-14.8-1.497-2.56-.833-6.65-.732-9.59m-.57-30.64c10.49 3.8 20.822 9.01 31.144 13.33l-.153 12.52c-9.224-2.37-22.142-8.82-29.834-14.49-1.701-3.32-1.161-7.7-1.157-11.36M537.04 1349.58c9.608 3.83 19.116 7.94 28.658 11.92l.027 14.07a1565 1565 0 0 0-28.729-10.45zm1269.01-674.466c12.41-1.272 30.96 4.017 43.46 6.627-6 2.721-12.13 5.029-18.29 7.359-13.48 1.265-30.71-4.769-43.92-7.974a506 506 0 0 1 18.75-6.012M538.745 1453.1a667 667 0 0 0 28.536 10.87l.019 19.85a1799 1799 0 0 0-28.536-13.18zm-117.839-62.58c8.514 4.33 17.564 7.74 26.394 11.38l-.172 22.94-26.306-11.52zm238.061 115.08a1160 1160 0 0 1 30.77 14l-.018 23.44c-9.91-5.46-20.526-10.04-30.711-14.98zm-239.066-204.99c10.14 3.98 19.999 8.41 29.887 12.96l-.31 22.18c-8.876-.16-20.596-5.31-29.649-7.05-.112-9.36.036-18.73.072-28.09m770.529-758.655c.85-.033 1.61.413 2.39.725 2.79 10.127.7 32.544.56 43.667-6.34 2.101-12.77 3.977-19.15 5.943l-1.9.226c-3.09-4.649-1.1-36.019-1-43.568 6.14-2.82 12.7-4.815 19.1-6.993M657.949 1401.4a309 309 0 0 1 31.881 14.2 1245 1245 0 0 1-.402 33.15c-6.762.7-24.416-9.36-31.489-12.72zm-237.258-63.07c9.499 2.61 18.984 6.08 28.268 9.35a1686 1686 0 0 1-.135 40.83c-9.643-2.83-18.977-6.8-28.165-10.83zm737.889-370.607c12.83 2.85 30.74 9.976 44.13 14.202l119.19 38.525c8.56 2.76 52.63 15.63 55.31 20.87l-2.4 1.76c-71.49-25.7-147.17-47.532-219.76-70.96-.62-.202-1.27-.311-1.91-.467l.27-1.096zM537.612 1374.74c9.024 4.11 18.423 7.5 27.661 11.09a4220 4220 0 0 1 .299 46.97c-8.782-1.27-19.646-7.93-27.795-11.72zm249.487 148.84c24.7 12.48 49.727 24.55 75.614 34.38-.519 23.12 1.358 46.24.604 69.42-.983-.09-.333.04-1.773-.91-1.677-16.7-.575-34.45-.631-51.28-14.323-10.84-55.317-25.51-73.92-34.18zm-472.84-251.07c6.567 3.91 13.879 6.76 20.869 9.85l-.082 69.55c-6.93-2.69-13.759-5.75-20.617-8.63a4444 4444 0 0 1-.17-70.77m764.391-273.588c6.88-.218 53.6 17.718 63.94 21.268 34.36 11.8 68.97 22.72 103.47 34.07 19.76 6.5 39.87 14.74 60.11 19.33-1.75 2.25-4.91 3.12-7.49 4.28-.76 0-1.52-.13-2.27-.25-4.79-.72-224.07-73.58-224.4-73.82-.41-.3-.61-.82-.91-1.23zm-117.185 47.038c1.063.05 209.165 74.21 220.905 80.65-1.38 2.66-3.78 3.52-6.29 5.07-41.25-13.25-81.65-30.4-122.41-45.2a6298 6298 0 0 1-67.828-24.49c-10.753-3.94-22.249-7.4-32.505-12.42 2.085-2.29 5.208-2.67 8.128-3.61m70.395-30.1c7.19-.44 14.32 2.17 21.08 4.33 42.04 13.5 83.46 28.66 125.31 42.7a3744 3744 0 0 1 54.12 18.35c7.32 2.51 15.37 4.45 22.38 7.7 2.53 1.17 4.21 1.79 5.49 4.28l-2.46 2.45c-1.13.2-2.34.46-3.5.37-7.98-.58-57.8-19.41-68.27-23a7423 7423 0 0 1-136.69-47.18c-4.68-1.71-9.56-2.74-14.22-4.5-1.98-.75-3.31-1.26-4.73-2.89zm236.73 138.93c12.95 7.05 36.84 13.62 51.6 18.98a13001 13001 0 0 0 134.91 48.61c20.09 7.33 43.93 14.22 62.78 23.95l-.36.94-5.8 2.1c-49.9-16.07-98.99-34.92-148.23-52.89-33.45-12.21-67.91-23.19-100.8-36.7.42-2.12 4.08-3.75 5.9-4.99m-431.036-61.88c20.095 6.78 39.753 16.11 59.696 23.58a7346 7346 0 0 1 166.93 63.28c-3.35 1.82-6.94 3.22-10.45 4.72-41.63-18-84.556-33.16-126.874-49.49-33.073-12.76-66.682-28.2-100.935-37.01zm553.476 7.11c14.3 8.24 37.47 14.22 53.51 19.79 16.45 5.72 184.31 62.37 188.53 67.24-1.53 2.18-2.14 2.03-4.74 2.81-29.16-7.5-57.44-18.83-85.87-28.68l-162.03-56.81a806 806 0 0 0 10.6-4.35m-474.258-38c1.121-.08 2.184-.02 3.286.23 7.04 1.54 14.574 5.31 21.355 7.86a2483 2483 0 0 0 37.21 13.45 4457 4457 0 0 1 134.397 49.61c7.83 3.02 16.23 4.64 23.89 7.8 1.93.79 3.03 1.51 4.25 3.27-1 2.97-3.48 3.53-6.12 5.05-.67.08-1.33.26-2 .22-3.23-.15-152.997-57.31-169.358-63.51-7.045-2.67-50.1-17.31-53.069-20.65 1.653-2.23 3.61-2.41 6.159-3.33m-204.043 79.17c1.232 1.23 2.186 2.02 3.757 2.86 5.872 3.13 13.201 5.13 19.47 7.53a3299 3299 0 0 1 41.333 16.16c55.226 22.06 111.057 43.07 165.534 66.9l-9.031 4.47c-51.107-21.71-102.941-41.53-154.565-61.96-25.952-10.27-52.96-19.66-77.998-31.96zm436.521 68.68c28.38 12.1 57.59 22.08 86.52 32.77 25.86 9.56 51.38 19.98 77.16 29.73 28.93 10.95 58.15 21.17 86.73 33.04l-.71 1.15 2.05.05c-.6 1.61-2.83 2.69-4.23 3.71-21.39-5.82-249.06-92.02-252.63-95.34 1-2.82 2.71-3.42 5.11-5.11m-120.24 56.87c6.38 1.15 34.51 14.42 43.66 17.88 37.55 14.17 74.5 29.85 111.84 44.58 30.56 12.06 62.1 23.12 92.03 36.63 1.56.7 2.48 1.49 3.56 2.79l-.28 1.88-4.22 2.75c-4.01-.25-231.35-91.15-252.56-101.49.47-2.12 4.13-3.77 5.97-5.02m-360.172-108.87c57.403 21 114.14 45.19 170.879 68.01 21.511 8.66 42.825 18.15 64.748 25.71l-8.289 5.51c-.462.18-.912.39-1.385.54-1.407.44-2.479.26-3.814-.28-49.191-19.69-97.916-40.87-146.865-61.19-26.747-11.1-55.554-20.6-81.319-33.71.871-1.77 4.346-3.44 6.045-4.59m-85.155 33.08 1.328-.15c28.364 12.36 232.453 95.64 235.833 99.72-2.202 2.4-6.257 3.14-9.324 4.1-1.296-.07-.793.08-1.987-.5-36.848-17.93-79.123-33.27-117.23-49.03l-68.836-28.58c-17.025-7.2-33.879-14.88-51.239-21.24 3.862-1.3 7.653-2.85 11.455-4.32m209.526-81.25c3.967-.05 211.651 78.19 229.021 87.51l-.11.97-5.91 3.88c-2.81.85-3.94 1.13-6.74.17-26.667-9.15-52.782-21.53-79.137-31.73-47.786-18.49-96.181-35.81-143.318-55.92 1.407-2.43 3.848-3.51 6.194-4.88m111.417 216.31a14085 14085 0 0 0 161.634 68.4c29.58 12.43 60.52 23.74 89.22 38.03-.8 1.98-3.24 3.6-4.84 5.04-10.96-.79-57.61-23.34-71.66-29.19-55.85-23.25-113.274-44.64-167.83-70.83-3.819-1.83-7.699-3.59-10.756-6.58.634-2.86 1.995-3.17 4.232-4.87m444.864-207.15c5.27.65 11.67 3.93 16.85 5.68a2161 2161 0 0 1 62.96 22.29l169.31 59.72c-3.25 2-6.68 3.74-10.04 5.55-7.34.38-222.63-78.92-249.67-88.79z"/><path fill="#FEFEFE" d="M787.117 1554.6c20.634 10.29 42.241 18.58 62.885 28.97.952 12.73.821 25.47.836 38.23a1773 1773 0 0 1-63.825-30.79zm212.696-120.82c27.767 12.13 56.047 23.08 83.297 36.38l-15.15 8.1a690 690 0 0 1-29.62 15.42c-13.08-4.68-25.88-10.59-38.698-15.97a2445 2445 0 0 1 .171-43.93m109.527-203.96c8.95.31 34.19 12.63 44.45 16.51 69.4 26.22 139.94 51.33 208.12 80.54l-10.53 5.39c-1.67.33-2.56.25-4.17-.33-28.23-10.22-56.07-21.95-83.98-33.05-54.65-21.76-109.62-43.7-164.93-63.73zm119.34-56.68c11.24 3.38 22.25 7.95 33.34 11.85a7284 7284 0 0 1 76.58 27.16c48.48 17.36 97.64 33.67 145.35 53.07l-10.57 6.56c-1.72.59-3.62-.03-5.28-.62-29.6-10.45-58.71-22.35-88.07-33.43a12058 12058 0 0 0-161.41-58.97c3.24-2.05 6.68-3.79 10.06-5.62m-998.733-68.12c11.941.76 56.025 23.6 69.183 29.69-16.786 3.89-32.725 9.91-48.872 15.83-.548.18-1.092.38-1.645.56-9.167 2.88-55.853-22.96-66.222-28.73zm1590.373 186.87.76.26c2.33 3.92.99 75.13.99 86.53l-27.58-9-13.49-5.29-.19-49.86a2190 2190 0 0 1 39.51-22.64m-953.172 51.22c1.26.21.659.03 2.005.68 27.339 13.28 57.522 22.81 86.116 33.18 13.992 5.07 31.88 9.33 43.987 18.09l4.574 10.54c11.81 8.29 28.09 13.77 41.4 19.42a3606 3606 0 0 0 69.29 28.77l-13.25 6.67c-.89.13-1.76.49-2.65.4-7.57-.77-87.82-37.14-99.503-42.77l.004-13.03a5838 5838 0 0 0-146.226-57.62c4.707-1.57 9.5-2.91 14.253-4.33m323.862-740.546c10.74 7.319 105.36 23.915 124.83 27.987a15636 15636 0 0 1 308.6 67.487c33.32 7.487 66.8 14.265 100.08 21.975 12.47 2.888 25.66 5.216 37.86 8.993 1.92.593 2.77 1.138 4.19 2.491l-1.95 1.602c-4.3 1.334-7.91-.035-12.12-1.127-45.11-11.198-90.57-20.283-135.87-30.572a15356 15356 0 0 0-312.65-68.604c-43.68-9.086-87.72-16.717-131.28-26.337 6.06-2.143 11.94-3.265 18.31-3.895M539.257 1207.93c8.509 1.53 17.948 7.38 25.94 10.83 9.656 4.17 19.532 7.94 29.259 11.96 57.143 23.59 115.046 46.3 171.278 72 2.799 1.28 5.965 2.7 8.072 5.01 1.389 1.52.969.81.851 3.14-.851.7-1.552 1.35-2.565 1.85-2.633 1.31-6.326-.39-8.906-1.25-28.898-12.31-58.59-22.88-87.836-34.35A11377 11377 0 0 1 522.297 1215zm449.827 78.04c15.186 3.22 36.316 14.3 51.846 20.28 68.06 26.2 134.38 56.75 202.64 82.32l-13.27 7c-4.44 1.75-74.38-30.33-85.58-34.99a14167 14167 0 0 0-169.579-69.02zm-203.208 172.25c25.414 10.79 51.513 21.32 76.085 33.88l-.033 51.63c-25.614-10.93-51.68-21.79-76.057-35.29a1732 1732 0 0 1 .005-50.22m-531.919 13.76c17.465 6.78 34.726 16.18 51.755 24.16l.002 53.54-15.11 7.12a590 590 0 0 1-37.227 16.73 6787 6787 0 0 1 .58-101.55m917.353-793.456c6.94 1.001 13.88 2.657 20.76 4.024l.78 206.093c-7.07-1.935-14.33-3.42-21.47-5.088-1.09-68.266-.2-136.746-.07-205.029M253.68 1231.18c16.202 6.53 32.506 12.89 48.345 20.27l-.256 106.78c-16.247-7.05-32.12-15.17-48.287-22.44a6414 6414 0 0 1 .198-104.61m877.99-252.029c28.69 7.739 56.84 17.402 85.21 26.189 46.77 14.49 93.87 28.81 140 45.24-11.17 5.62-23.11 10.16-34.62 15.06-1.29.53-2.29.49-3.7.27-8.74-1.32-42.43-13.86-53.45-17.39-56-17.96-112.57-35.65-167.8-55.778 11.2-5.089 22.86-9.226 34.36-13.591m-120.83 45.979c16.18 5.12 31.85 11.9 47.94 17.32a10889 10889 0 0 1 176.35 60.48c-10.59 6-21.7 11.04-32.72 16.2-2.88.67-5.43-.05-8.2-.9-29.37-8.99-58.38-21.51-87.27-32.05-42.69-15.58-85.77-30.05-128.036-46.74 10.808-4.5 21.456-9.07 31.936-14.31m-121.335 47.73c11.245-.46 201.425 73.94 226.075 84.29-11.04 5.84-22.84 10.65-34.32 15.58-.84.2-1.66.64-2.53.59-3.15-.19-51.26-20.35-58.88-23.29-54.665-21.06-110.817-39.65-164.502-63.1 11.244-4.95 22.826-9.29 34.157-14.07m-542.896 196.32a3195 3195 0 0 1 62.168 27.05l-.627 110.72c-21.116-8.52-41.498-18.99-62.141-28.58a4028 4028 0 0 1 .6-109.19M1437.5 1078.15c11.85 1.28 57.22 19 72.4 24.09 58.22 19.51 117.98 36.78 175.12 59.23-10.21 6.37-21.58 11.56-32.3 17.08-20.13-2.77-65.21-21.74-86.26-29.39-26.06-9.48-52.55-17.72-78.7-26.91-27.58-9.71-54.89-20.31-82.85-28.87 11.18-4.16 22.03-9.7 32.59-15.23m-674.111 42.76c2.461-.28 4.352.07 6.681.8 28.292 8.89 56.504 21.73 84.152 32.59a9885 9885 0 0 1 142.353 55.88 1814 1814 0 0 0-34.214 16.08c-2.288.75-3.482.97-5.819.24-16.577-5.19-37.732-15.76-54.834-22.4l-173.532-68.73c11.222-5.59 23.546-9.81 35.213-14.46m559.461 11.03c4.87-.65 223 79.09 246.31 88.92-10.61 7.28-23.38 12.78-34.84 18.7-24.57-7.91-50.57-19.85-75.29-28.85a9604 9604 0 0 1-172.14-62.72c11.83-5.69 23.93-10.8 35.96-16.05m-862.962 184.53a3921 3921 0 0 1 64.512 27.76c.438 40 2.205 80.02 1.798 120.02-22.472-10.51-45.246-20.56-67.207-32.12-.151-38.56.757-77.1.897-115.66M642.2 1168.92c8.596.43 57.748 22.98 70.266 28.19 54.914 22.88 109.576 47.21 165.374 67.81-12.849 6.14-25.653 12.66-38.848 18.03-44.44-16.03-87.837-35.87-131.49-53.94-34.353-14.23-71.718-27.16-104.563-44.5a1030 1030 0 0 1 39.261-15.59m561.75 17.02c5.77-.09 33.63 12.96 41.94 16.01l210.79 77.44c-12.21 6.44-24.66 12.49-36.97 18.75-11.26-.5-75.11-27.31-90.33-33.04l-95.86-36.16c-22.13-8.27-44.57-16.08-66.34-25.24 11.72-6.84 24.37-12.31 36.77-17.76m-625.729 180.44c22.429 9.42 45.087 18.56 66.775 29.6-.028 41.77 1.051 83.53.864 125.29a987 987 0 0 1-66.807-31.6 8980 8980 0 0 0-.832-123.29m504.629-123.45c24.33 5.96 51 19.63 74.84 28.69a5478 5478 0 0 1 110.86 43.3c21.92 8.63 44.25 16.01 65.39 26.52-11.06 7.85-24.36 13.68-36.49 19.7-7.84-1.86-16.07-6.47-23.56-9.64a1608 1608 0 0 0-44.57-18.33c-31.84-12.81-64.06-24.6-95.93-37.33-29.25-11.68-58.02-24.38-87.54-35.41 11.83-6.67 24.63-11.9 37-17.5m-123.751 56.9c6.34.06 228.771 93.71 252.331 104.39-13.24 7.15-26.44 14.29-40.06 20.69-5.42-.6-36.98-15.61-44.84-18.93l-139.536-58.93c-22.289-9.41-44.067-20.64-67.04-28.27 13.233-5.96 26.18-12.44 39.145-18.95m-257.663 121.08c24.086 8.65 48.142 20.16 71.309 31.08 1.306 43.5 2.163 87.61 1.227 131.12-22.035-7.12-51.379-24.62-72.856-35.3zm549.884-725.709c17.09 3.034 36.39 6.819 52.57 13.176 1.43 33.705.76 67.801.82 101.55.08 37.725.78 75.611-.26 113.318-17.99-4.318-35.57-10.281-53.39-15.25-.48-42.145-.13-84.332-.11-126.481.01-28.725-.67-57.621.37-86.313m122.41 29.132c17.31 2.522 35.42 7.014 52.1 12.229 1.6 10.52.88 21.955.9 32.588l.07 55.004.21 87.874c.01 15.91.76 32.23-.46 48.09-18.25-5.043-36.57-10.338-54.51-16.395-1.35-43.314-.25-86.96-.19-130.303.02-16.539-2.17-76.719 1.88-89.087M1123.9 542.609c11.41.628 23.51 4.948 34.54 7.9l.27 256.45-.22 62.246c-.03 9.895 1.15 21.735-.8 31.396-3.09 1.093-6.04 2.287-9.36 1.738-.43-.072-.86-.169-1.29-.25-8.11-1.517-15.78-4.948-23.41-7.997zm377.19 211.821c16.5.325 40.32 8.914 56.8 13.328 1.64 76.865.22 154.049-.93 230.918-19.17-4.635-37.84-11.176-56.54-17.389-1.42-28.694-.4-57.87-.38-86.61a5075 5075 0 0 1 1.05-140.247m128.75 30.387a1035 1035 0 0 1 59.63 14.853l-1.55 237.87c-19.73-5.66-39.29-12.05-58.9-18.12zM201.151 1146.29a3267 3267 0 0 1 39.62 17.9 38926 38926 0 0 1-.607 404.53c-7.54-.28-29.304-13.48-37.361-17.85a39106 39106 0 0 1-1.652-404.58m1582.409-23.34c8.51.92 18.17 5.23 26.32 8a19852 19852 0 0 1-350.29 183.89l-438.52 227.07c-6.66 3.46-13.4 6.68-20.21 9.83l.07-23.37c20.81-12.17 42.8-22.4 64.15-33.56l172.67-88.12 373.37-192.44c43.92-22.47 87.69-44.82 131.25-68.01 10.98-5.84 32.87-14.99 41.19-23.29m-6.5-433.048 45.77 11.54a38815 38815 0 0 1-1.8 419.588c-14.36-4.4-28.62-8.81-43.24-12.25-2.49-139.556-.34-279.286-.73-418.878M877.588 1431.72a1456 1456 0 0 1 44.757 18.17l-.82 298.92a7993 7993 0 0 1-.662 157.47c-14.471-8.56-29.534-15.55-44.869-22.4l-.182-341.99c.05-17.27-2.071-99.7 1.776-110.17m990.022-742.841 1.63.093c2.48 5.796 1.09 173.348 1.04 192.089l-1.91 477.919c-10.08 6.11-20.57 11.53-30.97 17.08l-1.62-.63c-2.36-15.93-.66-42-.68-58.84l-.18-125.88 1.17-489.411c10.39-4.369 21.08-8.128 31.52-12.42M985.393 1419.02l1.296.95c1.2 17.1.15 35.02.133 52.2l.177 93.91-1.316 311.09c-17.017 8.07-33.406 18.94-49.346 29.01l-1.109-.35c-1.285-2.17-1.044-4.34-1.085-6.83-1.037-62.23.66-124.6.919-186.84l.759-267.05c15.805-10.23 32.604-18.02 49.572-26.09m459.847-394.18c.62.09 1.24.17 1.86.27 6.2 1.03 36.18 10.69 39.08 14.89-1.84 2.81-4.85 4.34-7.75 5.87-14.05 7.46-29.25 13.39-43.8 19.82-17.39 7.7-34.51 15.92-51.7 24.04l-356.79 164.23-129.28 60.38c-18.901 8.8-39.332 20.17-58.567 27.25-3.454 1.27-6.486-.96-9.588-2.33a1003 1003 0 0 0-44.863-18.53c68.13-27.47 134.679-58.94 201.288-89.91l92.56-42.01zM253.139 1174.21c26.571 9.06 52.807 21.48 78.772 32.24l165.058 68.88 281.909 116.49c27.649 11.46 55.903 21.45 83.364 33.34-.278 16.93-.117 33.89-.163 50.82-35.881-13.54-70.883-30.83-105.945-46.37l-175.868-76.9c-30.752-13.42-61.985-25.68-92.964-38.56l-234.219-97.11zm60.002-32.14c12.543 2.42 51.849 21.91 66.382 28.08l157.321 65.61 277.772 112.46c52.703 20.94 105.522 40.88 157.812 62.9a310 310 0 0 0-27.748 14.3c-5.809 3.32-13.986 10.07-20.226 11.75-1.351.36-3.808-1.78-5.015-2.55-12.857-6.28-26.764-11.17-40.002-16.65-38.999-16.15-78.523-30.99-117.416-47.3l-356.616-148.22c-49.777-20.65-100.033-39.98-149.427-61.57 18.732-6.8 38.904-11.04 57.163-18.81M1171.7 618.398c19.16 2.346 37.96 7.457 56.81 11.525l89.65 18.798a20819 20819 0 0 1 447 98.352c.11 18.994 1.76 39.542-.41 58.32a11006 11006 0 0 0-401.54-96.123c-63.99-14.523-127.32-30.876-191.81-43.092.08-15.908-.42-31.888.3-47.78m-14.91 294.62c2.49 11.24.61 28.794.53 40.696-30.6 15.241-63.35 25.823-95.04 38.533a14509 14509 0 0 1-232.53 90.363l-209.167 80.71c-38.583 14.86-77.437 31.95-117.134 43.55l-50.202-20.36a844 844 0 0 1-21.224-8.64c18.445-7.02 37.416-12.99 56.055-19.52l97.807-35.04 416.205-152.749c51.59-19.163 103.66-36.93 154.7-57.543"/><path fill="#FEFEFE" d="M1176.04 897.524c22.07 3.643 59.01 17.29 81.44 24.293l135.74 40.975 247.63 73.718a6725 6725 0 0 1 76.82 23.75c15.8 4.97 32 9.42 47.31 15.78a3470 3470 0 0 1 .41 43.19 2644 2644 0 0 0-27.37 14.04l-16.28 8.91c-54.96-17.27-109.61-36.01-164.25-54.28-19.44-6.5-38.64-14.01-58.27-19.9l.01-37.67a90 90 0 0 0-2.04-.91c-53.43-22.6-50.52-17.94-101.25 2.55-72.59-26.07-146.79-47.656-220.07-71.616zM253.677 1349.52c97.099 41.91 191.398 90.55 286.701 136.33 107.561 51.67 216.598 101.37 322.407 156.54l-.116 109.92c-13.017-4.35-29.803-15.13-42.734-21.52l-112.2-54.93-453.952-218.8zM1819.7 1139.95c3.92 4.73 2.08 121.87 1.95 135.93-54.55 30.29-108.54 61.72-162.63 92.8a12011 12011 0 0 0-121.99 70.24 9786 9786 0 0 1-162.95 96.43l-198.44 114.2c-57.79 32.74-118.18 65.57-173.92 101.45-.44-.35-.85-.74-1.28-1.12-1.319-21.79-.38-44.17-.44-66.01a5839 5839 0 0 1 .38-116.81c21.92-12.24 45.01-22.71 67.26-34.39l230.72-119.05c23.98-12.32 48.33-24 72.15-36.61l282.18-147.73a6422 6422 0 0 0 76.47-40.86c29.87-16.51 59.69-33.87 90.54-48.47"/></svg>